<?xml version="1.0" encoding="UTF-8"?>
<svg id="Layer_1" data-name="Layer 1" xmlns="http://www.w3.org/2000/svg" viewBox="0 0 549.97 28.21">
  <defs>
    <style>
      .cls-1 {
        fill: #fee9ad;
      }

      .cls-1, .cls-2, .cls-3, .cls-4, .cls-5, .cls-6, .cls-7, .cls-8 {
        stroke-width: 0px;
      }

      .cls-9 {
        fill: #fff;
        font-family: Bahnschrift, Bahnschrift;
        font-size: 13.06px;
        font-variation-settings: 'wght' 400, 'wdth' 100;
      }

      .cls-2 {
        fill: #feb02c;
      }

      .cls-3 {
        fill: #161616;
      }

      .cls-4 {
        fill: #feb02d;
      }

      .cls-5 {
        fill: #5192fe;
      }

      .cls-10 {
        letter-spacing: -.02em;
      }

      .cls-6 {
        fill: #fcd541;
      }

      .cls-7 {
        fill: #5193fe;
      }

      .cls-11 {
        letter-spacing: -.01em;
      }

      .cls-8 {
        fill: #fefefe;
      }
    </style>
  </defs>
  <rect class="cls-3" y="8.34" width="549.97" height="19.87"/>
  <text class="cls-9" transform="translate(35.64 22.91)"><tspan x="0" y="0">A</tspan><tspan class="cls-11" x="8.46" y="0">B</tspan><tspan class="cls-10" x="16.7" y="0">O</tspan><tspan x="24.87" y="0">UT ME</tspan></text>
  <g>
    <path class="cls-6" d="M9.41,10.54s0-.01,0-.01c.09-.03.17-.07.26-.09.12-.03.23-.07.36-.06.13,0,.25,0,.38,0,.11.01.21.05.32.08.06.02.11.05.17.08.06.03.12.05.17.09.06.04.11.09.17.14.04.03.07.06.11.1l.03.03s.04.04.06.06c.12.22.24.45.37.66.13.21.27.42.39.64.05.09.1.17.16.25.05.08.12.15.16.23.05.09.12.18.17.27.05.09.12.18.18.26.06.09.13.18.19.27.09.12.19.25.29.37.02.02.05.03.07.05.08.07.18.05.28.05.08,0,.15-.03.2-.09.04-.06.1-.12.11-.18.02-.13,0-.26-.11-.36-.01-.01-.02-.03-.03-.04-.08-.11-.16-.22-.24-.33-.06-.09-.13-.17-.19-.26-.15-.23-.3-.45-.45-.68-.1-.15-.2-.3-.29-.46-.05-.1-.12-.2-.18-.29-.11-.18-.23-.36-.34-.54-.11-.18-.2-.37-.3-.55-.18-.33-.33-.67-.48-1.01-.03-.07-.07-.13-.09-.21-.04-.16-.1-.3-.15-.45-.04-.12-.07-.24-.09-.37-.02-.12-.05-.25-.03-.38,0-.06,0-.13,0-.19,0-.06.01-.13.03-.19.01-.05.03-.1.05-.16.03-.11.08-.22.14-.32,0,0,0-.02,0-.03,0,0,.02-.02.03-.03.03-.02.05-.05.08-.05.09,0,.17-.05.25-.08.07-.02.14-.03.22-.03.09,0,.17,0,.26,0,.15,0,.35.04.52.12.11.05.23.09.34.17.18.13.33.29.43.49.1.2.2.4.28.6.06.15.15.28.2.43,0,.03.02.08.07.09v.05s0,.05,0,.08c.04.09.08.18.13.27.02.03.01.07.05.09,0,.03.02.05.03.08,0,0,.02.02.03.03v.03s-.01.05.03.05c0,.02-.01.05.03.05,0,.02,0,.04.01.05.03,0,.04.01.05.05.02.08.05.17.09.25.06.14.14.28.2.42.07.2.18.38.26.57.07.17.16.33.24.5.1.19.19.37.3.55.1.16.2.32.31.48.07.1.28.14.41.1.13-.04.18-.15.24-.25.02-.04.04-.08.02-.12-.02-.07-.05-.14-.08-.21-.15-.3-.31-.6-.46-.89-.1-.19-.19-.37-.28-.56-.09-.19-.19-.37-.27-.56-.13-.29-.27-.58-.4-.87-.01-.03-.04-.06-.05-.09-.06-.21-.16-.41-.23-.62-.06-.18-.19-.54-.23-.73-.01-.06,0-.12-.03-.16-.03-.07,0-.15-.03-.22-.03-.08-.02-.16-.02-.23,0-.06.02-.13.02-.19.01-.09,0-.18.03-.26.02-.06.02-.12.05-.17.07-.13.11-.27.21-.38,0,0-.02,0-.02,0,.05-.04.11-.04.16-.05.08-.02.16-.04.23-.05.13-.01.27-.03.4.01.02,0,.04,0,.06,0,.2,0,.37.09.53.19.08.05.15.11.23.17.09.08.16.19.23.29.06.08.1.17.14.25.08.19.18.38.26.57.08.18.16.36.24.54.09.2.18.39.27.59.09.2.2.39.29.59.21.48.45.93.69,1.39.06.13.13.26.21.37.06.08.09.18.14.27.16.24.3.49.47.73.09.13.19.25.28.38,0,0,.02.01.03.02,0,.07-.04.14-.03.22.02.16.09.27.23.35.02.01.04.03.07.03.04,0,.08,0,.12,0,.16,0,.28-.11.34-.27-.02-.06.03-.12.03-.18,0-.06.02-.12.03-.18,0-.1,0-.19.02-.29.02-.08,0-.18,0-.27,0-.09.02-.17.03-.26,0-.09-.02-.19.03-.27,0-.15.01-.29.03-.44.01-.12.02-.24.03-.37,0,0,0-.01,0-.01.04-.04.02-.08.03-.12,0-.05.02-.09.03-.14,0-.05.01-.1.03-.15.01-.05.01-.1.03-.15.05-.21.09-.43.17-.63.05-.14.1-.28.19-.41.05-.07.11-.14.16-.21.1-.14.22-.24.37-.32.03-.02.02-.04.02-.06.12,0,.23.04.34.06.12.02.23.07.34.13.08.05.17.1.25.16.09.07.18.15.26.23.15.14.25.31.34.5.06.14.11.28.14.43.03.16.03.31.02.46,0,.11,0,.22-.03.33-.02.09-.01.17-.02.26,0,.06-.02.13-.03.19,0,.06.02.12-.03.18,0,0,0,0,0,.01.02.15-.04.29-.03.44,0,.07-.03.13-.03.19,0,.07.01.14,0,.2-.05.2-.01.4-.03.6,0,.06-.02.13-.03.19,0,.06,0,.13,0,.19,0,.11.04.21.03.31-.01.1-.02.21,0,.31.02.1,0,.21.03.3.03.1-.01.2.05.29-.02.09.02.17.03.26.03.16.04.32.1.47.02.05-.01.12.04.16.02.17.07.34.1.51.02.11.04.23.06.34.03.14.04.29.1.43.02.05.02.11.03.16.04.16.05.33.11.48.02.05.02.11.03.16.02.13.05.25.06.38.01.15.03.3.05.45.02.15.01.29.02.44,0,.15,0,.3,0,.45,0,.06-.04.1-.03.17,0,.05,0,.11-.02.17-.02.06-.02.14-.03.2-.02.15-.05.3-.09.45-.04.15-.07.29-.13.43-.05.11-.08.24-.14.35-.08.17-.16.34-.25.51-.04.09-.1.17-.15.25-.12.2-.28.37-.4.56,0,0-.01.01-.02.02-.13.14-.26.28-.39.42-.05.05-.11.1-.17.14-.05.05-.09.11-.16.13-.11.13-.27.21-.4.31-.08.06-.17.11-.26.16-.25.16-.51.29-.78.41-.1.05-.2.09-.3.13-.14.05-.29.09-.43.14-.13.05-.28.06-.41.13-.07-.01-.14.01-.21.03-.05.01-.1.02-.15.03-.05,0-.1,0-.14.03,0,0,0,0-.01,0-.15,0-.3.02-.45.03-.15,0-.31,0-.46,0-.05,0-.09-.04-.15-.03-.05.01-.1-.01-.15-.02-.07-.01-.15-.02-.22-.03-.14-.02-.28-.06-.42-.09-.16-.04-.31-.1-.46-.13-.06-.01-.13-.03-.18-.06-.12-.06-.24-.09-.37-.13-.08-.03-.15-.07-.23-.1-.16-.07-.32-.14-.48-.22-.32-.17-.64-.34-.94-.55-.1-.07-.19-.15-.29-.23-.17-.14-.33-.29-.5-.44-.1-.09-.2-.19-.3-.28-.12-.09-.21-.21-.33-.3-.1-.08-.18-.17-.27-.25-.13-.1-.23-.22-.35-.32-.08-.07-.16-.14-.23-.21-.12-.11-.23-.23-.36-.32-.1-.07-.17-.17-.27-.24-.12-.09-.22-.21-.34-.3-.08-.07-.16-.14-.24-.21-.12-.11-.23-.23-.36-.32-.1-.08-.18-.17-.28-.25-.11-.09-.21-.2-.31-.29-.28-.23-.52-.51-.78-.76-.14-.14-.26-.29-.38-.44-.14-.17-.28-.34-.4-.53-.11-.18-.23-.36-.31-.56-.04-.1-.07-.21-.09-.31-.01-.05-.02-.09-.03-.14,0-.04,0-.09,0-.14,0-.02,0-.05,0-.07.04-.1.02-.21.06-.31.03-.07.07-.14.1-.22.09-.18.21-.34.36-.46.15-.11.31-.21.48-.28.12-.05.24-.11.37-.11.06-.05.13,0,.19-.03.06-.04.13-.03.18-.01.09.02.17.02.26.02,0,0,.02.02.03.03.05.04.11.08.15.14.11.14.22.28.35.4.23.22.44.47.7.67.09.07.16.16.26.23.12.09.23.21.35.31.19.18.36.38.56.54.09.07.18.14.29.18.05.02.08.01.13,0,.12-.02.19-.1.25-.18.05-.07.1-.17.06-.26-.05-.12-.11-.23-.21-.32-.14-.13-.26-.28-.42-.39-.12-.09-.21-.21-.33-.31-.09-.07-.18-.16-.27-.24-.2-.17-.39-.36-.57-.54-.13-.13-.26-.26-.39-.39-.02-.02-.04-.04-.06-.06-.06-.11-.15-.19-.23-.28-.13-.14-.24-.29-.35-.44-.12-.16-.23-.33-.32-.51-.08-.17-.18-.34-.23-.53-.03-.11-.09-.21-.08-.33-.05-.07,0-.16-.03-.23-.04-.09-.01-.17-.02-.25,0-.05-.02-.12.02-.16,0-.08,0-.16.03-.23.01-.06.03-.12.04-.18.02-.07.05-.13.09-.2.01-.02.01-.04-.02-.05Z"/>
    <path class="cls-2" d="M11.25,6.91s0,.02,0,.03c-.06.1-.11.21-.14.32-.02.05-.03.1-.05.16-.01.06-.02.13-.03.19,0,.06,0,.13,0,.19-.01.13,0,.26.03.38.02.12.05.25.09.37.05.15.11.3.15.45.02.07.06.14.09.21.15.34.3.68.48,1.01.1.18.19.37.3.55.11.18.23.36.34.54.06.1.12.19.18.29.09.16.19.31.29.46.15.23.3.46.45.68.06.09.13.17.19.26.08.11.16.22.24.33,0,.01.01.03.03.04.1.1.13.23.11.36-.01.07-.06.13-.11.18-.05.07-.12.09-.2.09-.1,0-.19.02-.28-.05-.02-.02-.05-.03-.07-.05-.1-.12-.19-.24-.29-.37-.07-.09-.13-.18-.19-.27-.06-.09-.13-.17-.18-.26-.05-.09-.12-.17-.17-.27-.04-.08-.11-.15-.16-.23-.06-.08-.11-.16-.16-.25-.12-.22-.25-.43-.39-.64-.13-.21-.25-.44-.37-.66-.02-.03-.02-.05-.06-.06l-.03-.03s-.01-.09-.03-.12c-.07-.15-.16-.3-.23-.45-.08-.19-.16-.37-.23-.57-.05-.13-.11-.26-.16-.39-.04-.1-.07-.2-.11-.29-.04-.09-.05-.2-.11-.28,0-.14-.07-.27-.06-.41,0-.08,0-.17,0-.26,0-.12.04-.24.08-.36.02-.06.05-.12.08-.18.05-.11.12-.21.21-.3.07-.07.14-.14.21-.21.05-.04.11-.07.17-.12.03-.02.06-.01.09-.02Z"/>
    <path class="cls-5" d="M18.58,8.06s0,.08,0,.12c.02.16-.09.28-.23.36-.12.06-.23.05-.34-.02-.13-.08-.18-.2-.19-.35,0-.14,0-.28-.03-.41-.02-.11-.03-.22-.07-.32-.03-.1-.05-.2-.09-.3-.1-.28-.16-.41-.32-.7-.07-.12-.14-.25-.23-.37-.08-.11-.14-.23-.25-.32-.05-.05-.12-.09-.15-.17,0,0-.01-.01-.02-.02-.17-.13-.32-.3-.5-.42-.16-.1-.32-.19-.49-.27-.16-.07-.32-.15-.5-.17-.08-.05-.18-.03-.25-.08,0,0,0,0-.01,0-.1,0-.2-.02-.3-.03-.08,0-.15-.02-.23-.03-.08,0-.16.01-.24,0-.22-.04-.37-.17-.36-.41,0-.08.03-.16.09-.22.04-.04.08-.07.12-.11.04-.03.09-.01.12-.03.05-.03.07-.01.12,0,.06.02.13,0,.19,0,.08,0,.17-.02.24,0,.08.03.15,0,.23.04.05.03.13,0,.2.03.06.02.13,0,.19.03.06.03.12.03.18.05.08.03.17.06.25.08.08.02.16.06.24.09.12.04.24.11.35.17.17.1.33.19.48.31.16.13.32.25.45.41.14.16.28.31.41.48.13.17.24.35.35.54.05.09.11.19.16.29.09.2.18.42.25.63.05.16.08.32.13.47.02.06.01.14.03.21.03.13.03.27.04.41,0,0,0,0,0,0Z"/>
    <path class="cls-5" d="M4.5,14.52c0,.07,0,.14.02.2.03.06-.02.14.04.19,0,.1.03.19.05.29.02.13.07.26.12.38.07.17.13.35.23.51.08.14.16.29.26.42.1.14.21.27.32.4.08.09.16.18.25.26.17.15.34.28.54.39.07.03.13.08.2.11.12.05.24.1.36.14.07.03.14.05.21.07.06.01.12.02.17.05.05.03.11,0,.16.03.05.03.13.02.19.03.17.02.33.04.5.03.06,0,.12.02.17.04.05.02.13.11.17.17.04.08.08.16.05.25-.04.11-.09.2-.2.26-.06.03-.12.05-.18.05-.07,0-.14,0-.22,0-.07,0-.13-.04-.21-.03-.06,0-.13.02-.19-.02-.09.02-.17-.02-.26-.03-.1-.01-.19-.04-.28-.07-.13-.03-.26-.08-.38-.12-.29-.1-.57-.23-.82-.4-.22-.16-.44-.32-.63-.52-.05-.06-.12-.11-.17-.17-.13-.13-.23-.28-.34-.43-.08-.11-.16-.22-.23-.34-.08-.14-.15-.29-.22-.44-.11-.22-.19-.44-.27-.67-.04-.13-.06-.26-.1-.39-.03-.08-.01-.17-.03-.26-.03-.14-.02-.27-.03-.41,0-.15,0-.2.06-.31.05-.09.12-.16.23-.17.11-.01.24,0,.32.06.03.02.05.07.08.1.03.03.04.06.05.1.03.08.02.16.02.25Z"/>
    <path class="cls-2" d="M9.41,10.54s.03.03.02.05c-.04.06-.07.13-.09.2-.02.06-.03.12-.04.18-.02.08-.04.15-.03.23-.05.05-.03.11-.02.16,0,.08-.02.16.02.25.03.07-.01.16.03.23-.01.12.05.22.08.33.05.19.15.35.23.53.09.18.2.34.32.51.11.15.22.3.35.44.08.09.17.17.23.28.01.02.04.04.06.06.13.13.26.26.39.39.19.18.38.37.57.54.09.08.17.17.27.24.12.09.21.21.33.31.15.12.28.27.42.39.1.09.16.2.21.32.04.1,0,.19-.06.26-.06.08-.13.16-.25.18-.05,0-.08.01-.13,0-.11-.04-.2-.11-.29-.18-.21-.16-.37-.36-.56-.54-.11-.11-.22-.22-.35-.31-.09-.07-.17-.16-.26-.23-.25-.2-.46-.45-.7-.67-.13-.12-.24-.26-.35-.4-.04-.05-.1-.09-.15-.14,0,0-.02-.02-.03-.03-.11-.14-.22-.29-.31-.44-.1-.16-.22-.31-.3-.48-.02-.05-.05-.09-.08-.13-.08-.11-.12-.24-.18-.36-.07-.15-.11-.3-.14-.46-.04-.19-.02-.38-.02-.57,0-.13.05-.25.09-.37.08-.22.2-.42.38-.57.08-.07.17-.12.26-.18.01,0,.03,0,.05-.01Z"/>
    <path class="cls-5" d="M19.85,6.6s0,.08,0,.12c.02.18-.09.28-.23.36-.02.01-.05.02-.07.02-.05,0-.1,0-.15,0-.03,0-.06-.01-.08-.03-.13-.08-.23-.17-.22-.36,0-.04,0-.08,0-.12,0-.07-.01-.14-.03-.21-.01-.07.02-.14-.03-.21.01-.15-.06-.28-.08-.43,0-.07-.03-.13-.06-.19-.09-.19-.17-.38-.27-.55-.06-.11-.14-.22-.21-.32-.1-.13-.22-.24-.31-.38-.08-.04-.13-.11-.19-.16-.12-.09-.24-.19-.36-.27-.13-.08-.27-.14-.41-.22-.17-.09-.35-.15-.52-.21-.1-.04-.22-.04-.33-.06-.05,0-.09-.02-.14-.03-.05,0-.1.02-.14-.03-.09,0-.19,0-.28,0-.12,0-.22-.02-.31-.11-.04-.04-.13-.12-.12-.16,0-.07-.07-.13,0-.19,0-.07.03-.12.08-.17.05-.06.13-.12.2-.12.03,0,.06,0,.09-.03,0,0,.04,0,.05,0,.04.05.09.03.14.02.17-.01.33.01.49.03.15.02.31.03.46.1.12,0,.22.05.33.09.1.04.2.09.3.12.19.07.35.19.52.28.04.02.08.05.12.08.1.1.23.15.33.26.04.05.11.08.15.13.17.2.36.38.5.6.07.11.14.22.21.34.06.1.11.2.16.3.1.17.15.36.22.55.05.15.06.3.14.45,0,.07.01.14.03.21.01.08.02.16.03.23.02.09.01.18.02.26Z"/>
    <path class="cls-7" d="M3.23,15.95c-.02.13.02.26.03.4.01.12.03.25.07.37.04.12.06.24.11.36.06.14.13.27.2.4.09.17.19.33.31.48.11.13.21.27.34.39.07.07.16.13.24.19.07.05.13.11.21.16.18.12.37.22.57.3.14.05.28.1.43.14.14.03.28.06.43.08.09.01.18.02.27.02.1,0,.2.03.3.03,0,0,.02,0,.02,0,.08.03.13.09.18.16.03.04.05.1.05.16,0,.05,0,.11,0,.16-.03.13-.2.28-.34.28-.09,0-.19.03-.27-.02-.02-.01-.06,0-.09,0-.13.02-.25-.02-.37-.03-.11-.01-.22-.04-.32-.07-.1-.03-.21-.04-.3-.09-.11-.05-.22-.07-.33-.13-.08-.05-.17-.07-.25-.11-.16-.08-.3-.17-.44-.27-.16-.11-.31-.22-.45-.36-.07-.07-.15-.12-.22-.19-.1-.12-.23-.23-.3-.38-.03-.05-.07-.09-.1-.13-.16-.2-.26-.43-.38-.65,0-.09-.08-.16-.09-.25-.01-.08-.06-.15-.09-.23-.03-.08-.04-.17-.06-.26-.02-.07-.03-.13-.05-.2-.02-.06,0-.13-.03-.19-.04-.12-.05-.57-.03-.69.01-.08.05-.14.11-.2.08-.07.16-.11.27-.11.1,0,.19.04.26.11.07.07.12.16.12.26,0,.04,0,.07,0,.12Z"/>
    <path class="cls-4" d="M14.54,5.77s.02,0,.02,0c-.11.11-.14.25-.21.38-.03.05-.03.11-.05.17-.03.08-.02.17-.03.26,0,.06-.03.13-.02.19,0,.08-.01.15.02.23.03.06,0,.14.03.22.02.05.01.11.03.16.05.19.17.55.23.73.07.21.17.41.23.62,0,.03.03.06.05.09.13.29.27.58.4.87.09.19.18.38.27.56.09.19.19.37.28.56.15.3.31.6.46.89.03.07.06.14.08.21.01.04,0,.08-.02.12-.06.1-.1.21-.24.25-.12.04-.34,0-.41-.1-.11-.16-.21-.32-.31-.48-.11-.18-.2-.37-.3-.55-.08-.16-.17-.33-.24-.5-.08-.19-.18-.37-.26-.57-.05-.14-.13-.28-.2-.42-.04-.08-.07-.16-.09-.25,0-.03-.02-.04-.05-.05,0,0,0-.03-.01-.05,0-.02.01-.05-.03-.05,0-.02.01-.05-.03-.05v-.03s-.02-.02-.03-.03c0-.03-.02-.05-.03-.08.02-.09-.05-.16-.07-.24-.02-.07-.04-.14-.1-.19,0-.02.01-.05-.03-.05,0-.06-.02-.11-.04-.16-.07-.14-.11-.29-.15-.44-.02-.09-.06-.17-.07-.26-.01-.08-.04-.16-.05-.24,0-.05-.02-.1-.03-.15,0-.05,0-.11,0-.16,0-.06-.01-.13.01-.18.03-.05-.02-.12.04-.16,0-.16.08-.3.15-.44.11-.21.27-.39.48-.52.09-.05.17-.11.27-.13Z"/>
    <path class="cls-4" d="M21.31,7.91s0,.04-.02.06c-.15.07-.27.18-.37.32-.05.07-.11.13-.16.21-.09.13-.14.27-.19.41-.07.21-.12.42-.17.63-.01.05-.01.1-.03.15-.01.05-.02.1-.03.15,0,.05-.02.09-.03.14,0,.04.01.09-.03.12,0,0,0,0,0,.01,0,.12-.01.25-.03.37-.02.14-.04.29-.03.44-.05.09-.02.18-.03.27,0,.09-.02.17-.03.26,0,.09.02.18,0,.27-.02.1-.01.19-.02.29,0,.06-.03.12-.03.18,0,.06-.05.11-.03.18-.06.16-.18.27-.34.27-.04,0-.08,0-.12,0-.03,0-.05-.01-.07-.03-.14-.08-.21-.19-.23-.35,0-.08.03-.14.03-.22,0-.05.01-.1.03-.15.02-.12.04-.24.06-.36.03-.13.02-.26.08-.39,0,0,0,0,0-.01-.01-.15.04-.3.03-.45,0-.05.02-.11.02-.16,0-.06-.01-.12,0-.17.04-.1.01-.19.02-.29,0-.06.02-.13.03-.19,0-.06-.02-.12.03-.18,0,0,0-.02,0-.03,0-.06-.02-.11.02-.17.03-.05-.01-.12.04-.16,0-.12.05-.23.08-.34.1-.3.25-.57.5-.77.16-.13.35-.22.56-.25.09-.01.17-.02.26-.02.06,0,.11-.05.16-.03Z"/>
    <path class="cls-2" d="M11.28,6.88s-.02.02-.03.03c0,0,.02-.02.03-.03Z"/>
    <path class="cls-1" d="M14.16,9.24s.02.03.03.05c-.04,0-.02-.03-.03-.05Z"/>
    <path class="cls-1" d="M14.18,9.3s.02.03.03.05c-.04,0-.02-.03-.03-.05Z"/>
    <path class="cls-1" d="M14.13,9.19s.02.02.03.03c0,0-.02-.02-.03-.03Z"/>
    <path class="cls-8" d="M11.34,10.87l.03.03-.03-.03Z"/>
    <path class="cls-8" d="M9.66,14.12s.02.02.03.03c0,0-.02-.02-.03-.03Z"/>
  </g>
</svg>