<?xml version="1.0" encoding="UTF-8"?><svg id="a" xmlns="http://www.w3.org/2000/svg" viewBox="0 0 65.22 24.64"><defs><style>.b{fill:#1572b6;}</style></defs><g><path d="M31.36,18.25c-.67-.39-1.19-.95-1.56-1.67s-.55-1.56-.55-2.5v-3.51c0-.95,.18-1.78,.55-2.5s.89-1.28,1.56-1.67,1.45-.59,2.33-.59c.73,0,1.41,.16,2.02,.47s1.13,.76,1.54,1.33,.69,1.24,.84,2h-1.84c-.11-.4-.3-.75-.56-1.07s-.57-.56-.92-.73-.71-.25-1.09-.25c-.52,0-.98,.13-1.37,.38s-.7,.6-.91,1.06-.33,.98-.33,1.59v3.51c0,.6,.11,1.12,.33,1.58s.52,.81,.91,1.06,.85,.37,1.37,.37c.38,0,.75-.08,1.09-.24s.65-.39,.91-.7,.45-.68,.56-1.11h1.84c-.15,.76-.43,1.42-.84,2s-.93,1.02-1.55,1.33-1.29,.47-2.01,.47c-.88,0-1.66-.2-2.33-.59Z"/><path d="M42.38,18.66c-.55-.12-1.06-.29-1.54-.53s-.92-.53-1.34-.88l1.12-1.37c.49,.42,1.02,.74,1.61,.95s1.22,.32,1.91,.32c.93,0,1.64-.17,2.15-.51s.76-.83,.76-1.45h0c0-.45-.12-.81-.35-1.07s-.53-.45-.9-.58-.84-.24-1.42-.35c-.02,0-.04,0-.06,0s-.04,0-.06,0l-.13-.03c-.86-.15-1.55-.31-2.09-.5s-.99-.52-1.38-1.01-.57-1.19-.57-2.09h0c0-.8,.18-1.48,.53-2.03s.87-.99,1.55-1.28,1.5-.44,2.45-.44c.46,0,.91,.05,1.35,.15s.88,.25,1.31,.44,.85,.44,1.27,.74l-1.02,1.42c-.49-.36-.97-.63-1.45-.8s-.97-.27-1.45-.27c-.87,0-1.55,.17-2.03,.52s-.73,.84-.73,1.48h0c0,.45,.12,.79,.37,1.05s.56,.44,.93,.56,.89,.24,1.55,.37c.02,0,.05,.01,.07,.01s.04,0,.07,.01c.03,0,.06,.01,.1,.02s.07,.01,.1,.02c.77,.16,1.42,.35,1.94,.56s.95,.57,1.3,1.05,.52,1.14,.52,1.98v.02c0,.78-.18,1.45-.55,2s-.9,.98-1.6,1.27-1.55,.44-2.54,.44c-.62,0-1.2-.06-1.75-.18Z"/><path d="M53.11,18.66c-.55-.12-1.06-.29-1.54-.53s-.92-.53-1.34-.88l1.12-1.37c.49,.42,1.02,.74,1.61,.95s1.22,.32,1.91,.32c.93,0,1.64-.17,2.15-.51s.76-.83,.76-1.45h0c0-.45-.12-.81-.35-1.07s-.53-.45-.9-.58-.84-.24-1.42-.35c-.02,0-.04,0-.06,0s-.04,0-.06,0l-.13-.03c-.86-.15-1.55-.31-2.09-.5s-.99-.52-1.38-1.01-.57-1.19-.57-2.09h0c0-.8,.18-1.48,.53-2.03s.87-.99,1.55-1.28,1.5-.44,2.45-.44c.46,0,.91,.05,1.35,.15s.88,.25,1.31,.44,.85,.44,1.27,.74l-1.02,1.42c-.49-.36-.97-.63-1.45-.8s-.97-.27-1.45-.27c-.87,0-1.55,.17-2.03,.52s-.73,.84-.73,1.48h0c0,.45,.12,.79,.37,1.05s.56,.44,.93,.56,.89,.24,1.55,.37c.02,0,.05,.01,.07,.01s.04,0,.07,.01c.03,0,.06,.01,.1,.02s.07,.01,.1,.02c.77,.16,1.42,.35,1.94,.56s.95,.57,1.3,1.05,.52,1.14,.52,1.98v.02c0,.78-.18,1.45-.55,2s-.9,.98-1.6,1.27-1.55,.44-2.54,.44c-.62,0-1.2-.06-1.75-.18Z"/></g><path class="b" d="M0,0L1.97,22.17l8.86,2.47,8.88-2.48L21.7,0H0ZM17.59,5.08l-.66,7.38v.13h0l-.47,5.16-.05,.46-5.57,1.54h0l-5.56-1.55-.38-4.27h2.73l.19,2.17,3.02,.82h0l3.03-.83,.32-3.54H7.86l-.05-.6-.12-1.4-.07-.75h6.82l.25-2.75H4.3l-.05-.6-.12-1.4-.07-.75h13.61l-.07,.76Z"/></svg>