<?xml version="1.0" encoding="UTF-8"?><svg id="a" xmlns="http://www.w3.org/2000/svg" viewBox="0 0 185.33 24.64"><defs><style>.b{fill:#092e20;}</style></defs><g><path d="M30.51,5.93h1.79v12.78h-1.79V5.93Zm1.21,11.07h2.89c.94,0,1.67-.24,2.19-.73s.78-1.18,.78-2.07v-3.76c0-.89-.26-1.58-.78-2.07s-1.25-.73-2.19-.73h-2.89v-1.71h2.84c1.03,0,1.9,.18,2.63,.54s1.28,.88,1.66,1.56,.57,1.51,.57,2.48v3.62c0,.97-.19,1.79-.57,2.48s-.94,1.21-1.67,1.56-1.61,.54-2.63,.54h-2.83v-1.71Z"/><path d="M40.91,20.71h1c.16,0,.29-.06,.38-.18s.14-.29,.14-.51V9.59h1.79v10.42c0,.77-.19,1.36-.56,1.78s-.9,.63-1.58,.63h-1.18v-1.71Zm1.5-14.78h1.83v1.79h-1.83v-1.79Z"/><path d="M47.36,18.14c-.56-.47-.83-1.17-.83-2.12s.25-1.58,.76-2.03,1.28-.68,2.31-.68h2.59l.12,1.44h-2.71c-.47,0-.82,.1-1.05,.31s-.35,.53-.35,.95c0,.46,.15,.81,.46,1.03s.77,.33,1.4,.33c.69,0,1.2-.07,1.53-.22s.51-.38,.51-.69l.18,1.28c-.16,.25-.35,.45-.58,.61s-.5,.28-.8,.36-.65,.12-1.03,.12c-1.12,0-1.97-.23-2.52-.7Zm4.75-5.22c0-.6-.16-1.06-.48-1.39s-.77-.5-1.36-.5c-.36,0-.72,.06-1.07,.17s-.66,.27-.93,.47l-1.31-.9c.35-.42,.8-.74,1.37-.97s1.19-.35,1.89-.35c.76,0,1.4,.13,1.94,.4s.95,.65,1.23,1.16,.42,1.12,.42,1.83v5.86h-1.71v-5.78Z"/><path d="M56.55,9.59h1.79v9.12h-1.79V9.59Zm5.54,3.59c0-.64-.17-1.14-.5-1.49s-.8-.53-1.41-.53-1.04,.16-1.36,.47-.48,.75-.48,1.31l-.18-1.76c.28-.55,.65-.98,1.1-1.27s.96-.45,1.51-.45c.99,0,1.76,.32,2.3,.97s.81,1.56,.81,2.75v5.54h-1.79v-5.53Z"/><path d="M67.79,18.43c-.47-.29-.83-.71-1.08-1.27s-.37-1.22-.37-2v-2.01c0-.79,.12-1.46,.36-2.01s.59-.98,1.05-1.27,1.01-.44,1.66-.44c.54,0,1.03,.14,1.48,.42s.81,.68,1.09,1.19l-.18,1.86c0-.39-.07-.72-.21-.99s-.34-.48-.61-.63-.59-.22-.97-.22c-.59,0-1.05,.18-1.38,.55s-.49,.89-.49,1.56v1.99c0,.66,.16,1.17,.49,1.53s.78,.54,1.38,.54c.38,0,.7-.07,.97-.22s.47-.36,.61-.65,.21-.62,.21-1.01l.12,1.92c-.18,.45-.48,.83-.89,1.13s-.92,.46-1.52,.46c-.67,0-1.24-.15-1.71-.44Zm.04,3.6c-.54-.25-.96-.61-1.26-1.08l1.21-1.1c.23,.32,.51,.57,.84,.75s.67,.26,1.02,.26c.69,0,1.22-.19,1.59-.57s.56-.91,.56-1.6V9.59h1.79v8.85c0,.84-.15,1.56-.46,2.15s-.75,1.05-1.34,1.36-1.29,.47-2.12,.47c-.69,0-1.3-.13-1.84-.38Z"/><path d="M77.77,18.37c-.56-.31-.99-.76-1.29-1.36s-.44-1.31-.44-2.15v-1.49c0-.83,.15-1.53,.44-2.12s.73-1.04,1.29-1.34,1.24-.46,2.03-.46,1.47,.15,2.03,.46,.99,.76,1.29,1.34,.44,1.3,.44,2.12v1.51c0,.83-.15,1.54-.44,2.13s-.73,1.04-1.29,1.35-1.24,.47-2.03,.47-1.47-.16-2.03-.47Zm3.48-1.83c.34-.39,.51-.94,.51-1.65v-1.51c0-.71-.17-1.26-.51-1.64s-.83-.58-1.45-.58-1.11,.19-1.45,.58-.51,.93-.51,1.64v1.51c0,.71,.17,1.26,.51,1.65s.83,.59,1.45,.59,1.11-.2,1.45-.59Z"/><path d="M91.13,5.93h1.79v12.78h-1.79V5.93Zm.88,0h7.16v1.71h-7.16v-1.71Zm0,5.7h6.2v1.71h-6.2v-1.71Z"/><path d="M101.01,9.59h1.79v9.12h-1.79V9.59Zm4.42,1.72c-.24-.1-.52-.15-.83-.15-.57,0-1.01,.16-1.32,.47s-.47,.75-.47,1.31l-.18-1.76c.28-.54,.64-.97,1.09-1.27s.94-.45,1.48-.45c.42,0,.79,.06,1.13,.18s.63,.3,.88,.53l-1.17,1.58c-.16-.19-.36-.34-.6-.44Z"/><path d="M109.09,18.14c-.56-.47-.83-1.17-.83-2.12s.25-1.58,.76-2.03,1.28-.68,2.31-.68h2.59l.12,1.44h-2.71c-.47,0-.82,.1-1.05,.31s-.35,.53-.35,.95c0,.46,.15,.81,.46,1.03s.77,.33,1.4,.33c.69,0,1.2-.07,1.53-.22s.51-.38,.51-.69l.18,1.28c-.16,.25-.35,.45-.58,.61s-.5,.28-.8,.36-.65,.12-1.03,.12c-1.12,0-1.97-.23-2.52-.7Zm4.75-5.22c0-.6-.16-1.06-.48-1.39s-.77-.5-1.36-.5c-.36,0-.72,.06-1.07,.17s-.66,.27-.93,.47l-1.31-.9c.35-.42,.8-.74,1.37-.97s1.19-.35,1.89-.35c.76,0,1.4,.13,1.94,.4s.95,.65,1.23,1.16,.42,1.12,.42,1.83v5.86h-1.71v-5.78Z"/><path d="M118.27,9.59h1.79v9.12h-1.79V9.59Zm5.45,3.59c0-.64-.16-1.14-.47-1.49s-.76-.53-1.34-.53-1.04,.16-1.36,.47-.48,.75-.48,1.31l-.18-1.76c.28-.55,.65-.98,1.1-1.27s.96-.45,1.51-.45c.64,0,1.18,.15,1.63,.44s.79,.71,1.03,1.27c.24,.56,.36,1.23,.36,2.01v5.54h-1.79v-5.53Zm5.45,0c0-.64-.17-1.14-.5-1.49s-.8-.53-1.41-.53c-.56,0-.99,.17-1.29,.51s-.46,.82-.46,1.44l-.36-1.76c.29-.6,.67-1.07,1.14-1.4s.99-.5,1.56-.5c.66,0,1.22,.15,1.68,.44,.46,.29,.82,.71,1.06,1.27s.37,1.23,.37,2.01v5.54h-1.79v-5.53Z"/><path d="M135.26,18.37c-.6-.32-1.05-.78-1.37-1.39-.31-.61-.47-1.35-.47-2.22v-1.03c0-.9,.15-1.67,.45-2.31,.3-.64,.74-1.12,1.31-1.46s1.27-.5,2.07-.5c.76,0,1.41,.19,1.95,.57s.95,.93,1.24,1.65c.28,.72,.43,1.58,.43,2.59v.6h-6.15v-1.44h4.45c-.05-.74-.25-1.32-.58-1.74s-.77-.62-1.33-.62c-.68,0-1.21,.22-1.58,.67-.37,.45-.56,1.08-.56,1.89v1.16c0,.76,.2,1.34,.6,1.74s.96,.61,1.7,.61c.36,0,.72-.07,1.08-.22s.68-.35,.96-.62l1.18,1.18c-.45,.43-.96,.77-1.52,1.01s-1.13,.36-1.7,.36c-.84,0-1.56-.16-2.16-.47Z"/><path d="M142.2,9.59h1.87l1.62,6.51,2.28-6.51h1.25l2.28,6.51,1.62-6.51h1.87l-2.81,9.12h-1.35l-2.22-6.3-2.22,6.3h-1.35l-2.81-9.12Z"/><path d="M158.2,18.37c-.56-.31-.99-.76-1.29-1.36s-.44-1.31-.44-2.15v-1.49c0-.83,.15-1.53,.44-2.12s.73-1.04,1.29-1.34,1.24-.46,2.03-.46,1.47,.15,2.03,.46,.99,.76,1.29,1.34c.29,.59,.44,1.3,.44,2.12v1.51c0,.83-.15,1.54-.44,2.13-.3,.59-.73,1.04-1.29,1.35s-1.24,.47-2.03,.47-1.47-.16-2.03-.47Zm3.49-1.83c.34-.39,.51-.94,.51-1.65v-1.51c0-.71-.17-1.26-.51-1.64-.34-.39-.83-.58-1.46-.58s-1.11,.19-1.46,.58c-.34,.39-.51,.93-.51,1.64v1.51c0,.71,.17,1.26,.51,1.65,.34,.39,.83,.59,1.46,.59s1.11-.2,1.46-.59Z"/><path d="M166.54,9.59h1.79v9.12h-1.79V9.59Zm4.42,1.72c-.24-.1-.52-.15-.83-.15-.57,0-1.01,.16-1.32,.47-.31,.31-.47,.75-.47,1.31l-.18-1.76c.28-.54,.64-.97,1.09-1.27s.94-.45,1.48-.45c.42,0,.79,.06,1.13,.18,.34,.12,.63,.3,.88,.53l-1.17,1.58c-.16-.19-.36-.34-.6-.44Z"/><path d="M174.23,5.93h1.79v12.78h-1.79V5.93Zm.77,9.32l4.69-5.66h2.11l-6.92,7.79,.11-2.13Zm2.12-1.8l1.15-1.2,3.98,6.46h-1.95l-3.18-5.26Z"/></g><path class="b" d="M8.92,0h4.03V18.65c-2.07,.39-3.58,.55-5.23,.55-4.92,0-7.48-2.22-7.48-6.49S2.95,5.93,7.16,5.93c.65,0,1.15,.05,1.75,.21V0Zm0,9.39c-.47-.16-.86-.21-1.36-.21-2.04,0-3.22,1.26-3.22,3.45s1.13,3.32,3.19,3.32c.44,0,.81-.03,1.39-.1v-6.46Z"/><path class="b" d="M19.35,6.22V15.56c0,3.22-.24,4.76-.94,6.1-.65,1.28-1.52,2.09-3.3,2.98l-3.74-1.78c1.78-.84,2.64-1.57,3.19-2.69,.58-1.15,.76-2.49,.76-5.99V6.22h4.03ZM15.32,.02h4.03V4.15h-4.03V.02Z"/></svg>