<svg id="Layer_1" data-name="Layer 1" xmlns="http://www.w3.org/2000/svg" viewBox="0 0 201.11 24.64"><defs><style>.cls-1{fill:#092e20;}</style></defs><path d="M30.51,5.93H32.3V18.71H30.51ZM31.72,17h2.89a3,3,0,0,0,2.19-.73,2.71,2.71,0,0,0,.78-2.07V10.44a2.71,2.71,0,0,0-.78-2.07,3,3,0,0,0-2.19-.74H31.72V5.93h2.84a5.9,5.9,0,0,1,2.63.54A3.69,3.69,0,0,1,38.85,8a5.05,5.05,0,0,1,.57,2.48v3.62a5.05,5.05,0,0,1-.57,2.48,3.72,3.72,0,0,1-1.67,1.56,5.87,5.87,0,0,1-2.63.54H31.72Z"/><path d="M40.91,20.71h1a.45.45,0,0,0,.38-.18.84.84,0,0,0,.13-.51V9.59h1.8V20a2.6,2.6,0,0,1-.56,1.78,2,2,0,0,1-1.58.64H40.91ZM42.42,5.93h1.82V7.72H42.42Z"/><path d="M47.36,18.14A2.61,2.61,0,0,1,46.53,16a2.57,2.57,0,0,1,.76-2,3.42,3.42,0,0,1,2.32-.68H52.2l.12,1.44H49.61a1.55,1.55,0,0,0-1,.32,1.2,1.2,0,0,0-.34.95,1.18,1.18,0,0,0,.46,1,2.41,2.41,0,0,0,1.4.33,3.92,3.92,0,0,0,1.53-.22.71.71,0,0,0,.51-.68l.18,1.28a2,2,0,0,1-.58.61,2.77,2.77,0,0,1-.8.35,4.1,4.1,0,0,1-1,.12A3.86,3.86,0,0,1,47.36,18.14Zm4.76-5.21a1.93,1.93,0,0,0-.48-1.4A1.8,1.8,0,0,0,50.28,11a3.56,3.56,0,0,0-1.07.16,3.2,3.2,0,0,0-.92.47L47,10.77a3.44,3.44,0,0,1,1.36-1,5,5,0,0,1,1.89-.35,4.41,4.41,0,0,1,1.94.4A2.82,2.82,0,0,1,53.4,11a3.76,3.76,0,0,1,.42,1.84v5.86h-1.7Z"/><path d="M56.55,9.59h1.79v9.12H56.55Zm5.54,3.59a2.1,2.1,0,0,0-.5-1.49,1.84,1.84,0,0,0-1.41-.53,1.87,1.87,0,0,0-1.36.46,1.76,1.76,0,0,0-.48,1.31l-.18-1.75a3.3,3.3,0,0,1,1.1-1.28,2.68,2.68,0,0,1,1.51-.45,2.84,2.84,0,0,1,2.3,1,4.15,4.15,0,0,1,.81,2.74v5.54H62.09Z"/><path d="M67.79,18.43a2.71,2.71,0,0,1-1.08-1.27,4.83,4.83,0,0,1-.37-2v-2a5.1,5.1,0,0,1,.36-2,2.76,2.76,0,0,1,1-1.27,3,3,0,0,1,1.66-.43,2.74,2.74,0,0,1,1.48.42A3,3,0,0,1,72,11l-.18,1.86a2.13,2.13,0,0,0-.21-1,1.43,1.43,0,0,0-.61-.63,2,2,0,0,0-1-.22,1.74,1.74,0,0,0-1.38.56,2.29,2.29,0,0,0-.49,1.55v2a2.23,2.23,0,0,0,.49,1.53,1.76,1.76,0,0,0,1.38.54A2,2,0,0,0,71,17a1.53,1.53,0,0,0,.61-.65,2.25,2.25,0,0,0,.21-1l.12,1.93A2.57,2.57,0,0,1,71,18.41a2.52,2.52,0,0,1-1.52.46A3.2,3.2,0,0,1,67.79,18.43Zm0,3.61A3,3,0,0,1,66.56,21l1.21-1.1a2.71,2.71,0,0,0,.84.75,2.22,2.22,0,0,0,1,.26,2.15,2.15,0,0,0,1.59-.57,2.18,2.18,0,0,0,.56-1.6V9.59h1.79v8.85a4.64,4.64,0,0,1-.46,2.15A3.09,3.09,0,0,1,71.78,22a4.48,4.48,0,0,1-2.12.47A4.35,4.35,0,0,1,67.82,22Z"/><path d="M77.77,18.37A3,3,0,0,1,76.49,17,4.74,4.74,0,0,1,76,14.87V13.38a4.64,4.64,0,0,1,.45-2.12,3,3,0,0,1,1.28-1.34,4.64,4.64,0,0,1,4.07,0,3,3,0,0,1,1.28,1.34,4.64,4.64,0,0,1,.45,2.12v1.51A4.67,4.67,0,0,1,83.12,17a3.07,3.07,0,0,1-1.28,1.34,4.64,4.64,0,0,1-4.07,0Zm3.49-1.82a2.48,2.48,0,0,0,.51-1.66V13.38a2.4,2.4,0,0,0-.51-1.64,2.12,2.12,0,0,0-2.91,0,2.4,2.4,0,0,0-.51,1.64v1.51a2.48,2.48,0,0,0,.51,1.66,2.09,2.09,0,0,0,2.91,0Z"/><path d="M91.13,5.93h1.79V18.71H91.13Zm.87,0h7.17v1.7H92Zm0,5.69h6.2v1.71H92Z"/><path d="M101,9.59h1.8v9.12H101Zm4.42,1.72a2.12,2.12,0,0,0-.83-.15,1.79,1.79,0,0,0-1.32.47,1.73,1.73,0,0,0-.47,1.3l-.19-1.75a3.33,3.33,0,0,1,1.09-1.27,2.54,2.54,0,0,1,1.48-.46,3.39,3.39,0,0,1,1.13.18,2.49,2.49,0,0,1,.88.54L106,11.75A1.47,1.47,0,0,0,105.43,11.31Z"/><path d="M109.09,18.14a2.58,2.58,0,0,1-.83-2.12,2.57,2.57,0,0,1,.76-2,3.41,3.41,0,0,1,2.31-.68h2.59l.13,1.44h-2.71a1.52,1.52,0,0,0-1,.32,1.2,1.2,0,0,0-.35.95,1.21,1.21,0,0,0,.46,1,2.45,2.45,0,0,0,1.41.33,4,4,0,0,0,1.53-.22.71.71,0,0,0,.51-.68l.18,1.28a2.12,2.12,0,0,1-.58.61,2.83,2.83,0,0,1-.81.35,4,4,0,0,1-1,.12A3.85,3.85,0,0,1,109.09,18.14Zm4.76-5.21a1.93,1.93,0,0,0-.48-1.4A1.81,1.81,0,0,0,112,11a3.56,3.56,0,0,0-1.07.16,3.13,3.13,0,0,0-.93.47l-1.31-.9a3.48,3.48,0,0,1,1.37-1A5,5,0,0,1,112,9.45a4.44,4.44,0,0,1,1.94.4A2.82,2.82,0,0,1,115.13,11a3.76,3.76,0,0,1,.42,1.84v5.86h-1.7Z"/><path d="M118.27,9.59h1.8v9.12h-1.8Zm5.45,3.59a2.13,2.13,0,0,0-.47-1.49,1.71,1.71,0,0,0-1.35-.53,1.86,1.86,0,0,0-1.35.46,1.76,1.76,0,0,0-.48,1.31l-.19-1.75A3.24,3.24,0,0,1,121,9.9a2.65,2.65,0,0,1,1.5-.45,3,3,0,0,1,1.64.44,2.73,2.73,0,0,1,1,1.27,5.08,5.08,0,0,1,.36,2v5.54h-1.8Zm5.45,0a2.05,2.05,0,0,0-.5-1.49,1.8,1.8,0,0,0-1.4-.53,1.67,1.67,0,0,0-1.3.51,2.11,2.11,0,0,0-.45,1.44l-.36-1.76a3.45,3.45,0,0,1,1.13-1.4,2.7,2.7,0,0,1,1.56-.5,3.15,3.15,0,0,1,1.69.44,2.73,2.73,0,0,1,1.06,1.27,5.08,5.08,0,0,1,.37,2v5.54h-1.8Z"/><path d="M135.26,18.37A3.17,3.17,0,0,1,133.9,17a4.73,4.73,0,0,1-.47-2.22v-1a5.42,5.42,0,0,1,.45-2.32A3.32,3.32,0,0,1,135.19,10a4.13,4.13,0,0,1,2.08-.5,3.24,3.24,0,0,1,1.95.58,3.5,3.5,0,0,1,1.23,1.65,6.92,6.92,0,0,1,.43,2.59v.6h-6.15V13.43h4.45a3.12,3.12,0,0,0-.58-1.74,1.63,1.63,0,0,0-1.33-.62,1.93,1.93,0,0,0-1.58.67,2.86,2.86,0,0,0-.56,1.89v1.16a2.39,2.39,0,0,0,.6,1.74,2.29,2.29,0,0,0,1.7.61,3,3,0,0,0,1.08-.22,3.51,3.51,0,0,0,1-.62l1.17,1.18a4.78,4.78,0,0,1-1.52,1,4.28,4.28,0,0,1-1.69.36A4.67,4.67,0,0,1,135.26,18.37Z"/><path d="M142.2,9.59h1.87l1.62,6.51L148,9.59h1.25l2.28,6.51,1.62-6.51H155l-2.81,9.12h-1.36l-2.22-6.3-2.23,6.3H145Z"/><path d="M158.2,18.37A3,3,0,0,1,156.92,17a4.74,4.74,0,0,1-.45-2.15V13.38a4.64,4.64,0,0,1,.45-2.12,3,3,0,0,1,1.28-1.34,4.62,4.62,0,0,1,4.06,0,2.94,2.94,0,0,1,1.29,1.34,4.64,4.64,0,0,1,.45,2.12v1.51a4.67,4.67,0,0,1-.45,2.14,3,3,0,0,1-1.29,1.34,4.62,4.62,0,0,1-4.06,0Zm3.49-1.82a2.48,2.48,0,0,0,.51-1.66V13.38a2.4,2.4,0,0,0-.51-1.64,2.12,2.12,0,0,0-2.91,0,2.4,2.4,0,0,0-.51,1.64v1.51a2.48,2.48,0,0,0,.51,1.66,2.09,2.09,0,0,0,2.91,0Z"/><path d="M166.54,9.59h1.8v9.12h-1.8ZM171,11.31a2.17,2.17,0,0,0-.84-.15,1.79,1.79,0,0,0-1.32.47,1.73,1.73,0,0,0-.47,1.3l-.19-1.75a3.33,3.33,0,0,1,1.09-1.27,2.54,2.54,0,0,1,1.48-.46,3.35,3.35,0,0,1,1.13.18,2.41,2.41,0,0,1,.88.54l-1.17,1.58A1.43,1.43,0,0,0,171,11.31Z"/><path d="M174.23,5.93H176V18.71h-1.79Zm.77,9.32,4.69-5.66h2.11l-6.91,7.78Zm2.12-1.81,1.15-1.19,4,6.46H180.3Z"/><path class="cls-1" d="M8.92,0h4V18.65a26.85,26.85,0,0,1-5.24.55C2.79,19.2.23,17,.23,12.71S3,5.93,7.16,5.93a6.79,6.79,0,0,1,1.76.21Zm0,9.39a4,4,0,0,0-1.36-.21c-2,0-3.22,1.25-3.22,3.45S5.46,16,7.53,16a9.24,9.24,0,0,0,1.39-.1Z"/><path class="cls-1" d="M19.35,6.22v9.34c0,3.22-.23,4.76-.94,6.1a6.45,6.45,0,0,1-3.29,3l-3.75-1.78c1.78-.84,2.65-1.57,3.2-2.7s.76-2.48.76-6V6.22Zm-4-6.2h4V4.15h-4Z"/></svg>