<svg id="Layer_1" data-name="Layer 1" xmlns="http://www.w3.org/2000/svg" viewBox="0 0 167.11 24.64"><defs><style>.cls-1{fill:#2497ec;}</style></defs><path d="M40.25,5.93H42V18.71H40.25ZM41.46,17h2.89a3.08,3.08,0,0,0,2.2-.73,2.71,2.71,0,0,0,.78-2.07V10.44a2.71,2.71,0,0,0-.78-2.07,3.08,3.08,0,0,0-2.2-.74H41.46V5.93H44.3a5.87,5.87,0,0,1,2.63.54A3.64,3.64,0,0,1,48.59,8a5.05,5.05,0,0,1,.57,2.48v3.62a5.05,5.05,0,0,1-.57,2.48,3.74,3.74,0,0,1-1.66,1.56,5.92,5.92,0,0,1-2.64.54H41.46Z"/><path d="M53.35,18.38A3.12,3.12,0,0,1,52.07,17a4.74,4.74,0,0,1-.45-2.15V13.38a4.64,4.64,0,0,1,.45-2.12,3,3,0,0,1,1.28-1.34,4.64,4.64,0,0,1,4.07,0,3,3,0,0,1,1.28,1.34,4.64,4.64,0,0,1,.45,2.12v1.51A4.67,4.67,0,0,1,58.7,17a3.15,3.15,0,0,1-1.28,1.35,4.73,4.73,0,0,1-4.07,0Zm3.49-1.83a2.48,2.48,0,0,0,.51-1.66V13.38a2.4,2.4,0,0,0-.51-1.64,2.12,2.12,0,0,0-2.91,0,2.4,2.4,0,0,0-.51,1.64v1.51a2.48,2.48,0,0,0,.51,1.66,2.09,2.09,0,0,0,2.91,0Z"/><path d="M63.25,18.38A3.22,3.22,0,0,1,61.9,17a4.54,4.54,0,0,1-.47-2.14V13.37a4.44,4.44,0,0,1,.47-2.11,3.07,3.07,0,0,1,1.35-1.34,4.53,4.53,0,0,1,2.13-.47,4.87,4.87,0,0,1,1.34.18,4.11,4.11,0,0,1,1.13.49,3.13,3.13,0,0,1,.83.79l-1.29,1.16a2.65,2.65,0,0,0-.9-.67,2.58,2.58,0,0,0-1.09-.24,2.12,2.12,0,0,0-1.6.58,2.24,2.24,0,0,0-.58,1.63v1.51a2.32,2.32,0,0,0,.57,1.67,2.15,2.15,0,0,0,1.61.59,2.4,2.4,0,0,0,1.09-.26,2.61,2.61,0,0,0,.9-.72l1.29,1.25a3.48,3.48,0,0,1-.84.78,4.1,4.1,0,0,1-1.13.48,4.8,4.8,0,0,1-1.33.17A4.53,4.53,0,0,1,63.25,18.38Z"/><path d="M70.66,5.93h1.79V18.71H70.66Zm.77,9.32,4.7-5.66h2.11l-6.92,7.78Zm2.12-1.81,1.15-1.19,4,6.46h-2Z"/><path d="M81.75,18.37A3.12,3.12,0,0,1,80.39,17a4.73,4.73,0,0,1-.47-2.22v-1a5.42,5.42,0,0,1,.45-2.32A3.25,3.25,0,0,1,81.68,10a4,4,0,0,1,2.08-.51,3.24,3.24,0,0,1,1.95.58,3.5,3.5,0,0,1,1.23,1.65,6.92,6.92,0,0,1,.43,2.59v.6H81.22V13.43h4.44a3,3,0,0,0-.57-1.74,1.63,1.63,0,0,0-1.33-.62,1.93,1.93,0,0,0-1.58.67,2.86,2.86,0,0,0-.56,1.89v1.16a2.36,2.36,0,0,0,.6,1.74,2.28,2.28,0,0,0,1.69.61A3,3,0,0,0,85,16.92a3.31,3.31,0,0,0,1-.62l1.18,1.18a5.11,5.11,0,0,1-1.52,1,4.46,4.46,0,0,1-1.7.35A4.65,4.65,0,0,1,81.75,18.37Z"/><path d="M89.83,9.59h1.79v9.12H89.83Zm4.42,1.72a2.16,2.16,0,0,0-.83-.15,1.83,1.83,0,0,0-1.33.47,1.77,1.77,0,0,0-.47,1.3l-.18-1.75a3.25,3.25,0,0,1,1.09-1.27A2.56,2.56,0,0,1,94,9.45a3.31,3.31,0,0,1,1.13.18,2.53,2.53,0,0,1,.89.54l-1.17,1.58A1.47,1.47,0,0,0,94.25,11.31Z"/><path class="cls-1" d="M26.35,11.07a.37.37,0,0,0-.06-.14,4.5,4.5,0,0,1-.44-1,3.66,3.66,0,0,0-.13-.44.57.57,0,0,0,0-.29,3.63,3.63,0,0,1,0-.57s0-.05,0-.06a.14.14,0,0,1,0-.16.29.29,0,0,0,0-.16,2.16,2.16,0,0,1,0-.57c0-.23.1-.46.16-.68s.17-.52.26-.77a7.8,7.8,0,0,1,.35-.71,3.51,3.51,0,0,1,.39-.61c0-.06.08-.12.13-.19a.7.7,0,0,1,.2.08c.2.14.42.24.61.4l.22.16A6.09,6.09,0,0,1,28.7,6a7.43,7.43,0,0,1,.57.78c.08.13.14.27.21.4a2.3,2.3,0,0,1,.18.43,2,2,0,0,1,.1.26,1.52,1.52,0,0,1,.06.2,1.94,1.94,0,0,1,.05.2.54.54,0,0,0,0,.19c0,.06,0,.12,0,.19l.16,0,.17,0,0,0a3.71,3.71,0,0,0,.47,0c.26,0,.52-.06.79,0l.27,0a1.31,1.31,0,0,1,.28,0c.07,0,.15,0,.22,0l.23,0,.14,0a4.62,4.62,0,0,1,1.3.48c.09.05.17.12.26.18l.26.22a6.56,6.56,0,0,1-.23.62c-.12.24-.26.47-.4.7,0,.07-.11.12-.15.19a3.39,3.39,0,0,1-.52.55,4.88,4.88,0,0,1-.78.57,5.39,5.39,0,0,1-.59.29l-.36.13-.33.11c-.07,0-.15,0-.2,0s-.14,0-.21.05-.13,0-.2,0a1.34,1.34,0,0,1-.35,0l-.48,0h-.5c-.08.18-.16.37-.23.55a2.36,2.36,0,0,1-.12.28l-.3.68c-.22.51-.48,1-.74,1.49-.13.25-.28.5-.43.74s-.38.64-.59.94c-.11.14-.2.29-.31.44l-.33.42c-.12.16-.24.33-.37.48l-.23.26c-.3.32-.6.64-.91.94l-.41.38c-.14.13-.29.25-.44.37s-.43.34-.65.5l-.61.43-.55.34-.51.3c-.18.1-.37.19-.56.28s-.46.23-.69.32a5.12,5.12,0,0,1-.77.3c-.18.12-.4.12-.58.24a2.79,2.79,0,0,0-.39.1c-.12,0-.23.09-.36.11s-.13.05-.2.06l-.19.07a1.3,1.3,0,0,0-.21,0c-.06,0-.14,0-.2.06a2.29,2.29,0,0,0-.36.07l-.28.07c-.09,0-.19,0-.28.06a.86.86,0,0,1-.28,0l-.15,0a.41.41,0,0,0-.16,0l-.24,0-.23,0-.39,0a1.81,1.81,0,0,1-.23,0,.36.36,0,0,0-.23,0h0a4.48,4.48,0,0,0-.64,0,5,5,0,0,0-.67,0,9.73,9.73,0,0,1-1.08,0,3.08,3.08,0,0,1-.43,0l-1.06,0a3.42,3.42,0,0,0-.45,0c-.11,0-.23,0-.34,0s-.21,0-.31,0-.19,0-.28,0l-.26,0a.71.71,0,0,1-.21,0c-.06,0-.13,0-.19,0s-.15,0-.21,0-.15,0-.2,0-.15,0-.2-.05-.36-.1-.56-.11a.63.63,0,0,1-.22-.07,3.54,3.54,0,0,1-.58-.17l-.43-.13c-.13,0-.26-.11-.4-.15a3.13,3.13,0,0,1-.46-.21l-.47-.23a3.7,3.7,0,0,1-.59-.38c-.15-.12-.32-.23-.48-.35a2.79,2.79,0,0,1-.32-.28c-.12-.12-.25-.24-.36-.37a7.74,7.74,0,0,1-.57-.69c-.11-.16-.24-.32-.34-.49l-.32-.52c-.14-.25-.27-.51-.39-.77s-.17-.38-.24-.57-.13-.31-.19-.47a2.4,2.4,0,0,0-.12-.38,2.2,2.2,0,0,0-.13-.36A2.26,2.26,0,0,0,.7,17.1a3.48,3.48,0,0,0-.1-.44,4.72,4.72,0,0,0-.13-.54c0-.17-.07-.32-.07-.49a1.36,1.36,0,0,0,0-.17,1,1,0,0,0,0-.16A2,2,0,0,1,.3,15a3.73,3.73,0,0,1,0-.48,2.3,2.3,0,0,1,0-.26c0-.08,0-.18,0-.25a2.3,2.3,0,0,1,0-.52c0-.26,0-.51,0-.77a2.36,2.36,0,0,1,.1-.49,1.47,1.47,0,0,1,.32-.38A3.36,3.36,0,0,1,1,11.67H23.7c.19,0,.38,0,.57,0a4,4,0,0,0,.48-.07L25,11.5a2.19,2.19,0,0,0,.27,0,2.68,2.68,0,0,1,.35-.1c.12,0,.24-.1.36-.13S26.21,11.11,26.35,11.07Z"/><path class="cls-1" d="M23.31,7.77a.34.34,0,0,1,.19.34v2.41a.67.67,0,0,1-.05.34l-.14.13c-.53.06-1.11,0-1.69,0h-.89A2.06,2.06,0,0,1,20,11l-.1-.11a1.1,1.1,0,0,1,0-.41V8.21a.47.47,0,0,1,.1-.38l.1-.06Z"/><path class="cls-1" d="M10.68,3.9l.1.1a.87.87,0,0,1,.05.42c0,.83,0,1.65,0,2.46L10.76,7a.53.53,0,0,1-.4.1H7.48a.42.42,0,0,1-.24-.25V4.2a1.16,1.16,0,0,1,0-.18L7.4,3.9a1.18,1.18,0,0,1,.46,0c.79,0,1.57,0,2.36,0A1,1,0,0,1,10.68,3.9Z"/><path class="cls-1" d="M11.72,7.12l-.14-.07c-.12-.12-.09-.26-.09-.4,0-.73,0-1.47,0-2.2a1.1,1.1,0,0,1,0-.44l.09-.09a1,1,0,0,1,.44,0h2.49l.35,0a.41.41,0,0,1,.18.37V6.79a.33.33,0,0,1-.2.31.39.39,0,0,1-.15,0h-3Z"/><path class="cls-1" d="M15,10.87l-.11.1a5,5,0,0,1-1,0H12.23a1.64,1.64,0,0,1-.61-.06l-.08-.1a.83.83,0,0,1,0-.44c0-.77,0-1.54,0-2.3a.65.65,0,0,1,.08-.27s.07,0,.11-.08h3.21l.13.09a.75.75,0,0,1,.07.35v2.21A1,1,0,0,1,15,10.87Z"/><path class="cls-1" d="M10.64,7.77l.12.09s.08.1.08.18a.41.41,0,0,0,0,.11v2.37a.8.8,0,0,1-.05.34l-.14.12a7.46,7.46,0,0,1-1.17,0H8.07a2.14,2.14,0,0,1-.7-.06.4.4,0,0,1-.13-.35V8.23a1.33,1.33,0,0,1,0-.2,1.42,1.42,0,0,1,.08-.18l.12-.08Z"/><path class="cls-1" d="M6.61,10.88,6.52,11a4.6,4.6,0,0,1-1,0H3.59c-.12,0-.24,0-.38,0l-.14-.17V8.06a.31.31,0,0,1,.19-.29H6.47l.12.09a.75.75,0,0,1,.07.35v2A2.09,2.09,0,0,1,6.61,10.88Z"/><path class="cls-1" d="M15.69,7V4.18A.31.31,0,0,1,15.76,4a.8.8,0,0,1,.32-.09H18.8a.49.49,0,0,1,.38.09l.07.11V6.91a.46.46,0,0,1,0,.09.32.32,0,0,1-.26.12h-3.1Z"/><path class="cls-1" d="M19.05,0l.07,0a.28.28,0,0,1,.13.25V3.06l-.14.15a3.71,3.71,0,0,1-.94,0h-2a1.16,1.16,0,0,1-.37-.07l-.09-.13c0-.91,0-1.84,0-2.77A.3.3,0,0,1,15.9,0Z"/><path class="cls-1" d="M15.78,11l-.08-.13V8l0-.06A.27.27,0,0,1,16,7.77h3.06a.28.28,0,0,1,.2.22v2.84l-.17.15a1.79,1.79,0,0,1-.53,0H16.14A1.35,1.35,0,0,1,15.78,11Z"/></svg>