<?xml version="1.0" encoding="UTF-8"?><svg id="a" xmlns="http://www.w3.org/2000/svg" viewBox="0 0 99 24.64"><defs><style>.b{fill:#2497ec;}</style></defs><g><path d="M40.25,5.93h1.79v12.78h-1.79V5.93Zm1.21,11.07h2.89c.94,0,1.67-.24,2.19-.73s.78-1.18,.78-2.07v-3.76c0-.89-.26-1.58-.78-2.07s-1.25-.73-2.19-.73h-2.89v-1.71h2.84c1.03,0,1.9,.18,2.63,.54s1.28,.88,1.66,1.56,.57,1.51,.57,2.48v3.62c0,.97-.19,1.79-.57,2.48s-.94,1.21-1.67,1.56-1.61,.54-2.63,.54h-2.83v-1.71Z"/><path d="M53.35,18.37c-.56-.31-.99-.76-1.29-1.36s-.44-1.31-.44-2.15v-1.49c0-.83,.15-1.53,.44-2.12s.73-1.04,1.29-1.34,1.24-.46,2.03-.46,1.47,.15,2.03,.46,.99,.76,1.29,1.34,.44,1.3,.44,2.12v1.51c0,.83-.15,1.54-.44,2.13s-.73,1.04-1.29,1.35-1.24,.47-2.03,.47-1.47-.16-2.03-.47Zm3.48-1.83c.34-.39,.51-.94,.51-1.65v-1.51c0-.71-.17-1.26-.51-1.64s-.83-.58-1.45-.58-1.11,.19-1.45,.58-.51,.93-.51,1.64v1.51c0,.71,.17,1.26,.51,1.65s.83,.59,1.45,.59,1.11-.2,1.45-.59Z"/><path d="M63.25,18.37c-.59-.31-1.04-.76-1.35-1.35s-.47-1.31-.47-2.14v-1.5c0-.83,.16-1.53,.47-2.12s.76-1.03,1.35-1.34,1.3-.46,2.13-.46c.47,0,.92,.06,1.34,.17s.8,.28,1.13,.5,.61,.48,.83,.79l-1.29,1.16c-.26-.29-.56-.52-.91-.68s-.71-.24-1.08-.24c-.69,0-1.23,.19-1.61,.58s-.57,.93-.57,1.63v1.5c0,.72,.19,1.28,.57,1.67s.92,.59,1.61,.59c.38,0,.74-.08,1.09-.25s.64-.41,.9-.72l1.29,1.25c-.23,.3-.51,.56-.84,.78s-.71,.38-1.13,.49-.86,.17-1.33,.17c-.83,0-1.54-.16-2.13-.47Z"/><path d="M70.66,5.93h1.79v12.78h-1.79V5.93Zm.77,9.32l4.69-5.66h2.11l-6.92,7.79,.11-2.13Zm2.12-1.8l1.15-1.2,3.98,6.46h-1.95l-3.18-5.26Z"/><path d="M81.75,18.37c-.6-.32-1.05-.78-1.37-1.39s-.47-1.35-.47-2.22v-1.03c0-.9,.15-1.67,.45-2.31s.74-1.12,1.31-1.46,1.27-.5,2.07-.5c.76,0,1.41,.19,1.95,.57s.95,.93,1.23,1.65,.43,1.58,.43,2.59v.6h-6.15v-1.44h4.45c-.05-.74-.24-1.32-.58-1.74s-.77-.62-1.33-.62c-.68,0-1.21,.22-1.58,.67s-.56,1.08-.56,1.89v1.16c0,.76,.2,1.34,.6,1.74s.96,.61,1.7,.61c.36,0,.72-.07,1.08-.22s.68-.35,.96-.62l1.18,1.18c-.45,.43-.96,.77-1.52,1.01s-1.13,.36-1.7,.36c-.84,0-1.56-.16-2.16-.47Z"/><path d="M89.83,9.59h1.79v9.12h-1.79V9.59Zm4.42,1.72c-.24-.1-.52-.15-.83-.15-.57,0-1.01,.16-1.32,.47s-.47,.75-.47,1.3l-.18-1.76c.28-.54,.64-.97,1.09-1.27s.94-.45,1.48-.45c.42,0,.79,.06,1.13,.18s.63,.3,.88,.53l-1.17,1.58c-.16-.19-.36-.34-.6-.44Z"/></g><g><path class="b" d="M26.35,11.07c-.02-.06-.03-.11-.06-.15-.2-.33-.31-.59-.44-.96-.05-.15-.06-.3-.13-.44,.02-.1-.02-.2-.04-.29-.04-.19-.03-.38-.03-.57,0-.02,0-.05-.01-.06-.04-.05-.03-.1,0-.15,.02-.05,.02-.11,.01-.17-.02-.19,0-.38,.04-.57,.04-.23,.09-.46,.16-.69,.07-.26,.17-.51,.26-.76,.09-.25,.22-.48,.34-.71,.11-.21,.24-.42,.4-.61,.05-.06,.08-.12,.13-.2,.07,.03,.14,.05,.2,.09,.2,.13,.42,.24,.61,.4,.07,.06,.15,.1,.22,.16,.25,.2,.47,.42,.68,.66,.21,.24,.4,.5,.57,.77,.08,.13,.15,.27,.22,.41,.07,.14,.13,.28,.18,.42,.03,.09,.08,.17,.1,.27,.02,.07,.05,.13,.06,.19,.01,.07,.03,.14,.05,.21,.01,.06,0,.14,.03,.19,.04,.06,.01,.12,.04,.19,.05-.01,.11-.03,.16-.04,.05,0,.11,0,.17-.02,.01,0,.03-.02,.04-.02,.16,.02,.31-.04,.47-.04,.26,0,.53-.06,.79-.03,.09,0,.18,.03,.28,.03,.09,0,.19-.02,.27,0,.08,.02,.16,.01,.23,.03,.08,.02,.15,.03,.23,.03,.05,0,.09,.02,.14,.03,.46,.09,.89,.26,1.31,.48,.09,.05,.17,.11,.25,.18,.09,.07,.17,.14,.26,.22-.08,.2-.13,.42-.23,.62-.12,.24-.25,.47-.4,.69-.04,.07-.11,.12-.15,.19-.14,.21-.33,.39-.52,.56-.24,.21-.5,.4-.77,.57-.19,.12-.4,.2-.6,.29-.12,.05-.23,.1-.35,.14-.11,.04-.22,.07-.33,.1-.07,.02-.15,.01-.2,.05-.07,.05-.14,0-.21,.05-.05,.04-.13,0-.21,.03-.1,.04-.23,.03-.34,.04-.16,.01-.32,.03-.48,.03-.17,0-.33,0-.5,0-.08,.18-.16,.36-.22,.55-.03,.09-.08,.18-.12,.27-.1,.23-.2,.45-.3,.68-.22,.51-.48,1-.74,1.49-.13,.25-.28,.5-.43,.75-.19,.32-.38,.63-.59,.93-.1,.14-.2,.29-.31,.44-.11,.15-.22,.29-.33,.43-.12,.16-.25,.32-.38,.48-.07,.09-.15,.18-.23,.26-.29,.32-.59,.64-.91,.94-.13,.13-.27,.26-.41,.38-.15,.13-.29,.25-.44,.37-.21,.17-.43,.33-.65,.49-.2,.15-.4,.29-.61,.43-.18,.12-.36,.23-.54,.34-.17,.1-.34,.2-.51,.3-.18,.11-.37,.2-.56,.29-.23,.11-.45,.22-.69,.32-.25,.1-.5,.24-.77,.3-.18,.12-.41,.12-.59,.24-.14,0-.25,.08-.38,.11-.13,.02-.24,.09-.37,.11-.06,0-.13,.05-.19,.06-.07,.02-.13,.05-.19,.07-.07,.02-.15,0-.21,.04-.06,.04-.15,0-.2,.06-.13,0-.24,.05-.36,.07-.09,.02-.19,.04-.28,.07-.09,.03-.19,.03-.28,.06-.08,.03-.18,.03-.27,.04-.05,0-.1,.03-.16,.03-.05,0-.1,.01-.16,.03-.07,.02-.16,.01-.24,.04-.07,.02-.15,.02-.23,.03-.13,.03-.26,.02-.4,.04-.08,0-.15,.04-.23,.03-.08,0-.16-.02-.23,.03,0,0-.01,0-.02,0-.21-.02-.42,.03-.64,.04-.22,.02-.45,0-.67,.03-.36,.06-.72,.01-1.08,.03-.14,0-.29,0-.43,0-.35,0-.71-.02-1.06-.03-.15-.05-.3-.01-.45-.04-.12-.02-.23,0-.34-.03-.11-.02-.21-.01-.31-.03-.09-.02-.19-.01-.28-.03-.09-.02-.18-.02-.26-.04-.07-.02-.15,0-.21-.03-.07-.03-.13-.01-.19-.03-.07-.03-.15,0-.21-.04-.07-.03-.15,0-.2-.04-.06-.05-.15,.02-.2-.06-.19,0-.36-.1-.56-.11-.08,0-.15-.04-.23-.07-.19-.06-.39-.1-.58-.17-.14-.05-.28-.1-.42-.14-.14-.04-.27-.1-.4-.14-.16-.05-.3-.14-.46-.21-.16-.07-.31-.15-.47-.24-.21-.11-.41-.23-.6-.38-.15-.12-.32-.22-.47-.34-.11-.09-.22-.19-.33-.29-.12-.12-.25-.23-.36-.36-.19-.22-.39-.44-.56-.69-.11-.16-.24-.32-.35-.49-.11-.17-.21-.35-.31-.52-.15-.25-.27-.51-.4-.78-.09-.19-.16-.38-.24-.57-.06-.16-.13-.31-.18-.47-.05-.12-.07-.26-.12-.38-.05-.12-.06-.25-.13-.36,0-.15-.08-.29-.11-.44-.02-.15-.06-.29-.1-.44-.05-.18-.06-.37-.13-.54,.02-.17-.07-.32-.07-.48,0-.06-.02-.12-.03-.17,0-.05-.01-.1-.03-.16-.02-.08-.02-.17-.03-.26-.03-.16-.03-.32-.04-.48,0-.09-.03-.17-.03-.26,0-.09,.02-.18,0-.26-.05-.17-.03-.35-.03-.52,0-.26-.06-.51-.04-.77,0-.06,.07-.44,.1-.49,.1-.13,.17-.29,.31-.38,.13-.09,.28-.15,.42-.22,.01,0,.03,0,.05,0h.1c7.52,0,15.03,0,22.55,0,.19,0,.38-.04,.57-.04,.16,0,.32-.04,.49-.06,.09-.01,.17-.05,.26-.07,.09-.02,.19,0,.27-.04,.12-.05,.23-.07,.35-.1,.12-.03,.23-.1,.36-.13,.12-.03,.22-.11,.35-.15Z"/><path class="b" d="M23.31,7.77c.14,.07,.19,.19,.19,.35,0,.8,0,1.61,0,2.41,0,.11,.01,.22-.05,.34l-.14,.13c-.54,.06-1.11,.02-1.69,.03-.3,0-.59,0-.89,0-.22,0-.45,.03-.69-.05l-.1-.11c-.05-.12-.03-.27-.03-.41,0-.74,0-1.48,0-2.22,0-.13-.02-.26,.1-.38l.1-.07h3.2Z"/><path class="b" d="M10.68,3.9l.1,.1c.07,.14,.05,.28,.05,.42,0,.83,0,1.65,0,2.46l-.07,.14c-.12,.11-.26,.1-.4,.1-.96,0-1.93,0-2.89,0-.1-.05-.18-.11-.23-.24,0-.88,0-1.78,0-2.68,0-.06,.02-.12,.04-.18l.12-.11c.14-.06,.3-.04,.46-.04,.79,0,1.57,0,2.36,0,.15,0,.31-.03,.46,.03Z"/><path class="b" d="M11.72,7.12l-.14-.07c-.12-.12-.1-.26-.1-.39,0-.74,0-1.47,0-2.21,0-.14-.02-.29,.04-.44l.09-.09c.15-.07,.29-.05,.44-.05,.83,0,1.66,0,2.5,0,.12,0,.24,.01,.34,.02,.15,.1,.18,.22,.18,.37,0,.84,0,1.69,0,2.53,0,.15-.07,.24-.2,.31-.05,.03-.1,.02-.15,.02-.69,0-1.38,0-2.07,0h-.94Z"/><path class="b" d="M15.04,10.87l-.11,.11c-.34,.08-.68,.04-1.03,.04-.56,0-1.12,0-1.68,0-.2,0-.39,.03-.61-.05l-.09-.11c-.07-.13-.05-.28-.05-.43,0-.77,0-1.54,0-2.31,0-.1,.04-.18,.08-.26,.02-.04,.08-.06,.12-.09h3.21l.13,.09c.05,.09,.07,.22,.07,.35,0,.74,0,1.47,0,2.21,0,.15,.03,.3-.03,.45Z"/><path class="b" d="M10.64,7.77l.12,.09c0,.05,.08,.1,.08,.19,0,.03,0,.07,0,.1,0,.79,0,1.58,0,2.38,0,.11,.01,.22-.05,.34l-.14,.12c-.36,.07-.77,.03-1.18,.03-.47,0-.93,0-1.4,0-.22,0-.45,.03-.7-.06-.1-.07-.13-.2-.13-.35,0-.79,0-1.58,0-2.38,0-.07,0-.14,0-.2,.01-.06,.05-.12,.07-.18l.12-.08h3.2Z"/><path class="b" d="M6.61,10.88l-.09,.09c-.33,.07-.65,.05-.98,.05-.65,0-1.3,0-1.95,0-.12,0-.24-.02-.38-.04l-.14-.17c0-.92,0-1.83,0-2.74,0-.13,.06-.24,.19-.3h3.2l.13,.09c.05,.09,.07,.22,.07,.35,0,.66,0,1.31,0,1.97,0,.23,.03,.46-.05,.7Z"/><path class="b" d="M15.69,6.95c0-.94,0-1.85,0-2.77,0-.08,0-.15,.07-.23,.09-.05,.2-.09,.32-.09,.91,0,1.81,0,2.72,0,.13,0,.25-.02,.38,.09l.07,.1v2.85s-.02,.07-.04,.09c-.07,.08-.15,.12-.26,.12-.79,0-1.59,0-2.38,0h-.72l-.17-.17Z"/><path class="b" d="M19.05,0s.05,.02,.06,.03c.09,.05,.14,.13,.14,.24,0,.93,0,1.86,0,2.78l-.15,.15c-.31,.08-.63,.04-.94,.04-.67,0-1.35,0-2.02,0-.13,0-.25-.04-.36-.07l-.09-.13c0-.91,0-1.84,0-2.77,0-.14,.07-.22,.2-.28h3.16Z"/><path class="b" d="M15.78,10.95l-.09-.13v-2.86s.02-.05,.03-.06c.06-.1,.15-.13,.26-.13,.78,0,1.55,0,2.33,0h.74c.08,.04,.16,.09,.2,.23v2.83l-.17,.15c-.15,.05-.34,.04-.53,.04-.8,0-1.61,0-2.41,0-.13,0-.25-.04-.36-.07Z"/></g></svg>