<?xml version="1.0" encoding="UTF-8"?><svg id="a" xmlns="http://www.w3.org/2000/svg" viewBox="0 0 54.67 24.64"><defs><style>.b{fill:#f05133;}</style></defs><g><path d="M39.24,11.83v2.23c0,.95-.18,1.79-.55,2.51s-.89,1.28-1.57,1.68-1.46,.59-2.35,.59-1.69-.19-2.38-.56-1.21-.9-1.59-1.58-.56-1.47-.56-2.36v-3.77c0-.95,.18-1.78,.55-2.5s.89-1.28,1.57-1.67,1.46-.59,2.35-.59c.73,0,1.41,.16,2.03,.47s1.14,.76,1.55,1.33,.7,1.24,.84,2h-1.94c-.11-.43-.28-.8-.54-1.1s-.55-.54-.89-.7-.69-.24-1.05-.24c-.53,0-.99,.13-1.39,.38s-.71,.6-.92,1.06-.33,.98-.33,1.59v3.77c0,.55,.11,1.03,.33,1.45s.54,.73,.94,.96,.88,.34,1.41,.34,.99-.12,1.39-.36,.71-.58,.92-1.03,.33-.99,.33-1.61v-.55h-2.59v-1.71h4.43Z"/><path d="M41.97,5.93h1.79v1.79h-1.79v-1.79Zm0,3.66h1.79v9.12h-1.79V9.59Z"/><path d="M45.78,9.59h4.11v1.62h-4.11v-1.62Zm1.45,8.56c-.34-.41-.51-1.01-.51-1.81V6.93h1.79v9.42c0,.22,.04,.39,.13,.51s.22,.18,.39,.18h.86v1.71h-1.04c-.74,0-1.28-.2-1.62-.61Z"/></g><path class="b" d="M24.17,11.22L13.42,.46c-.62-.62-1.62-.62-2.24,0l-2.23,2.23,2.83,2.83c.66-.22,1.41-.07,1.94,.45,.53,.53,.68,1.29,.45,1.95l2.73,2.73c.66-.23,1.42-.08,1.95,.45,.74,.74,.74,1.93,0,2.67-.74,.74-1.93,.74-2.67,0-.55-.56-.69-1.37-.41-2.05l-2.55-2.55v6.7c.18,.09,.35,.21,.5,.36,.74,.74,.74,1.93,0,2.67-.74,.74-1.93,.74-2.67,0-.74-.74-.74-1.93,0-2.67,.18-.18,.39-.32,.62-.41v-6.77c-.23-.09-.44-.23-.62-.41-.56-.56-.69-1.38-.41-2.06l-2.79-2.79L.46,11.17c-.62,.62-.62,1.62,0,2.24l10.76,10.76c.62,.62,1.62,.62,2.24,0l10.71-10.71c.62-.62,.62-1.62,0-2.24Z"/></svg>