<svg id="Layer_1" data-name="Layer 1" xmlns="http://www.w3.org/2000/svg" viewBox="0 0 201.11 24.64"><defs><style>.cls-1{fill:#f05133;}</style></defs><path d="M39.24,11.83v2.23a5.46,5.46,0,0,1-.55,2.51,4,4,0,0,1-1.57,1.68,4.63,4.63,0,0,1-2.35.59,5,5,0,0,1-2.38-.56,3.88,3.88,0,0,1-1.58-1.58,4.71,4.71,0,0,1-.57-2.36V10.57a5.39,5.39,0,0,1,.56-2.5,4,4,0,0,1,1.57-1.68,4.61,4.61,0,0,1,2.35-.59,4.29,4.29,0,0,1,2,.47A4.22,4.22,0,0,1,38.29,7.6a5,5,0,0,1,.85,2H37.2a2.91,2.91,0,0,0-.54-1.1,2.49,2.49,0,0,0-.89-.7,2.44,2.44,0,0,0-1.05-.24,2.56,2.56,0,0,0-1.39.37A2.5,2.5,0,0,0,32.41,9a3.64,3.64,0,0,0-.33,1.59v3.77a3.07,3.07,0,0,0,.33,1.45,2.44,2.44,0,0,0,1,1,2.83,2.83,0,0,0,1.41.34,2.73,2.73,0,0,0,1.39-.35,2.4,2.4,0,0,0,.92-1,3.61,3.61,0,0,0,.33-1.61v-.55h-2.6V11.83Z"/><path d="M42,5.93h1.79V7.72H42Zm0,3.66h1.79v9.12H42Z"/><path d="M45.78,9.59H49.9V11.2H45.78Zm1.46,8.55a2.7,2.7,0,0,1-.52-1.8V6.93h1.8v9.42a.85.85,0,0,0,.13.52.44.44,0,0,0,.38.18h.87v1.7h-1A2,2,0,0,1,47.24,18.14Z"/><path class="cls-1" d="M24.17,11.22,13.42.46a1.61,1.61,0,0,0-2.25,0L8.94,2.7l2.83,2.83A1.9,1.9,0,0,1,13.71,6a1.88,1.88,0,0,1,.45,1.95l2.73,2.74a1.88,1.88,0,1,1-1.13,1.06L13.21,9.18v6.71a1.88,1.88,0,1,1-2.17.35,1.81,1.81,0,0,1,.62-.41V9.07A1.84,1.84,0,0,1,11,8.65a1.89,1.89,0,0,1-.41-2.06L7.84,3.8.46,11.17a1.61,1.61,0,0,0,0,2.25L11.22,24.17a1.59,1.59,0,0,0,2.25,0l10.7-10.7A1.59,1.59,0,0,0,24.17,11.22Z"/></svg>