<?xml version="1.0" encoding="UTF-8"?><svg id="a" xmlns="http://www.w3.org/2000/svg" viewBox="0 0 89.33 24.64"><g><path d="M40.99,11.83v2.23c0,.95-.18,1.79-.55,2.51s-.89,1.28-1.57,1.68-1.46,.59-2.35,.59-1.69-.19-2.38-.56-1.21-.9-1.59-1.58-.56-1.47-.56-2.36v-3.77c0-.95,.18-1.78,.55-2.5s.89-1.28,1.57-1.67,1.46-.59,2.35-.59c.73,0,1.41,.16,2.03,.47s1.14,.76,1.55,1.33,.7,1.24,.84,2h-1.94c-.11-.43-.28-.8-.54-1.1s-.55-.54-.89-.7-.69-.24-1.05-.24c-.53,0-.99,.13-1.39,.38s-.71,.6-.92,1.06-.33,.98-.33,1.59v3.77c0,.55,.11,1.03,.33,1.45s.54,.73,.94,.96,.88,.34,1.41,.34,.99-.12,1.39-.36,.71-.58,.92-1.03,.33-.99,.33-1.61v-.55h-2.59v-1.71h4.43Z"/><path d="M43.71,5.93h1.79v1.79h-1.79v-1.79Zm0,3.66h1.79v9.12h-1.79V9.59Z"/><path d="M47.53,9.59h4.11v1.62h-4.11v-1.62Zm1.45,8.56c-.34-.41-.51-1.01-.51-1.81V6.93h1.79v9.42c0,.22,.04,.39,.13,.51s.22,.18,.39,.18h.86v1.71h-1.04c-.74,0-1.28-.2-1.62-.61Z"/><path d="M54.28,5.93h1.79v12.78h-1.79V5.93Zm1.12,5.63h7.09v1.71h-7.09v-1.71Zm6.14-5.63h1.79v12.78h-1.79V5.93Z"/><path d="M68.11,15.13c0,.64,.16,1.13,.49,1.48s.78,.52,1.38,.52,1.04-.16,1.36-.47,.48-.75,.48-1.33l.12,1.91c-.19,.45-.49,.83-.91,1.13s-.94,.46-1.56,.46c-1.01,0-1.79-.32-2.33-.97s-.82-1.56-.82-2.74v-5.55h1.79v5.55Zm3.71-5.55h1.78v9.12h-1.78V9.59Z"/><path d="M76.33,5.93h1.79v12.78h-1.79V5.93Zm2.6,12.5c-.42-.27-.73-.66-.93-1.16l.12-1.91c0,.39,.07,.73,.21,1s.34,.49,.61,.63,.59,.22,.97,.22c.59,0,1.05-.18,1.38-.54s.49-.87,.49-1.52v-1.98c0-.67-.16-1.19-.49-1.56s-.78-.55-1.38-.55c-.38,0-.7,.07-.97,.21s-.47,.35-.61,.62-.21,.6-.21,.98l-.18-1.76c.28-.53,.64-.94,1.08-1.23s.94-.44,1.49-.44c.64,0,1.2,.15,1.66,.44s.81,.71,1.05,1.27,.36,1.23,.36,2.01v1.99c0,.77-.12,1.44-.37,1.99s-.61,.97-1.08,1.26-1.04,.44-1.71,.44c-.57,0-1.06-.14-1.49-.41Z"/></g><path d="M12.63,0C5.65,0,0,5.66,0,12.63c0,5.58,3.62,10.32,8.64,11.98,.63,.12,.86-.27,.86-.61,0-.3-.01-1.09-.02-2.15-3.51,.76-4.25-1.69-4.25-1.69-.57-1.46-1.41-1.85-1.41-1.85-1.14-.78,.09-.77,.09-.77,1.27,.09,1.93,1.3,1.93,1.3,1.13,1.93,2.96,1.37,3.68,1.05,.11-.82,.44-1.37,.8-1.69-2.81-.32-5.75-1.4-5.75-6.24,0-1.38,.49-2.51,1.3-3.39-.14-.32-.57-1.6,.11-3.34,0,0,1.06-.34,3.47,1.29,1.01-.28,2.08-.42,3.16-.43,1.07,0,2.15,.15,3.16,.43,2.4-1.63,3.46-1.29,3.46-1.29,.68,1.74,.25,3.02,.13,3.34,.81,.88,1.29,2.01,1.29,3.39,0,4.85-2.95,5.92-5.76,6.23,.44,.38,.85,1.15,.85,2.34,0,1.69-.02,3.05-.02,3.46,0,.33,.22,.73,.87,.6,5.05-1.66,8.67-6.39,8.67-11.97C25.26,5.66,19.61,0,12.63,0"/></svg>