<?xml version="1.0" encoding="UTF-8"?>
<svg id="Layer_1" data-name="Layer 1" xmlns="http://www.w3.org/2000/svg" viewBox="0 0 549.97 33">
  <defs>
    <style>
      .cls-1 {
        letter-spacing: 0em;
      }

      .cls-2 {
        fill: #5091fe;
      }

      .cls-2, .cls-3, .cls-4, .cls-5, .cls-6, .cls-7, .cls-8 {
        stroke-width: 0px;
      }

      .cls-3 {
        fill: #f82f60;
      }

      .cls-9 {
        fill: #fff;
        font-family: Bahnschrift, Bahnschrift;
        font-size: 13.06px;
        font-variation-settings: 'wght' 400, 'wdth' 100;
      }

      .cls-4 {
        fill: #161616;
      }

      .cls-10 {
        letter-spacing: -.04em;
      }

      .cls-5 {
        fill: #1345b7;
      }

      .cls-6 {
        fill: #7d4533;
      }

      .cls-7 {
        fill: #3f5ffe;
      }

      .cls-8 {
        fill: #d2d2d2;
      }
    </style>
  </defs>
  <rect class="cls-4" y="13.13" width="549.97" height="19.87"/>
  <text class="cls-9" transform="translate(39.92 27.7)"><tspan x="0" y="0">HOW TO RE</tspan><tspan class="cls-10" x="66.41" y="0">A</tspan><tspan class="cls-1" x="74.35" y="0">C</tspan><tspan x="82.3" y="0">H ME</tspan></text>
  <g>
    <path class="cls-2" d="M24.26,6.24c.68,0,1.37-.02,2.05,0,2.43.1,4.17,1.27,5.21,3.46.35.73.48,1.52.48,2.33,0,3.47,0,6.93,0,10.4v.18h-.18c-3.39,0-6.77,0-10.16,0-.06,0-.12,0-.18,0-.1,0-.2,0-.29,0-.93,0-1.86,0-2.79,0,0-3.58-.02-7.17-.03-10.75,0-.31-.03-.62-.08-.93-.21-1.13-.73-2.11-1.52-2.94-.52-.55-1.14-.97-1.83-1.27-.5-.22-1.03-.39-1.58-.42-.13,0-.27-.03-.4-.05.13,0,.25,0,.38,0,2.85,0,5.7,0,8.55,0,0,1.44,0,2.87,0,4.31,0,.05-.03.11-.07.15-.19.18-.41.33-.57.53-.46.55-.62,1.19-.51,1.89.09.58.37,1.06.83,1.44.57.47,1.22.65,1.95.52.44-.08.82-.27,1.15-.57.63-.56.88-1.27.77-2.09-.09-.72-.47-1.28-1.07-1.69-.05-.03-.09-.11-.09-.17,0-1.44,0-2.87,0-4.31Z"/>
    <path class="cls-7" d="M12.94,6.24c.13.02.26.04.4.05.56.04,1.08.2,1.58.42.69.3,1.31.72,1.83,1.27.79.83,1.31,1.81,1.52,2.94.06.3.08.62.08.93.01,3.58.02,7.17.03,10.75-.07,0-.13,0-.2,0-.54,0-1.08,0-1.63,0-.06,0-.12,0-.18,0-3.11,0-6.21,0-9.32,0-.06,0-.11,0-.18,0v-.16c0-3.46,0-6.91,0-10.37,0-1.4.43-2.65,1.32-3.73.92-1.12,2.11-1.81,3.54-2.03.39-.06.8-.05,1.2-.07Z"/>
    <path class="cls-8" d="M24.26,6.24c0,1.44,0,2.87,0,4.31,0,.06.04.13.09.17.6.41.98.97,1.07,1.69.11.82-.15,1.53-.77,2.09-.33.3-.71.49-1.15.57-.73.13-1.38-.05-1.95-.52-.46-.37-.74-.85-.83-1.44-.11-.7.05-1.34.51-1.89.17-.2.39-.35.57-.53.04-.04.07-.1.07-.15,0-1.44,0-2.87,0-4.31,0-1.43,0-2.86,0-4.29,0-.61.38-1.12.97-1.22.44-.08.84.04,1.14.41.05.06.09.13.14.19.1.19.14.4.14.62,0,1.1,0,2.2,0,3.31,0,.33,0,.66,0,.99Z"/>
    <path class="cls-6" d="M16.57,22.61c.54,0,1.08,0,1.63,0,.07,0,.13,0,.2,0,.93,0,1.86,0,2.79,0,.1,0,.2,0,.29,0v6.32h-4.91v-6.32Z"/>
    <path class="cls-3" d="M24.26,5.25c0-1.1,0-2.2,0-3.31,0-.22-.04-.43-.14-.62.32,0,.64,0,.95,0,1.19,0,2.39,0,3.58,0,.34,0,.62.12.79.42.08.13.11.31.11.47.01.72,0,1.45,0,2.17,0,.48-.29.81-.77.87-.04,0-.08,0-.13,0-1.46,0-2.93,0-4.39,0Z"/>
    <rect class="cls-5" x="9.34" y="18.68" width="6.18" height="1.95" rx=".98" ry=".98"/>
  </g>
</svg>