<?xml version="1.0" encoding="UTF-8"?><svg id="a" xmlns="http://www.w3.org/2000/svg" viewBox="0 0 78.17 24.64"><defs><style>.b{fill:#e44d26;}</style></defs><g><path d="M28.51,5.93h1.79v12.78h-1.79V5.93Zm1.12,5.63h7.09v1.71h-7.09v-1.71Zm6.14-5.63h1.79v12.78h-1.79V5.93Z"/><path d="M39.67,5.93h9.02v1.71h-9.02v-1.71Zm3.61,1.05h1.79v11.73h-1.79V6.97Z"/><path d="M59.63,5.93h1.68v12.78h-1.75V9.14l.09,.56-3.15,7.23h-1.25l-3.15-7.06,.09-.74v9.57h-1.75V5.93h1.68l3.75,8.44,3.75-8.44Z"/><path d="M64.47,5.93h1.79v12.78h-1.79V5.93Zm.9,11.07h7.31v1.71h-7.31v-1.71Z"/></g><path class="b" d="M-.03,0L1.95,22.18l8.89,2.45,8.91-2.45L21.73,0H-.03ZM17.61,5.25l-.12,1.42-.05,.65H7.01l.25,2.77h9.93l-.07,.69-.64,7.15-.05,.45-5.58,1.53h0l-5.58-1.47-.38-4.2h2.73l.19,2.16,3.03,.81h0v-.11l3.04-.77,.32-3.48H4.76l-.67-7.54-.07-.77h13.64l-.07,.7Z"/></svg>