<?xml version="1.0" encoding="UTF-8"?><svg id="a" xmlns="http://www.w3.org/2000/svg" viewBox="0 0 247.67 24.64"><defs><style>.b{fill:#fff;}.c{fill:#fdfefe;}.d{fill:#f0db4f;}.e{fill:#007acb;}.f{fill:#fefefe;}</style></defs><g><path d="M30.58,18.43c-.57-.28-1.03-.66-1.39-1.16l1.47-1.05c.16,.29,.4,.51,.71,.67s.67,.24,1.08,.24c.7,0,1.24-.22,1.62-.65s.58-1.04,.58-1.83V5.93h1.79V14.65c0,.88-.16,1.64-.47,2.27s-.76,1.1-1.36,1.43-1.32,.49-2.16,.49c-.68,0-1.3-.14-1.87-.41Z"/><path d="M39.82,18.14c-.56-.47-.83-1.17-.83-2.12s.25-1.58,.76-2.03,1.28-.68,2.31-.68h2.59l.12,1.44h-2.71c-.47,0-.82,.1-1.05,.31s-.35,.53-.35,.95c0,.46,.15,.81,.46,1.03s.77,.33,1.4,.33c.69,0,1.2-.07,1.53-.22s.51-.38,.51-.69l.18,1.28c-.16,.25-.35,.45-.58,.61s-.5,.28-.8,.36-.65,.12-1.03,.12c-1.12,0-1.97-.23-2.52-.7Zm4.75-5.22c0-.6-.16-1.06-.48-1.39s-.77-.5-1.36-.5c-.36,0-.72,.06-1.07,.17s-.66,.27-.93,.47l-1.31-.9c.35-.42,.8-.74,1.37-.97s1.19-.35,1.89-.35c.76,0,1.4,.13,1.94,.4s.95,.65,1.23,1.16,.42,1.12,.42,1.83v5.86h-1.71v-5.78Z"/><path d="M54.11,9.59h1.87l-3.43,9.12h-1.35l-3.43-9.12h1.87l2.23,6.51,2.23-6.51Z"/><path d="M58.14,18.14c-.56-.47-.83-1.17-.83-2.12s.25-1.58,.76-2.03,1.28-.68,2.31-.68h2.59l.12,1.44h-2.71c-.47,0-.82,.1-1.05,.31s-.35,.53-.35,.95c0,.46,.15,.81,.46,1.03s.77,.33,1.4,.33c.69,0,1.2-.07,1.53-.22s.51-.38,.51-.69l.18,1.28c-.16,.25-.35,.45-.58,.61s-.5,.28-.8,.36-.65,.12-1.03,.12c-1.12,0-1.97-.23-2.52-.7Zm4.75-5.22c0-.6-.16-1.06-.48-1.39s-.77-.5-1.36-.5c-.36,0-.72,.06-1.07,.17s-.66,.27-.93,.47l-1.31-.9c.35-.42,.8-.74,1.37-.97s1.19-.35,1.89-.35c.76,0,1.4,.13,1.94,.4s.95,.65,1.23,1.16,.42,1.12,.42,1.83v5.86h-1.71v-5.78Z"/><path d="M69.59,18.66c-.55-.12-1.06-.29-1.54-.53s-.92-.53-1.34-.88l1.12-1.37c.49,.42,1.02,.74,1.61,.95s1.22,.32,1.91,.32c.93,0,1.64-.17,2.15-.51s.76-.83,.76-1.45h0c0-.45-.12-.81-.35-1.07s-.53-.45-.9-.58-.84-.24-1.42-.35c-.02,0-.04,0-.06,0s-.04,0-.06,0l-.13-.03c-.86-.15-1.55-.31-2.09-.5s-.99-.52-1.38-1.01-.57-1.19-.57-2.09h0c0-.8,.18-1.48,.53-2.03s.87-.99,1.55-1.28,1.5-.44,2.45-.44c.46,0,.91,.05,1.35,.15s.88,.25,1.31,.44,.85,.44,1.27,.74l-1.02,1.42c-.49-.36-.97-.63-1.45-.8s-.97-.27-1.45-.27c-.87,0-1.55,.17-2.03,.52s-.73,.84-.73,1.48h0c0,.45,.12,.79,.37,1.05s.56,.44,.93,.56,.89,.24,1.55,.37c.02,0,.05,.01,.07,.01s.04,0,.07,.01c.03,0,.06,.01,.1,.02s.07,.01,.1,.02c.77,.16,1.42,.35,1.94,.56s.95,.57,1.3,1.05,.52,1.14,.52,1.98v.02c0,.78-.18,1.45-.55,2s-.9,.98-1.6,1.27-1.55,.44-2.54,.44c-.62,0-1.2-.06-1.75-.18Z"/><path d="M79.96,18.37c-.59-.31-1.04-.76-1.35-1.35s-.47-1.31-.47-2.14v-1.5c0-.83,.16-1.53,.47-2.12s.76-1.03,1.35-1.34,1.3-.46,2.13-.46c.47,0,.92,.06,1.34,.17s.8,.28,1.13,.5,.61,.48,.83,.79l-1.29,1.16c-.26-.29-.56-.52-.91-.68s-.71-.24-1.08-.24c-.69,0-1.23,.19-1.61,.58s-.57,.93-.57,1.63v1.5c0,.72,.19,1.28,.57,1.67s.92,.59,1.61,.59c.38,0,.74-.08,1.09-.25s.64-.41,.9-.72l1.29,1.25c-.23,.3-.51,.56-.84,.78s-.71,.38-1.13,.49-.86,.17-1.33,.17c-.83,0-1.54-.16-2.13-.47Z"/><path d="M87.37,9.59h1.79v9.12h-1.79V9.59Zm4.42,1.72c-.24-.1-.52-.15-.83-.15-.57,0-1.01,.16-1.32,.47s-.47,.75-.47,1.31l-.18-1.76c.28-.54,.64-.97,1.09-1.27s.94-.45,1.48-.45c.42,0,.79,.06,1.13,.18s.63,.3,.88,.53l-1.17,1.58c-.16-.19-.36-.34-.6-.44Z"/><path d="M95.05,5.93h1.79v1.79h-1.79v-1.79Zm0,3.66h1.79v9.12h-1.79V9.59Z"/><path d="M99.57,9.59h1.79v12.83h-1.79V9.59Zm2.6,8.85c-.42-.27-.73-.66-.93-1.16l.12-1.91c0,.39,.07,.73,.21,1s.34,.49,.61,.63,.59,.22,.97,.22c.59,0,1.05-.18,1.38-.54s.49-.87,.49-1.52v-1.98c0-.67-.16-1.19-.49-1.56s-.78-.55-1.38-.55c-.38,0-.7,.07-.97,.21s-.47,.35-.61,.62-.21,.6-.21,.98l-.18-1.76c.28-.53,.64-.94,1.08-1.23s.94-.44,1.49-.44c.64,0,1.2,.15,1.66,.44s.81,.71,1.05,1.27,.36,1.23,.36,2.01v1.99c0,.77-.12,1.44-.37,1.99s-.61,.97-1.08,1.26-1.04,.44-1.71,.44c-.57,0-1.06-.14-1.49-.41Z"/><path d="M108.66,9.59h4.11v1.62h-4.11v-1.62Zm1.45,8.56c-.34-.41-.51-1.01-.51-1.81V6.93h1.79v9.42c0,.22,.04,.39,.13,.51s.22,.18,.39,.18h.86v1.71h-1.04c-.74,0-1.28-.2-1.62-.61Z"/><path d="M120.29,21.13h-1.71l5.93-16.72h1.71l-5.93,16.72Z"/><path d="M159.14,5.93h9.02v1.71h-9.02v-1.71Zm3.61,1.05h1.79v11.73h-1.79V6.98Z"/><path d="M167.8,9.59h1.83l2.8,7.93-.99,1.94-3.64-9.87Zm8.08,0l-3.88,11.26c-.14,.42-.33,.75-.55,.99s-.51,.42-.84,.52-.74,.16-1.23,.16h-.36v-1.72h.36c.33,0,.6-.07,.79-.2s.37-.37,.51-.69l3.38-10.31h1.83Z"/><path d="M177.46,9.59h1.79v12.83h-1.79V9.59Zm2.6,8.85c-.42-.27-.73-.66-.93-1.16l.12-1.91c0,.39,.07,.73,.21,1s.34,.49,.61,.63c.27,.15,.59,.22,.97,.22,.59,0,1.05-.18,1.38-.54,.33-.36,.49-.87,.49-1.52v-1.98c0-.67-.16-1.19-.49-1.56-.32-.37-.78-.55-1.38-.55-.38,0-.71,.07-.97,.21-.27,.14-.47,.35-.61,.62s-.21,.6-.21,.98l-.18-1.76c.28-.53,.64-.94,1.08-1.23s.94-.44,1.49-.44c.64,0,1.2,.15,1.66,.44,.46,.29,.81,.71,1.05,1.27s.36,1.23,.36,2.01v1.99c0,.77-.12,1.44-.37,1.99s-.61,.97-1.08,1.26-1.04,.44-1.71,.44c-.57,0-1.06-.14-1.49-.41Z"/><path d="M188.82,18.37c-.6-.32-1.05-.78-1.37-1.39-.31-.61-.47-1.35-.47-2.22v-1.03c0-.9,.15-1.67,.45-2.31,.3-.64,.74-1.12,1.31-1.46s1.27-.5,2.07-.5c.76,0,1.41,.19,1.95,.57s.95,.93,1.24,1.65c.28,.72,.43,1.58,.43,2.59v.6h-6.15v-1.44h4.45c-.05-.74-.25-1.32-.58-1.74s-.77-.62-1.33-.62c-.68,0-1.21,.22-1.58,.67-.37,.45-.56,1.08-.56,1.89v1.16c0,.76,.2,1.34,.6,1.74s.96,.61,1.7,.61c.36,0,.72-.07,1.08-.22s.68-.35,.96-.62l1.18,1.18c-.45,.43-.96,.77-1.52,1.01s-1.13,.36-1.7,.36c-.84,0-1.56-.16-2.16-.47Z"/><path d="M199.17,18.66c-.55-.12-1.07-.29-1.54-.53s-.92-.53-1.34-.88l1.12-1.37c.49,.42,1.02,.74,1.61,.95s1.22,.32,1.91,.32c.93,0,1.64-.17,2.15-.51s.76-.83,.76-1.45h0c0-.45-.12-.81-.35-1.07-.23-.26-.53-.45-.9-.58-.37-.13-.84-.24-1.42-.35-.02,0-.04,0-.06,0-.02,0-.04,0-.06,0l-.13-.03c-.86-.15-1.55-.31-2.09-.5-.54-.18-.99-.52-1.38-1.01s-.57-1.19-.57-2.09h0c0-.8,.18-1.48,.53-2.03,.35-.56,.87-.99,1.55-1.28s1.5-.44,2.45-.44c.46,0,.91,.05,1.35,.15s.88,.25,1.31,.44c.43,.2,.85,.44,1.27,.74l-1.02,1.42c-.49-.36-.97-.63-1.46-.8-.48-.18-.97-.27-1.45-.27-.87,0-1.55,.17-2.03,.52-.48,.35-.73,.84-.73,1.48h0c0,.45,.12,.79,.37,1.05,.25,.25,.56,.44,.93,.56,.37,.12,.89,.24,1.55,.37,.02,0,.04,.01,.07,.01,.02,0,.04,0,.07,.01,.03,0,.06,.01,.1,.02s.07,.01,.1,.02c.77,.16,1.42,.35,1.94,.56,.52,.22,.95,.57,1.3,1.05,.35,.48,.52,1.14,.52,1.98v.02c0,.78-.18,1.45-.55,2s-.9,.98-1.6,1.27c-.7,.29-1.55,.44-2.54,.44-.62,0-1.2-.06-1.75-.18Z"/><path d="M209.54,18.37c-.59-.31-1.04-.76-1.35-1.35s-.47-1.31-.47-2.14v-1.5c0-.83,.16-1.53,.47-2.12s.76-1.03,1.35-1.34c.59-.31,1.3-.46,2.13-.46,.47,0,.92,.06,1.34,.17,.42,.11,.79,.28,1.13,.5s.61,.48,.83,.79l-1.29,1.16c-.26-.29-.56-.52-.91-.68s-.71-.24-1.08-.24c-.69,0-1.23,.19-1.61,.58s-.57,.93-.57,1.63v1.5c0,.72,.19,1.28,.57,1.67,.38,.39,.92,.59,1.61,.59,.38,0,.74-.08,1.09-.25s.64-.41,.9-.72l1.29,1.25c-.23,.3-.51,.56-.84,.78s-.71,.38-1.13,.49-.86,.17-1.33,.17c-.83,0-1.54-.16-2.13-.47Z"/><path d="M216.95,9.59h1.79v9.12h-1.79V9.59Zm4.42,1.72c-.24-.1-.52-.15-.83-.15-.57,0-1.01,.16-1.32,.47-.31,.31-.47,.75-.47,1.31l-.18-1.76c.28-.54,.64-.97,1.09-1.27s.94-.45,1.48-.45c.42,0,.79,.06,1.13,.18,.34,.12,.63,.3,.88,.53l-1.17,1.58c-.16-.19-.36-.34-.6-.44Z"/><path d="M224.63,5.93h1.79v1.79h-1.79v-1.79Zm0,3.66h1.79v9.12h-1.79V9.59Z"/><path d="M229.15,9.59h1.79v12.83h-1.79V9.59Zm2.6,8.85c-.42-.27-.73-.66-.93-1.16l.12-1.91c0,.39,.07,.73,.21,1s.34,.49,.61,.63c.27,.15,.59,.22,.97,.22,.59,0,1.05-.18,1.38-.54,.33-.36,.49-.87,.49-1.52v-1.98c0-.67-.16-1.19-.49-1.56-.32-.37-.78-.55-1.38-.55-.38,0-.71,.07-.97,.21-.27,.14-.47,.35-.61,.62s-.21,.6-.21,.98l-.18-1.76c.28-.53,.64-.94,1.08-1.23s.94-.44,1.49-.44c.64,0,1.2,.15,1.66,.44,.46,.29,.81,.71,1.05,1.27s.36,1.23,.36,2.01v1.99c0,.77-.12,1.44-.37,1.99s-.61,.97-1.08,1.26-1.04,.44-1.71,.44c-.57,0-1.06-.14-1.49-.41Z"/><path d="M238.24,9.59h4.11v1.62h-4.11v-1.62Zm1.46,8.56c-.34-.41-.51-1.01-.51-1.81V6.93h1.79v9.42c0,.22,.04,.39,.13,.51s.22,.18,.39,.18h.86v1.71h-1.04c-.74,0-1.28-.2-1.62-.61Z"/></g><g><path class="b" d="M13.44,11.23h-2.31c0,1.97,0,3.96,0,5.95,0,1.27,.07,2.42-.14,2.77-.34,.7-1.21,.61-1.61,.48-.41-.2-.61-.48-.85-.88-.07-.12-.12-.2-.13-.21l-1.88,1.15c.31,.64,.77,1.2,1.36,1.56,.88,.53,2.06,.69,3.3,.41,.8-.23,1.5-.72,1.86-1.46,.53-.97,.41-2.13,.41-3.42,.01-2.12,0-4.17,0-6.34Z"/><path class="b" d="M19.59,15.7c-.76-.35-1.6-.6-1.85-1.17-.09-.33-.1-.52-.04-.72,.16-.65,.94-.86,1.56-.67,.4,.13,.78,.44,1,.93,1.06-.69,1.06-.68,1.81-1.16-.27-.42-.42-.62-.6-.8-.64-.72-1.51-1.08-2.91-1.06l-.73,.09c-.7,.18-1.36,.54-1.75,1.03-1.17,1.33-.83,3.64,.59,4.6,1.4,1.05,3.46,1.29,3.72,2.27,.26,1.2-.88,1.59-2.02,1.45-.84-.17-1.3-.6-1.8-1.37q-.92,.53-1.87,1.08c.23,.49,.46,.72,.84,1.14,1.79,1.81,6.26,1.72,7.06-1.02,.03-.09,.25-.72,.07-1.69-.18-1.13-.91-2.07-3.09-2.95Z"/><path class="d" d="M0,0V24.64H24.64V0H0ZM13.03,20.99c-.36,.74-1.06,1.22-1.86,1.46-1.24,.28-2.42,.12-3.3-.41-.59-.36-1.05-.92-1.36-1.56l1.88-1.15s.07,.1,.13,.21c.24,.4,.45,.68,.85,.89,.4,.14,1.27,.22,1.61-.48,.2-.36,.14-1.5,.14-2.77,0-1.99,0-3.98,0-5.95h2.31c0,2.17,.01,4.22,0,6.34,0,1.3,.12,2.45-.41,3.42Zm9.57-.65c-.8,2.74-5.27,2.83-7.06,1.02-.38-.43-.61-.65-.84-1.14q.95-.55,1.87-1.08c.5,.77,.97,1.19,1.8,1.37,1.13,.14,2.27-.25,2.02-1.45-.26-.98-2.32-1.22-3.72-2.27-1.42-.96-1.75-3.27-.59-4.6,.39-.49,1.05-.86,1.75-1.03l.73-.09c1.4-.03,2.27,.34,2.91,1.05,.18,.18,.33,.38,.6,.8-.75,.47-.74,.47-1.81,1.16-.23-.49-.61-.8-1-.93-.62-.19-1.4,.02-1.56,.67-.06,.2-.04,.39,.05,.72,.25,.57,1.09,.82,1.85,1.17,2.17,.88,2.91,1.83,3.09,2.95,.17,.97-.04,1.6-.07,1.69Z"/></g><g><path class="e" d="M130.4,24.64V0h24.62V24.64h-24.62Zm20.26-10.46s.05-.03,.08-.05c.08-.06,.16-.12,.25-.17,.14-.08,.27-.18,.41-.26,.09-.05,.18-.11,.26-.17,.11-.07,.21-.14,.31-.21,.1-.07,.21-.15,.31-.22,.02-.02,.04-.04,.07-.06,.02-.02,.02-.06,0-.08-.07-.11-.14-.22-.22-.32-.1-.14-.21-.26-.32-.39-.09-.1-.19-.19-.29-.28-.03-.03-.07-.06-.11-.09-.08-.06-.16-.11-.24-.17-.04-.03-.09-.05-.13-.08-.05-.03-.09-.05-.14-.07-.05-.02-.1-.04-.14-.06-.07-.03-.14-.05-.2-.08-.08-.03-.15-.06-.23-.08-.04,0-.08-.02-.12-.02-.04,0-.08,0-.12-.02-.05-.01-.1,0-.15-.02-.05-.01-.1,0-.15-.02-.04-.01-.09,0-.14,0-.04,0-.09-.02-.13-.02-.14,0-.29,0-.43,0-.14,0-.29-.02-.43,.02-.07,.02-.14,.01-.21,.02-.1,0-.19,.02-.29,.04-.09,.02-.17,.05-.25,.07-.1,.03-.2,.08-.3,.1-.15,.09-.33,.15-.47,.26-.05,.04-.11,.06-.15,.1-.08,.06-.15,.12-.22,.18-.09,.09-.18,.18-.27,.27-.05,.05-.09,.11-.13,.17-.04,.06-.08,.12-.13,.18-.1,.16-.18,.32-.25,.49-.03,.07-.04,.15-.08,.22-.02,.04,0,.09-.03,.14-.02,.04-.03,.08-.03,.12,0,.05,0,.09-.02,.14,.01,.12-.02,.24-.02,.35,0,.07,0,.14,0,.22,0,.07,.02,.14,.02,.22,0,.1-.01,.2,.02,.31,.02,.06,.01,.12,.02,.19,0,.02,.01,.05,.02,.07,0,.03,0,.05,0,.08,.07,.2,.15,.4,.24,.59,.06,.12,.14,.23,.21,.35,.03,.05,.08,.08,.11,.13,.05,.07,.09,.13,.15,.19,.13,.13,.25,.27,.4,.38,.06,.05,.13,.1,.19,.15,.14,.09,.27,.18,.42,.26,.1,.05,.21,.11,.31,.17,.11,.06,.22,.1,.33,.16,.09,.05,.18,.09,.27,.13,.09,.04,.18,.08,.28,.11,.06,.02,.11,.06,.16,.08,.06,.02,.12,.05,.17,.08,.04,.02,.1,.02,.13,.07,.11,.03,.2,.08,.3,.13,.22,.11,.43,.21,.64,.34,.14,.09,.26,.21,.37,.32v.02c.06,.06,.08,.14,.11,.21,.04,.09,.06,.19,.07,.29,0,.07,0,.13,0,.2,0,.07-.02,.14-.04,.21-.01,.05-.05,.09-.05,.15,0,.02-.02,.03-.03,.05-.02,.03-.04,.07-.06,.1-.07,.1-.15,.19-.25,.26-.1,.07-.2,.12-.31,.16-.07,.02-.14,.06-.22,.07-.07,0-.14,.04-.21,.04-.04,.04-.09,.02-.13,.04-.04,.02-.1,0-.15,0h-.22c-.05,0-.1,0-.16,0-.05,0-.11-.01-.16-.02-.04,0-.09,0-.13-.02-.09-.03-.19-.06-.29-.09-.07-.02-.13-.06-.2-.06-.04-.04-.09-.05-.13-.08-.16-.1-.31-.21-.44-.35-.11-.11-.22-.21-.31-.33-.06-.08-.12-.15-.17-.23-.03-.05-.07-.09-.1-.14-.03-.05-.07-.06-.12-.02-.04,.03-.09,.05-.13,.08-.1,.07-.22,.13-.32,.19-.13,.08-.27,.16-.41,.24-.1,.06-.2,.11-.3,.17-.1,.06-.19,.11-.29,.17-.09,.06-.19,.11-.28,.17,0,0-.02,.02-.02,.03,0,.02,0,.04,.01,.06,.05,.12,.12,.22,.19,.32,.07,.1,.15,.19,.21,.29,.03,.05,.07,.08,.1,.12,.05,.07,.1,.14,.17,.2,.09,.08,.18,.16,.27,.24,.09,.08,.18,.16,.28,.22,.1,.06,.2,.14,.31,.2,.05,.03,.1,.05,.15,.09,.09,.07,.22,.09,.31,.16,.07,0,.12,.07,.19,.06,.11,.06,.22,.09,.34,.12,.03,0,.05,.01,.08,.02,.07,.02,.14,.05,.21,.06,.08,.02,.17,.02,.25,.04,.02,0,.04,.02,.06,.02,.04,0,.09-.01,.12,0,.04,.02,.08,.01,.11,.01,.04,0,.07,.02,.11,.02,.14,0,.28,.02,.41,.02,.15,0,.31,0,.46,0,.08,0,.16,.02,.24-.02,.11,.01,.22-.01,.33-.02,.06,0,.12,0,.18-.02,.05-.02,.11-.02,.16-.04,.05-.02,.11-.03,.16-.04,.09-.02,.18-.05,.26-.07,.06-.02,.11-.04,.17-.06,.12-.04,.23-.09,.34-.14,.11-.05,.22-.1,.31-.16,.19-.13,.39-.26,.55-.43,.08-.08,.16-.15,.22-.24,.03-.05,.09-.09,.12-.15,.12-.17,.22-.35,.3-.54,.01-.02,0-.05,.02-.07,.04-.07,.07-.19,.09-.26,.01-.07,.04-.14,.04-.21,0-.04,.03-.07,.03-.1,0-.04,.02-.07,.02-.11,0-.09,0-.18,.02-.27,.01-.12,0-.24,0-.36,0-.12-.04-.24-.02-.36,0,0,0-.02,0-.02-.03-.03-.02-.06-.02-.09,0-.03-.02-.07-.02-.1,0-.04-.01-.07-.02-.11,0-.04-.01-.08-.04-.11,0,0,0-.02,0-.03,.01-.08-.04-.14-.05-.22-.01-.08-.06-.16-.09-.24-.03-.07-.06-.15-.1-.21-.06-.09-.11-.18-.17-.27-.1-.14-.19-.27-.32-.39-.06-.06-.13-.11-.18-.17-.1-.1-.2-.18-.32-.25-.13-.09-.27-.17-.4-.26-.16-.1-.33-.18-.49-.27-.12-.07-.24-.12-.37-.18-.05-.02-.11-.04-.16-.07-.05-.03-.1-.06-.14-.08-.16-.06-.31-.14-.46-.2-.06-.02-.12-.04-.17-.07-.05-.03-.1-.05-.16-.07-.01,0-.02-.01-.03-.02-.03-.02-.06-.05-.09-.05-.06-.01-.11-.04-.16-.07-.05-.03-.11-.04-.16-.07-.15-.09-.31-.17-.45-.28-.08-.06-.16-.13-.21-.22-.02-.03-.04-.06-.06-.09-.02-.03-.03-.07-.05-.1-.04-.06-.05-.13-.07-.19-.02-.05-.03-.1-.03-.15,0-.05,0-.09,0-.14,0-.04,.02-.09,.02-.13,0-.07,.02-.13,.05-.18,.05-.09,.08-.2,.17-.26,.04-.09,.12-.12,.19-.17,.06-.05,.14-.07,.21-.11,.03-.02,.07-.02,.11-.02,.04,0,.07-.03,.11-.02,.04,0,.07-.02,.11-.02,.18,0,.36,0,.53,.04,.04,.01,.09,.02,.13,.03,.08,.02,.15,.06,.22,.1,.11,.06,.21,.14,.3,.21,.03,.02,.04,.06,.07,.09,.04,.04,.07,.09,.11,.14,.08,.11,.16,.24,.27,.33Zm-6.2-2.82h-6.47c-.23,0-.46,0-.69,0-.23,0-.46,.03-.7,.02-.23,0-.47,0-.7,0h-.08c0,.23-.02,.45-.02,.67,0,.41,0,.83,0,1.24v.1c1.07,0,2.13,0,3.2,0h.02v9.1h2.27V13.38h3.21v-.1c0-.21,0-.41,0-.62,0-.21-.02-.41-.02-.62,0-.23,0-.46,0-.7Z"/><path class="c" d="M150.66,14.17c-.11-.1-.19-.22-.27-.33-.04-.05-.07-.1-.11-.14-.03-.03-.04-.06-.07-.09-.1-.08-.19-.16-.3-.21-.07-.04-.14-.08-.22-.1-.04-.01-.09-.02-.13-.03-.18-.04-.35-.04-.53-.04-.04,0-.07,.02-.11,.02-.04,0-.07,.02-.11,.02-.04,0-.08,0-.11,.02-.07,.04-.15,.06-.21,.11-.07,.05-.15,.09-.19,.17-.09,.07-.12,.17-.17,.26-.03,.06-.05,.12-.05,.18,0,.04-.01,.09-.02,.13,0,.05,0,.09,0,.14,0,.05,.01,.11,.03,.15,.02,.07,.03,.14,.07,.19,.02,.03,.03,.07,.05,.1,.02,.03,.04,.06,.06,.09,.05,.09,.13,.16,.21,.22,.14,.11,.3,.19,.45,.28,.05,.03,.1,.05,.16,.07,.05,.03,.1,.06,.16,.07,.03,0,.06,.03,.09,.05,.01,0,.02,.01,.03,.02,.05,.02,.11,.04,.16,.07,.05,.03,.11,.04,.17,.07,.16,.07,.31,.14,.46,.2,.05,.02,.1,.05,.14,.08,.05,.03,.1,.05,.16,.07,.12,.05,.25,.11,.37,.18,.16,.1,.34,.17,.49,.27,.13,.08,.27,.17,.4,.26,.11,.08,.22,.16,.32,.25,.06,.06,.12,.11,.18,.17,.12,.12,.22,.25,.32,.39,.06,.09,.11,.18,.17,.27,.04,.07,.07,.14,.1,.21,.03,.08,.08,.15,.09,.24,.01,.07,.06,.14,.05,.22,0,0,0,.02,0,.03,.02,.03,.03,.07,.04,.11,0,.04,.02,.07,.02,.11,0,.03,.01,.07,.02,.1,0,.03,0,.06,.02,.09,0,0,0,.01,0,.02-.01,.12,.03,.24,.02,.36,0,.12,.01,.24,0,.36-.01,.09,0,.18-.02,.27,0,.04-.02,.07-.02,.11,0,.04-.03,.07-.03,.1,0,.07-.03,.14-.04,.21-.01,.07-.05,.19-.09,.26-.01,.02,0,.05-.02,.07-.09,.19-.18,.37-.3,.54-.04,.05-.09,.09-.12,.15-.06,.09-.15,.16-.22,.24-.16,.17-.35,.3-.55,.43-.1,.06-.21,.11-.31,.16-.11,.05-.22,.1-.34,.14-.06,.02-.11,.04-.17,.06-.09,.03-.17,.05-.26,.07-.05,.01-.11,.02-.16,.04-.05,.02-.11,.02-.16,.04-.06,.02-.12,.02-.18,.02-.11,0-.22,.03-.33,.02-.08,.04-.16,.02-.24,.02-.15,0-.31,0-.46,0-.14,0-.28-.01-.41-.02-.04,0-.07-.02-.11-.02-.04,0-.07,0-.11-.01-.03-.02-.08,0-.12,0-.02,0-.04-.01-.06-.02-.08-.02-.17-.02-.25-.04-.07-.02-.14-.04-.21-.06-.03,0-.05-.01-.08-.02-.12-.04-.23-.07-.34-.12-.07,0-.12-.06-.19-.06-.1-.07-.22-.09-.31-.16-.05-.04-.1-.06-.15-.09-.11-.06-.21-.13-.31-.2-.1-.06-.19-.14-.28-.22-.09-.08-.18-.16-.27-.24-.07-.06-.12-.13-.17-.2-.03-.04-.07-.08-.1-.12-.07-.1-.15-.19-.21-.29-.07-.1-.14-.21-.19-.32,0-.02-.02-.04-.01-.06,0,0,.01-.02,.02-.03,.09-.06,.19-.12,.28-.17,.1-.06,.2-.11,.29-.17,.1-.06,.2-.11,.3-.17,.14-.08,.28-.16,.41-.24,.11-.06,.22-.12,.32-.19,.04-.03,.09-.04,.13-.08,.05-.04,.09-.03,.12,.02,.03,.05,.07,.1,.1,.14,.06,.08,.12,.15,.17,.23,.09,.12,.21,.22,.31,.33,.13,.13,.29,.24,.44,.35,.04,.03,.1,.04,.13,.08,.07,0,.13,.04,.2,.06,.1,.03,.19,.06,.29,.09,.04,.01,.08,.02,.13,.02,.05,.01,.1,.02,.16,.02,.05,0,.1,0,.16,0h.22s.1,.01,.15,0c.04-.02,.1,0,.13-.04,.07,0,.14-.03,.21-.04,.08-.01,.15-.04,.22-.07,.11-.04,.21-.09,.31-.16,.1-.07,.18-.16,.25-.26,.02-.03,.04-.07,.06-.1,0-.02,.03-.03,.03-.05,0-.06,.03-.1,.05-.15,.02-.07,.03-.14,.04-.21,0-.06,0-.13,0-.2,0-.1-.03-.19-.07-.29-.03-.07-.06-.15-.11-.21v-.02c-.12-.12-.23-.24-.38-.32-.21-.13-.42-.24-.64-.34-.1-.05-.19-.1-.3-.13-.03-.05-.09-.04-.13-.07-.06-.03-.11-.06-.17-.08-.06-.02-.11-.06-.16-.08-.09-.03-.19-.07-.28-.11-.09-.04-.18-.08-.27-.13-.11-.06-.22-.1-.33-.16-.1-.06-.21-.12-.31-.17-.15-.08-.28-.17-.42-.26-.07-.04-.13-.1-.19-.15-.15-.11-.27-.25-.4-.38-.06-.06-.11-.12-.15-.19-.03-.05-.08-.08-.11-.13-.07-.12-.15-.22-.21-.35-.09-.19-.18-.39-.24-.59,0-.02,0-.05,0-.08,0-.02-.02-.05-.02-.07,0-.06,0-.13-.02-.19-.03-.1-.01-.2-.02-.31,0-.07-.03-.14-.02-.22,0-.07,0-.14,0-.22,0-.12,.03-.23,.02-.35,.02-.04,.01-.09,.02-.14,0-.04,.02-.08,.03-.12,.02-.04,0-.1,.03-.14,.04-.07,.05-.15,.08-.22,.07-.17,.15-.34,.25-.49,.04-.06,.08-.12,.13-.18,.04-.06,.08-.12,.13-.17,.09-.09,.18-.18,.27-.27,.07-.06,.14-.12,.22-.18,.05-.04,.11-.06,.15-.1,.15-.11,.32-.16,.47-.26,.1-.02,.2-.08,.3-.1,.08-.02,.17-.05,.25-.07,.09-.02,.19-.04,.29-.04,.07,0,.14,0,.21-.02,.14-.03,.29-.01,.43-.02,.14,0,.29,0,.43,0,.04,0,.09,.01,.13,.02,.05,0,.09,0,.14,0,.05,.02,.1,0,.15,.02,.05,.01,.1,0,.15,.02,.04,.01,.08,.02,.12,.02,.04,0,.08,.02,.12,.02,.08,.01,.16,.05,.23,.08,.07,.03,.14,.04,.2,.08,.05,.02,.1,.04,.14,.06,.05,.02,.09,.05,.14,.07,.05,.03,.09,.05,.13,.08,.08,.05,.16,.11,.24,.17,.04,.03,.07,.06,.11,.09,.1,.09,.21,.18,.29,.28,.11,.13,.22,.25,.32,.39,.08,.11,.14,.22,.22,.32,.02,.02,.02,.05,0,.08-.02,.02-.04,.04-.07,.06-.1,.07-.21,.15-.31,.22-.1,.07-.21,.14-.31,.21-.09,.06-.17,.12-.26,.17-.14,.08-.27,.18-.41,.26-.09,.05-.17,.11-.25,.17-.03,.02-.05,.03-.08,.05Z"/><path class="f" d="M144.46,11.35c0,.24,0,.47,0,.7,0,.21,.01,.41,.02,.62,0,.21,0,.41,0,.62v.1h-3.21v9.1h-2.27V13.4h-.02c-1.06-.01-2.13-.01-3.2-.01v-.1c0-.41,0-.83,0-1.24,0-.22,.01-.44,.02-.67h.08c.23,0,.47,0,.7,0,.23,0,.46-.03,.7-.02,.23,0,.46,0,.69,0h6.47Z"/></g></svg>