<?xml version="1.0" encoding="UTF-8"?><svg id="a" xmlns="http://www.w3.org/2000/svg" viewBox="0 0 127.53 24.64"><defs><style>.b{fill:#326ce4;}.c{fill:#346de4;}.d{fill:#356ee4;}.e{fill:#fcfdfe;}</style></defs><g><path d="M31.25,5.93h1.79v12.78h-1.79V5.93Zm1.41,7.17l5.64-7.17h2.21l-8.11,9.86,.26-2.69Zm2.13-1.21l1.42-1.31,4.84,8.13h-2.2l-4.06-6.82Z"/><path d="M44.24,15.13c0,.64,.16,1.13,.49,1.48s.78,.52,1.38,.52,1.04-.16,1.36-.47,.48-.75,.48-1.33l.12,1.91c-.19,.45-.49,.83-.91,1.13s-.94,.46-1.56,.46c-1.01,0-1.79-.32-2.33-.97s-.82-1.56-.82-2.74v-5.55h1.79v5.55Zm3.71-5.55h1.78v9.12h-1.78V9.59Z"/><path d="M52.46,5.93h1.79v12.78h-1.79V5.93Zm2.6,12.5c-.42-.27-.73-.66-.93-1.16l.12-1.91c0,.39,.07,.73,.21,1s.34,.49,.61,.63,.59,.22,.97,.22c.59,0,1.05-.18,1.38-.54s.49-.87,.49-1.52v-1.98c0-.67-.16-1.19-.49-1.56s-.78-.55-1.38-.55c-.38,0-.7,.07-.97,.21s-.47,.35-.61,.62-.21,.6-.21,.98l-.18-1.76c.28-.53,.64-.94,1.08-1.23s.94-.44,1.49-.44c.64,0,1.2,.15,1.66,.44s.81,.71,1.05,1.27,.36,1.23,.36,2.01v1.99c0,.77-.12,1.44-.37,1.99s-.61,.97-1.08,1.26-1.04,.44-1.71,.44c-.57,0-1.06-.14-1.49-.41Z"/><path d="M63.82,18.37c-.6-.32-1.05-.78-1.37-1.39s-.47-1.35-.47-2.22v-1.03c0-.9,.15-1.67,.45-2.31s.74-1.12,1.31-1.46,1.27-.5,2.07-.5c.76,0,1.41,.19,1.95,.57s.95,.93,1.23,1.65,.43,1.58,.43,2.59v.6h-6.15v-1.44h4.45c-.05-.74-.24-1.32-.58-1.74s-.77-.62-1.33-.62c-.68,0-1.21,.22-1.58,.67s-.56,1.08-.56,1.89v1.16c0,.76,.2,1.34,.6,1.74s.96,.61,1.7,.61c.36,0,.72-.07,1.08-.22s.68-.35,.96-.62l1.18,1.18c-.45,.43-.96,.77-1.52,1.01s-1.13,.36-1.7,.36c-.84,0-1.56-.16-2.16-.47Z"/><path d="M71.9,9.59h1.79v9.12h-1.79V9.59Zm4.42,1.72c-.24-.1-.52-.15-.83-.15-.57,0-1.01,.16-1.32,.47s-.47,.75-.47,1.31l-.18-1.76c.28-.54,.64-.97,1.09-1.27s.94-.45,1.48-.45c.42,0,.79,.06,1.13,.18s.63,.3,.88,.53l-1.17,1.58c-.16-.19-.36-.34-.6-.44Z"/><path d="M79.58,9.59h1.79v9.12h-1.79V9.59Zm5.54,3.59c0-.64-.17-1.14-.5-1.49s-.8-.53-1.41-.53-1.04,.16-1.36,.47-.48,.75-.48,1.31l-.18-1.76c.28-.55,.65-.98,1.1-1.27s.96-.45,1.51-.45c.99,0,1.76,.32,2.3,.97s.81,1.56,.81,2.75v5.54h-1.79v-5.53Z"/><path d="M91.21,18.37c-.6-.32-1.05-.78-1.37-1.39s-.47-1.35-.47-2.22v-1.03c0-.9,.15-1.67,.45-2.31s.74-1.12,1.31-1.46,1.27-.5,2.07-.5c.76,0,1.41,.19,1.95,.57s.95,.93,1.23,1.65,.43,1.58,.43,2.59v.6h-6.15v-1.44h4.45c-.05-.74-.24-1.32-.58-1.74s-.77-.62-1.33-.62c-.68,0-1.21,.22-1.58,.67s-.56,1.08-.56,1.89v1.16c0,.76,.2,1.34,.6,1.74s.96,.61,1.7,.61c.36,0,.72-.07,1.08-.22s.68-.35,.96-.62l1.18,1.18c-.45,.43-.96,.77-1.52,1.01s-1.13,.36-1.7,.36c-.84,0-1.56-.16-2.16-.47Z"/><path d="M98.58,9.59h4.11v1.62h-4.11v-1.62Zm1.45,8.56c-.34-.41-.51-1.01-.51-1.81V6.93h1.79v9.42c0,.22,.04,.39,.13,.51s.22,.18,.39,.18h.86v1.71h-1.04c-.74,0-1.28-.2-1.62-.61Z"/><path d="M106.73,18.37c-.6-.32-1.05-.78-1.37-1.39s-.47-1.35-.47-2.22v-1.03c0-.9,.15-1.67,.45-2.31s.74-1.12,1.31-1.46,1.27-.5,2.07-.5c.76,0,1.41,.19,1.95,.57s.95,.93,1.23,1.65,.43,1.58,.43,2.59v.6h-6.15v-1.44h4.45c-.05-.74-.24-1.32-.58-1.74s-.77-.62-1.33-.62c-.68,0-1.21,.22-1.58,.67s-.56,1.08-.56,1.89v1.16c0,.76,.2,1.34,.6,1.74s.96,.61,1.7,.61c.36,0,.72-.07,1.08-.22s.68-.35,.96-.62l1.18,1.18c-.45,.43-.96,.77-1.52,1.01s-1.13,.36-1.7,.36c-.84,0-1.56-.16-2.16-.47Z"/><path d="M116.52,18.68c-.47-.11-.91-.26-1.32-.47-.41-.21-.79-.47-1.13-.79l1.06-1.31c.49,.38,.98,.66,1.47,.84s.97,.28,1.44,.28c.71,0,1.24-.11,1.6-.33,.35-.22,.53-.55,.53-.99,0-.29-.1-.51-.29-.66s-.43-.24-.72-.29-.69-.1-1.21-.14c-.05,0-.1,0-.15,0s-.1,0-.15-.01c-.02,0-.05,0-.07,0s-.05,0-.07,0c-.59-.05-1.09-.13-1.5-.26s-.75-.36-1.02-.71-.41-.84-.41-1.49,.13-1.18,.4-1.61c.26-.43,.66-.75,1.18-.96s1.18-.32,1.96-.32c.47,0,.93,.04,1.36,.13,.43,.09,.84,.22,1.23,.39s.77,.39,1.13,.65l-1.08,1.31c-.46-.29-.91-.51-1.35-.66-.44-.15-.88-.22-1.3-.22-.61,0-1.07,.1-1.37,.31s-.46,.52-.46,.94c0,.25,.09,.43,.26,.55,.17,.12,.39,.21,.65,.25s.64,.08,1.12,.11c.04,0,.07,0,.11,0s.08,0,.12,0h.05s.04,0,.05,0c.64,.04,1.18,.13,1.63,.25,.45,.13,.82,.38,1.13,.76s.46,.93,.46,1.65c0,.66-.14,1.2-.42,1.63s-.71,.75-1.27,.97c-.57,.22-1.28,.33-2.13,.33-.54,0-1.04-.05-1.52-.16Z"/></g><g><path class="b" d="M12.68,24.64c-1.68,0-3.35,0-5.03,0-.12,0-.24-.02-.35-.07-.1-.05-.21-.06-.31-.13-.14-.1-.31-.17-.42-.31-.15-.2-.33-.38-.47-.59-.07-.1-.16-.19-.24-.28-.15-.19-.31-.36-.44-.56-.06-.1-.15-.18-.22-.27-.22-.26-.44-.51-.64-.77-.16-.2-.32-.41-.48-.61-.2-.24-.38-.49-.57-.74-.09-.11-.2-.21-.28-.33-.14-.18-.3-.35-.42-.54-.06-.1-.15-.18-.22-.27-.2-.24-.41-.48-.6-.73-.12-.15-.23-.3-.36-.45-.15-.17-.27-.36-.41-.53-.14-.18-.29-.35-.43-.52-.17-.21-.35-.4-.49-.62-.16-.25-.3-.52-.28-.84,0-.06,0-.11,0-.17,0-.17,.04-.33,.07-.5,.03-.17,.09-.34,.1-.51,0-.13,.06-.26,.09-.39,.04-.16,.07-.32,.11-.48,.06-.21,.1-.44,.16-.65,.04-.15,.07-.3,.1-.45,.05-.22,.1-.44,.16-.66,.04-.14,.07-.28,.09-.43,.02-.09,.06-.18,.05-.28,0-.09,.06-.17,.08-.26,.02-.08,.02-.18,.05-.26,.03-.09,.02-.19,.08-.26,0-.24,.12-.45,.13-.69,0-.13,.04-.27,.1-.38,.04-.09-.02-.2,.07-.27,0-.16,.07-.3,.09-.45,.02-.14,.04-.29,.12-.42,0-.24,.09-.46,.14-.69,.05-.26,.11-.53,.19-.79,.04-.14,.07-.3,.1-.45,.05-.24,.09-.48,.17-.71,.16-.41,.39-.76,.82-.95,.18-.08,.35-.18,.53-.26,.35-.17,.7-.35,1.06-.51,.31-.14,.6-.32,.92-.45,.32-.13,.62-.3,.94-.44,.31-.14,.61-.31,.92-.44,.36-.15,.69-.35,1.05-.5,.31-.13,.6-.3,.9-.43,.33-.14,.64-.33,.97-.46,.3-.13,.58-.3,.88-.42,.28-.12,.54-.26,.82-.39,.14-.06,.3-.11,.47-.11,.13,0,.25,0,.38,0,.14,0,.27,.03,.39,.09,.23,.1,.45,.24,.69,.33,.33,.12,.62,.31,.94,.44,.31,.13,.61,.31,.92,.44,.35,.14,.67,.33,1.01,.48,.29,.13,.57,.3,.87,.42,.34,.14,.66,.33,.99,.47,.3,.13,.58,.3,.89,.42,.33,.14,.64,.33,.97,.47,.31,.13,.6,.3,.9,.43,.3,.13,.58,.27,.86,.42,.21,.11,.4,.24,.53,.45,.05,.08,.11,.16,.17,.25,.13,.19,.14,.41,.2,.62,.06,.22,.1,.44,.16,.66,.04,.15,.07,.3,.1,.45,.05,.22,.1,.44,.15,.66,.04,.15,.07,.3,.1,.45,.05,.22,.1,.44,.15,.66,.04,.15,.07,.3,.1,.45,.05,.22,.1,.44,.16,.66,.04,.14,.07,.28,.09,.43,.02,.09,.06,.18,.05,.28,0,.09,.06,.17,.08,.26,.02,.08,.02,.18,.05,.26,.03,.09,.02,.19,.08,.26,0,.24,.12,.45,.13,.69,0,.13,.04,.27,.1,.38,.04,.09-.02,.2,.07,.27,0,.16,.07,.3,.09,.45,.02,.14,.04,.29,.12,.42-.01,.24,.12,.45,.13,.69,0,.13,.04,.26,.1,.38,.04,.09-.02,.2,.07,.27,.04,.24,.1,.48,.09,.73-.01,.37-.15,.69-.37,.97-.2,.25-.39,.5-.59,.75-.14,.18-.3,.34-.43,.52-.13,.18-.29,.34-.41,.53-.07,.11-.17,.2-.25,.3-.2,.24-.41,.48-.6,.73-.16,.21-.33,.41-.49,.62-.18,.23-.37,.45-.56,.68-.2,.24-.38,.49-.57,.74-.14,.18-.3,.34-.43,.52-.13,.18-.29,.34-.41,.53-.07,.1-.16,.18-.24,.28-.22,.28-.44,.55-.66,.83-.15,.2-.32,.38-.48,.57-.05,.06-.09,.15-.15,.19-.07,.04-.11,.1-.17,.14-.17,.11-.36,.19-.55,.25-.15,.05-.3,.04-.45,.04-1.64,0-3.28,0-4.92,0Zm3.56-5.97c.34-.2,.64-.4,.91-.65,.2-.18,.43-.34,.6-.57,.15-.2,.33-.39,.49-.59,.09-.12,.19-.24,.27-.38,.18-.32,.39-.63,.51-.97,.07-.19,.17-.37,.21-.57,0-.02,.04-.04,.07-.07,.11,0,.24,.02,.33-.08,.13,0,.26,0,.39,.04,.32,.07,.61,.19,.91,.31,.15,.06,.3,.12,.46,.12,.03,0,.06,.03,.06,.03l.27-.04c.13-.06,.24-.17,.31-.32,0-.07,0-.17,0-.26,0-.04-.03-.07-.04-.11-.06-.16-.19-.26-.33-.31-.16-.06-.33-.1-.51-.1-.2,0-.4-.02-.6-.04h-.02c-.07-.08-.17,0-.23-.05-.08-.05-.16-.03-.23-.05-.17-.04-.23-.19-.34-.29-.08,0-.16,.02-.19-.09,.01-.03,.04-.06,.04-.09-.03-.22,.05-.43,.04-.64,0-.19,.01-.38-.03-.58-.04-.16,0-.34-.04-.51-.02-.07-.01-.16-.04-.24-.02-.07-.03-.16-.04-.24-.04-.27-.14-.51-.21-.77-.08-.3-.22-.59-.36-.87-.1-.21-.22-.42-.33-.63-.03-.06-.12-.09-.07-.19l.16-.16v-.17c.16-.16,.31-.3,.5-.42,.21-.13,.43-.27,.65-.39,.11-.06,.2-.13,.3-.21,.1-.09,.15-.21,.21-.32,.05-.46-.18-.71-.69-.64-.17,.09-.3,.19-.42,.32-.25,.25-.5,.5-.75,.75-.14,.13-.3,.24-.51,.21-.01,0-.03,0-.04,0l-.2,.13c-.29-.3-.6-.56-.93-.81-.28-.21-.58-.39-.89-.56-.24-.13-.5-.23-.75-.34-.18-.07-.35-.14-.54-.17-.2-.04-.38-.13-.58-.13-.07-.08-.17-.01-.23-.05-.08-.04-.16-.04-.24-.04-.09,0-.16-.03-.23-.07v-.2l-.17-.23c0-.13,0-.25,0-.37,0-.11-.01-.21,.03-.32,.04-.1-.03-.23,.05-.34,.01-.22,.07-.44,.04-.66,0-.04-.03-.08-.03-.11-.03-.2-.17-.31-.33-.41h-.32c-.2,.09-.3,.24-.38,.43v.31c0,.08-.03,.19,0,.25,.06,.08,.01,.17,.06,.26,.04,.07,.01,.18,.02,.27,0,.09,.04,.17,.04,.26,0,.15,0,.31,0,.47l-.18,.23v.2c-.15,.04-.3,.08-.45,.06,0,0-.02,0-.02,0-.17,.08-.36,.07-.54,.13-.14,.05-.29,.07-.44,.12-.24,.07-.47,.17-.7,.26-.24,.09-.46,.2-.67,.32-.25,.14-.48,.31-.72,.48-.21,.16-.4,.34-.61,.5-.1,.08-.18,.18-.27,.27l-.19-.13h-.27c-.23-.16-.44-.33-.63-.53-.15-.16-.29-.34-.45-.49-.16-.15-.35-.29-.59-.25-.07,0-.13,.03-.21,.05-.02,.02-.05,.06-.09,.09-.1,.09-.15,.19-.13,.33,0,.08,0,.16,0,.23,.13,.21,.3,.37,.52,.49,.31,.17,.6,.37,.89,.57,.17,.12,.25,.25,.25,.44l.17,.12s0,.04-.01,.05c-.1,.16-.2,.31-.29,.48-.17,.32-.32,.65-.45,.98-.04,.1-.08,.21-.1,.32-.04,.2-.12,.39-.14,.6-.01,.14-.07,.27-.07,.41,0,.03,.01,.07,0,.08-.08,.09-.03,.2-.04,.3-.02,.11-.03,.21-.04,.32-.03,.36,.03,.71,.04,1.06,0,.05,.03,.1,.04,.15-.03,.02-.04,.05-.07,.06-.11,.02-.2,.05-.25,.17-.04,.08-.13,.13-.24,.14-.04,0-.09,.03-.13,.04-.06,0-.13-.02-.17,0-.07,.05-.15,.04-.22,.04-.09-.01-.16,.04-.24,.04-.19,0-.39,0-.58,.04-.1,.02-.19,.05-.29,.08-.1,.03-.14,.11-.21,.17-.13,.13-.16,.26-.12,.44,0,.03,0,.07,0,.1,.06,.06,.11,.11,.17,.17,.05,.06,.12,.08,.19,.11,.18,.08,.34,.01,.5-.03,.27-.07,.52-.21,.79-.29,.23-.06,.46-.16,.7-.15,.11,.12,.26,.07,.41,.09,.57,1.62,1.57,2.9,3.05,3.78-.03,.07-.06,.13-.08,.19,0,.01,0,.03,0,.04,.01,.04,.04,.09,.04,.13,0,.05,0,.11,0,.17-.02,.07-.05,.15-.09,.22-.14,.28-.32,.53-.49,.79-.17,.26-.35,.51-.3,.82,.08,.17,.15,.32,.36,.39,.04,0,.12,0,.19,0,.19-.01,.34-.09,.43-.26,.09-.18,.18-.36,.22-.57,.05-.21,.15-.42,.23-.63,.07-.21,.16-.4,.34-.54,.01,0,.04,0,.06,0,.11-.03,.1-.18,.22-.22,.06,.02,.14,.05,.21,.07,.3,.1,.59,.19,.9,.23,.1,.01,.21,0,.3,.05,.09,.04,.18,.02,.26,.03,.09,.02,.17,.04,.26,.04,.15,0,.3,0,.45,0,.25-.01,.5,.02,.75-.03,.19-.04,.39-.05,.58-.09,.07-.01,.14-.04,.21-.04,.08,0,.15-.03,.22-.05l.67-.21c.13,.03,.09,.25,.26,.21,.09,.09,.18,.18,.23,.29,.12,.26,.21,.52,.29,.79,.07,.22,.13,.44,.25,.64,.05,.08,.1,.14,.18,.18,.05,.03,.1,.06,.16,.08,.44,.05,.71-.2,.65-.63-.12-.33-.28-.55-.43-.78-.14-.21-.29-.42-.39-.67-.05-.12-.13-.24-.04-.38,.02-.03,0-.09-.01-.14,0-.05-.02-.1-.04-.16Z"/><path class="e" d="M16.24,18.67c.01,.06,.03,.11,.04,.16,0,.05,.03,.11,.01,.14-.09,.14,0,.26,.04,.38,.1,.24,.25,.45,.39,.67,.15,.23,.31,.45,.43,.78,.06,.43-.21,.67-.65,.62-.05-.03-.1-.06-.16-.08-.08-.04-.13-.1-.18-.18-.12-.2-.19-.42-.25-.64-.08-.27-.17-.53-.29-.79-.05-.12-.14-.2-.23-.29-.18,.05-.14-.18-.26-.21l-.67,.21c-.07,.02-.14,.05-.22,.05-.07,0-.14,.03-.21,.04-.19,.04-.39,.05-.58,.09-.25,.05-.5,.02-.75,.03-.15,0-.3,0-.45,0-.09,0-.17-.03-.26-.04-.09-.02-.17,0-.26-.03-.08-.04-.2-.03-.3-.05-.31-.04-.61-.14-.9-.23-.07-.02-.15-.05-.21-.07-.12,.04-.11,.19-.22,.22-.02,0-.04,0-.06,0-.18,.14-.27,.34-.34,.54-.08,.21-.18,.41-.23,.63-.05,.21-.13,.39-.22,.57-.09,.17-.24,.25-.43,.26-.08,0-.15,0-.19,0-.2-.07-.28-.21-.36-.39-.05-.31,.13-.57,.3-.82,.17-.26,.35-.52,.49-.79,.04-.07,.07-.14,.09-.22,.01-.05,.01-.11,0-.17,0-.04-.03-.09-.04-.13,0-.01,0-.03,0-.04,.02-.06,.05-.12,.08-.19-1.48-.88-2.48-2.16-3.05-3.78-.15-.02-.3,.03-.41-.09-.24,0-.47,.09-.7,.15-.27,.07-.52,.21-.79,.29-.17,.05-.33,.11-.5,.03-.07-.03-.14-.05-.19-.11-.05-.06-.11-.11-.17-.17,0-.03,0-.07,0-.1-.04-.18,0-.32,.12-.44,.06-.06,.11-.14,.21-.17,.1-.03,.19-.05,.29-.08,.19-.05,.38-.04,.58-.04,.08,0,.15-.06,.24-.04,.07,0,.15,.01,.22-.04,.04-.03,.11,0,.17,0,.04,0,.09-.04,.13-.04,.11,0,.2-.05,.24-.14,.05-.12,.14-.15,.25-.17,.02,0,.04-.03,.07-.06-.01-.05-.04-.1-.04-.15-.02-.35-.07-.71-.04-1.06,0-.11,.03-.21,.04-.32,.01-.1-.04-.21,.04-.3,.01-.02,0-.05,0-.08,0-.14,.06-.28,.07-.41,.02-.21,.1-.4,.14-.6,.02-.11,.06-.21,.1-.32,.13-.34,.28-.66,.45-.98,.09-.16,.19-.32,.29-.48,0-.01,0-.03,.01-.05l-.17-.12c0-.19-.08-.32-.25-.44-.29-.2-.58-.4-.89-.57-.22-.11-.38-.28-.52-.49,0-.08,0-.15,0-.23-.01-.13,.04-.24,.13-.33,.04-.03,.07-.07,.09-.09,.08-.02,.15-.04,.21-.05,.25-.04,.43,.1,.59,.25,.16,.15,.3,.33,.45,.49,.18,.2,.39,.36,.63,.53h.27l.19,.13c.09-.09,.17-.19,.27-.27,.21-.16,.4-.35,.61-.5,.23-.17,.47-.34,.72-.48,.21-.12,.44-.23,.67-.32,.23-.09,.46-.19,.7-.26,.15-.04,.29-.07,.44-.12,.18-.06,.37-.05,.54-.13,0,0,.01,0,.02,0,.15,.02,.3-.02,.45-.06v-.2l.18-.23c0-.16,0-.31,0-.47,0-.09-.03-.17-.04-.26,0-.09,.02-.19-.02-.27-.04-.08,0-.17-.06-.26-.04-.05,0-.16,0-.25v-.31c.08-.19,.18-.34,.38-.43h.32c.16,.1,.3,.21,.33,.41,0,.04,.03,.08,.03,.11,.03,.22-.03,.44-.04,.66-.08,.11,0,.24-.05,.34-.05,.11-.03,.22-.03,.32,0,.12,0,.24,0,.37l.17,.23v.2c.07,.04,.14,.07,.23,.07,.08,0,.16,0,.24,.04,.07,.04,.17-.03,.23,.05,.21,0,.39,.09,.58,.13,.19,.04,.37,.1,.54,.17,.25,.1,.51,.2,.75,.34,.31,.17,.61,.35,.89,.56,.33,.24,.64,.5,.93,.81l.2-.13s.03,0,.04,0c.21,.03,.37-.07,.51-.21,.25-.25,.5-.5,.75-.75,.12-.12,.25-.23,.42-.32,.51-.07,.74,.18,.69,.64-.07,.11-.11,.23-.21,.32-.09,.08-.19,.15-.3,.21-.22,.12-.43,.25-.65,.39-.18,.11-.34,.26-.5,.42v.17l-.16,.16c-.04,.1,.04,.13,.07,.19,.11,.21,.23,.41,.33,.63,.14,.28,.27,.57,.36,.87,.07,.25,.17,.5,.21,.77,.01,.08,.02,.16,.04,.24,.03,.08,.02,.16,.04,.24,.05,.17,0,.35,.04,.51,.05,.19,.03,.39,.03,.58,0,.21-.07,.42-.04,.64,0,.03-.03,.06-.04,.09,.03,.11,.11,.09,.19,.09,.11,.1,.17,.25,.34,.29,.07,.02,.15,0,.23,.05,.07,.04,.17-.03,.23,.05h.02c.2,.01,.4,.04,.6,.04,.18,0,.35,.04,.51,.1,.14,.05,.28,.15,.33,.31,.01,.04,.04,.07,.04,.11,0,.09,0,.18,0,.26-.07,.15-.18,.26-.31,.32l-.27,.04s-.03-.03-.06-.03c-.16,0-.31-.07-.46-.12-.3-.12-.6-.24-.91-.31-.13-.03-.26-.03-.39-.04-.09,.11-.22,.08-.33,.08-.03,.03-.06,.04-.07,.07-.04,.2-.14,.38-.21,.57-.13,.35-.33,.66-.51,.97-.08,.13-.17,.25-.27,.38-.16,.2-.33,.39-.49,.59-.17,.23-.39,.39-.6,.57-.27,.24-.57,.45-.91,.65Zm1.57-4.08c-.15-.02-.31-.01-.45-.06-.1-.03-.19-.01-.28-.04-.14-.05-.27-.05-.41-.08-.11-.02-.22-.07-.34-.04-.05-.06-.13-.03-.19-.04-.07,0-.13-.03-.19-.04-.11-.02-.24,0-.34-.05-.09-.04-.17,0-.24-.04-.09-.05-.17-.03-.26-.04-.08,0-.15,0-.24,0-.07,.06-.16,.11-.2,.19-.05,.08-.06,.18-.09,.29,.01,.02,.03,.05,.04,.08,.01,.04,0,.08,.02,.12,.08,.2,.17,.4,.25,.59,.08,.18,.16,.36,.23,.54,.06,.16,.13,.32,.19,.47,.07,.16,.13,.33,.2,.49,.04,.1,.08,.21,.13,.31,.02,.04,.04,.08,.07,.12,1.05-.66,1.74-1.59,2.18-2.71l-.06-.06Zm-7.58-2.68c-.06-.08-.09-.17-.16-.2-.18-.11-.31-.27-.46-.4-.27-.23-.53-.48-.81-.71-.23-.2-.45-.42-.67-.63l-.04-.04h-.08c-.08,.15-.16,.29-.23,.44-.07,.15-.13,.3-.19,.45-.06,.15-.09,.32-.15,.47-.07,.16-.09,.33-.12,.5-.03,.17-.04,.34-.06,.51-.01,.17-.02,.34-.04,.51-.01,.17,.05,.34,.05,.51,.02,0,.03,.01,.05,0,.17-.05,.34-.1,.51-.16,.16-.05,.31-.1,.47-.14,.28-.06,.54-.16,.82-.22,.06-.01,.12-.06,.18-.07,.22-.04,.42-.12,.63-.17,.12-.03,.22-.1,.26-.21,.05-.11,.14-.22,.05-.35-.01-.02,0-.06,0-.08Zm1.84-4.59c-1.26,.16-2.32,.66-3.21,1.52,.05,.03,.1,.06,.14,.09,.05,.03,.1,.07,.15,.1,.15,.12,.3,.22,.45,.33,.09,.07,.18,.13,.28,.19,.1,.06,.18,.13,.28,.2,.15,.11,.3,.22,.46,.33,.2,.14,.4,.29,.59,.43h.37l.23-.21c.03-.1,.06-.17,.06-.23,0-.09,0-.18,0-.27,0-.09,.03-.17,.04-.26,.02-.23-.02-.45,.04-.68,.03-.13,.02-.28,0-.42-.02-.14,.04-.27,.05-.41,0-.23-.03-.46,.06-.72Zm5.29,2.59c-.13,.11-.24,.2-.35,.3-.11,.1-.22,.21-.34,.3-.22,.17-.41,.37-.62,.56-.04,.03-.06,.08-.11,.1-.13,.06-.2,.17-.3,.26-.1,.08-.2,.17-.3,.25-.15,.13-.24,.3-.2,.5,.01,.02,.03,.03,.04,.05,.06,.24,.26,.29,.45,.35,.23,.07,.47,.13,.7,.2,.16,.04,.31,.1,.47,.14,.12,.03,.24,.08,.36,.1,.12,.03,.25,.08,.37,.11,.2,.06,.4,.11,.6,.18,.02-.11,.05-.21,.06-.31,.03-.31-.06-.61-.04-.91,0,0,0-.02,0-.02-.06-.14-.05-.29-.09-.43-.03-.14-.08-.28-.11-.42-.05-.17-.12-.33-.18-.5-.1-.27-.24-.51-.36-.76-.01-.02-.04-.04-.06-.06Zm-2.93,8.06s0-.08-.03-.11c-.09-.18-.18-.35-.28-.52-.09-.16-.17-.33-.27-.48-.13-.21-.24-.42-.36-.64-.13-.23-.25-.46-.38-.69-.08-.13-.18-.22-.34-.22-.03,0-.06-.03-.09-.04-.03,.02-.06,.04-.09,.04-.13,.01-.21,.1-.28,.19-.06,.07-.1,.16-.14,.24-.05,.09-.08,.2-.14,.28-.14,.21-.25,.43-.37,.65-.09,.16-.17,.34-.27,.5-.14,.22-.26,.46-.39,.69-.02,.03-.02,.07-.03,.11,1.15,.37,2.29,.37,3.44,0Zm-6.84-3.31s0,.1,.02,.14c.06,.14,.13,.27,.19,.41,.05,.1,.11,.19,.16,.29,.16,.32,.38,.6,.62,.87,.04,.04,.1,.07,.11,.12,.03,.09,.1,.16,.17,.2,.18,.11,.29,.29,.47,.4,.14,.08,.26,.19,.4,.3,.03-.08,.06-.14,.08-.2,.06-.14,.13-.27,.18-.41,.13-.35,.28-.69,.42-1.03,.1-.23,.18-.46,.29-.69,.07-.14,.12-.3,.1-.47-.02-.19-.22-.41-.41-.41-.15,0-.31,0-.45,.05-.2,.06-.41,.08-.61,.11-.21,.03-.42,.1-.64,.09-.09,.07-.2,.02-.3,.05-.19,.07-.39,.08-.59,.11-.08,.01-.16,.03-.24,.07Zm8.92-5.82c-.43-.43-.91-.75-1.45-1.01-.53-.26-1.09-.42-1.67-.49-.06,.12,.01,.21,.02,.31,.01,.26-.01,.51,.04,.77,.04,.24-.02,.48,.05,.72-.02,.33,.03,.65,.04,.98,0,.09,.03,.16,.08,.22,.12,.13,.24,.22,.43,.19,.03,0,.07,0,.11,0,.16-.11,.33-.2,.48-.32,.27-.22,.56-.4,.83-.6,.29-.21,.58-.43,.89-.61,.06-.04,.11-.11,.15-.15Zm-4.22,3.04l-.54,.67,.19,.82,.69,.32c.1,0,.19,0,.28-.07,.04-.03,.1-.03,.15-.06,.15-.07,.29-.14,.41-.2l.19-.84-.55-.66h-.82Z"/><path class="c" d="M17.8,14.59l.06,.06c-.44,1.12-1.13,2.05-2.18,2.71-.03-.05-.05-.08-.07-.12-.04-.1-.09-.2-.13-.31-.07-.16-.14-.33-.2-.49-.06-.16-.13-.32-.19-.47-.07-.18-.15-.36-.23-.54-.09-.2-.17-.4-.25-.59-.01-.04,0-.08-.02-.12,0-.03-.03-.06-.04-.08,.03-.1,.04-.21,.09-.29,.05-.08,.14-.13,.2-.19,.09,0,.17,0,.24,0,.09,0,.17-.01,.26,.04,.07,.04,.15,0,.24,.04,.1,.05,.22,.03,.34,.05,.07,0,.13,.03,.19,.04,.07,0,.14-.02,.19,.04,.12-.02,.23,.02,.34,.04,.14,.02,.28,.03,.41,.08,.09,.03,.18,.01,.28,.04,.14,.04,.3,.04,.45,.06Z"/><path class="c" d="M10.23,11.91s-.01,.07,0,.08c.09,.13,0,.24-.05,.35-.05,.11-.15,.17-.26,.21-.21,.06-.41,.14-.63,.17-.06,.01-.12,.06-.18,.07-.28,.06-.54,.16-.82,.22-.16,.03-.32,.09-.47,.14-.17,.05-.34,.1-.51,.16-.01,0-.03,0-.05,0,0-.17-.07-.33-.05-.51,.01-.17,.02-.34,.04-.51,.01-.17,.03-.34,.06-.51,.03-.17,.05-.34,.12-.5,.06-.15,.1-.31,.15-.47,.06-.15,.12-.3,.19-.45,.07-.15,.15-.29,.23-.44h.08l.04,.04c.22,.21,.44,.43,.67,.63,.27,.23,.53,.48,.81,.71,.16,.13,.28,.3,.46,.4,.06,.04,.1,.13,.16,.2Z"/><path class="c" d="M12.07,7.31c-.09,.26-.06,.49-.06,.72,0,.14-.06,.26-.05,.41,.02,.14,.03,.29,0,.42-.06,.23-.02,.46-.04,.68,0,.09-.03,.17-.04,.26,0,.09,0,.18,0,.27,0,.06-.03,.13-.06,.23l-.23,.21h-.37c-.19-.14-.39-.29-.59-.43-.15-.11-.3-.22-.46-.33-.09-.06-.18-.14-.28-.2-.1-.06-.19-.13-.28-.19-.15-.11-.31-.21-.45-.33-.05-.04-.1-.07-.15-.1-.04-.03-.09-.06-.14-.09,.9-.86,1.95-1.37,3.21-1.52Z"/><path class="c" d="M17.36,9.9s.05,.04,.06,.06c.12,.25,.27,.49,.36,.76,.06,.17,.13,.33,.18,.5,.04,.14,.08,.28,.11,.42,.03,.14,.02,.29,.09,.43,0,0,0,.01,0,.02-.02,.31,.07,.61,.04,.91-.01,.1-.04,.2-.06,.31-.19-.07-.4-.12-.6-.18-.12-.04-.25-.09-.37-.11-.12-.03-.24-.07-.36-.1-.16-.04-.31-.09-.47-.14-.23-.07-.47-.13-.7-.2-.18-.06-.39-.11-.45-.35,0-.02-.02-.03-.04-.05-.03-.21,.06-.37,.2-.5,.1-.09,.2-.17,.3-.25,.1-.08,.17-.2,.3-.26,.04-.02,.07-.07,.11-.1,.2-.19,.4-.39,.62-.56,.12-.1,.22-.2,.34-.3,.11-.09,.22-.19,.35-.3Z"/><path class="c" d="M14.43,17.96c-1.15,.37-2.29,.37-3.44,0,0-.04,.01-.08,.03-.11,.12-.23,.25-.46,.39-.69,.1-.16,.18-.34,.27-.5,.12-.22,.23-.44,.37-.65,.06-.08,.09-.19,.14-.28,.04-.08,.08-.17,.14-.24,.07-.09,.15-.17,.28-.19,.03,0,.06-.03,.09-.04,.03,.02,.06,.04,.09,.04,.16,0,.26,.09,.34,.22,.14,.22,.26,.46,.38,.69,.12,.21,.24,.43,.36,.64,.09,.16,.18,.32,.27,.48,.1,.17,.19,.35,.28,.52,.02,.03,.02,.07,.03,.11Z"/><path class="c" d="M7.59,14.65c.08-.04,.15-.05,.24-.07,.2-.03,.4-.05,.59-.11,.09-.03,.21,.02,.3-.05,.22,0,.43-.06,.64-.09,.2-.03,.41-.05,.61-.11,.14-.04,.3-.04,.45-.05,.19,0,.39,.21,.41,.41,.02,.17-.04,.33-.1,.47-.11,.23-.19,.46-.29,.69-.14,.34-.3,.68-.42,1.03-.05,.14-.12,.28-.18,.41-.03,.06-.05,.12-.08,.2-.15-.11-.27-.21-.4-.3-.18-.11-.29-.29-.47-.4-.07-.04-.14-.11-.17-.2-.02-.05-.08-.08-.11-.12-.24-.27-.45-.55-.62-.87-.05-.1-.11-.19-.16-.29-.07-.13-.13-.27-.19-.41-.02-.04-.01-.09-.02-.14Z"/><path class="c" d="M16.51,8.82s-.09,.12-.15,.15c-.31,.18-.6,.4-.89,.61-.28,.2-.57,.39-.83,.6-.15,.12-.32,.21-.48,.32-.04,0-.07,0-.11,0-.19,.03-.31-.06-.43-.19-.06-.07-.08-.13-.08-.22,0-.33-.07-.65-.04-.98-.07-.24,0-.49-.05-.72-.05-.26-.02-.51-.04-.77,0-.1-.08-.19-.02-.31,.58,.08,1.14,.24,1.67,.49,.53,.26,1.02,.58,1.45,1.01Z"/><path class="d" d="M12.29,11.87h.82l.55,.66-.19,.84c-.12,.06-.26,.13-.41,.2-.05,.02-.11,.03-.15,.06-.09,.07-.18,.08-.28,.07l-.69-.32-.19-.82,.54-.67Z"/></g></svg>