<svg id="Layer_1" data-name="Layer 1" xmlns="http://www.w3.org/2000/svg" viewBox="0 0 167.11 24.64"><defs><style>.cls-1{fill:#0a66c2;}</style></defs><path class="cls-1" d="M20.45,21.09H16.89V15.52c0-1.33,0-3-1.85-3s-2.13,1.45-2.13,2.94v5.67H9.35V9.64h3.41V11.2h.05a3.75,3.75,0,0,1,3.37-1.85c3.6,0,4.27,2.37,4.27,5.45v6.29ZM5.34,8.07A2.07,2.07,0,1,1,7.4,6,2.06,2.06,0,0,1,5.34,8.07Zm1.78,13H3.56V9.64H7.12ZM22.23.64H1.77A1.75,1.75,0,0,0,0,2.37V22.91a1.75,1.75,0,0,0,1.77,1.73H22.22A1.75,1.75,0,0,0,24,22.91V2.37A1.75,1.75,0,0,0,22.22.64Z"/><path d="M30.55,21.13H28.84L34.77,4.42h1.71Z"/><path d="M37.14,9.59h1.8v9.12h-1.8Zm5.45,3.59a2.18,2.18,0,0,0-.47-1.49,1.74,1.74,0,0,0-1.35-.53,1.81,1.81,0,0,0-1.35.47,1.72,1.72,0,0,0-.48,1.3l-.19-1.75a3.3,3.3,0,0,1,1.1-1.28,2.7,2.7,0,0,1,1.51-.45A3,3,0,0,1,43,9.89a2.73,2.73,0,0,1,1,1.27,5.08,5.08,0,0,1,.36,2v5.54h-1.8Zm5.45,0a2.1,2.1,0,0,0-.5-1.49,1.85,1.85,0,0,0-1.41-.53,1.66,1.66,0,0,0-1.29.51,2.11,2.11,0,0,0-.45,1.44L44,11.35A3.56,3.56,0,0,1,45.16,10a2.66,2.66,0,0,1,1.56-.5,3.15,3.15,0,0,1,1.69.44,2.73,2.73,0,0,1,1.06,1.27,5.08,5.08,0,0,1,.36,2v5.54H48Z"/><path d="M52.56,5.93h1.79V7.72H52.56Zm0,3.66h1.79v9.12H52.56Z"/><path d="M58.63,18.38A3.22,3.22,0,0,1,57.28,17a4.54,4.54,0,0,1-.47-2.14V13.37a4.44,4.44,0,0,1,.47-2.11,3.07,3.07,0,0,1,1.35-1.34,4.53,4.53,0,0,1,2.13-.47,4.87,4.87,0,0,1,1.34.18,4,4,0,0,1,1.13.49,3.13,3.13,0,0,1,.83.79l-1.29,1.16a2.65,2.65,0,0,0-.9-.67,2.57,2.57,0,0,0-1.08-.24,2.13,2.13,0,0,0-1.61.58,2.23,2.23,0,0,0-.57,1.63v1.51a2.31,2.31,0,0,0,.56,1.67,2.16,2.16,0,0,0,1.62.59,2.46,2.46,0,0,0,1.09-.26,2.67,2.67,0,0,0,.89-.72l1.29,1.25a3.31,3.31,0,0,1-.84.78,4,4,0,0,1-1.13.48,4.8,4.8,0,0,1-1.33.17A4.53,4.53,0,0,1,58.63,18.38Z"/><path d="M66,5.93h1.79V18.71H66Zm5.54,7.25a2.1,2.1,0,0,0-.5-1.49,2.19,2.19,0,0,0-2.77-.07,1.68,1.68,0,0,0-.48,1.29l-.18-1.76a3.21,3.21,0,0,1,1.1-1.25,2.7,2.7,0,0,1,1.51-.45,2.83,2.83,0,0,1,2.3,1,4.15,4.15,0,0,1,.81,2.74v5.54H71.58Z"/><path d="M76.49,18.14A2.61,2.61,0,0,1,75.66,16a2.57,2.57,0,0,1,.76-2,3.41,3.41,0,0,1,2.31-.68h2.6l.12,1.44H78.74a1.52,1.52,0,0,0-1,.32,1.2,1.2,0,0,0-.35.95,1.19,1.19,0,0,0,.47,1,2.39,2.39,0,0,0,1.4.33,4,4,0,0,0,1.53-.22.71.71,0,0,0,.51-.68l.18,1.28a2.12,2.12,0,0,1-.58.61,2.72,2.72,0,0,1-.81.35,4,4,0,0,1-1,.12A3.85,3.85,0,0,1,76.49,18.14Zm4.76-5.21a1.93,1.93,0,0,0-.48-1.4A1.8,1.8,0,0,0,79.41,11a3.56,3.56,0,0,0-1.07.16,3.13,3.13,0,0,0-.93.47l-1.31-.9a3.55,3.55,0,0,1,1.37-1,5,5,0,0,1,1.89-.35,4.44,4.44,0,0,1,1.94.4A2.82,2.82,0,0,1,82.53,11,3.76,3.76,0,0,1,83,12.85v5.86h-1.7Z"/><path d="M87.47,16.35a.85.85,0,0,0,.14.52.51.51,0,0,0,.41.18h.85v1.7H87.81a2,2,0,0,1-1.58-.63,2.62,2.62,0,0,1-.55-1.78V5.93h1.79Z"/><path d="M96.79,13.28V15h-5.9v-1.7Z"/><path d="M99.52,9.59h1.79V22.42H99.52Zm2.6,8.84a2.41,2.41,0,0,1-.93-1.15l.12-1.91a2.17,2.17,0,0,0,.21,1,1.43,1.43,0,0,0,.61.63,2,2,0,0,0,1,.22,1.75,1.75,0,0,0,1.38-.54,2.17,2.17,0,0,0,.49-1.52v-2a2.22,2.22,0,0,0-.49-1.55,1.73,1.73,0,0,0-1.38-.56,2.07,2.07,0,0,0-1,.21,1.46,1.46,0,0,0-.61.62,2.12,2.12,0,0,0-.21,1l-.18-1.76a3.09,3.09,0,0,1,1.08-1.23,2.65,2.65,0,0,1,1.48-.44,3,3,0,0,1,1.66.44,2.71,2.71,0,0,1,1.05,1.27,5.08,5.08,0,0,1,.36,2v2a4.76,4.76,0,0,1-.37,2,2.66,2.66,0,0,1-1.08,1.27,3.18,3.18,0,0,1-1.7.43A2.71,2.71,0,0,1,102.12,18.43Z"/><path d="M110.78,18.38A3.2,3.2,0,0,1,109.49,17a4.74,4.74,0,0,1-.44-2.15V13.38a4.64,4.64,0,0,1,.44-2.12,3,3,0,0,1,1.29-1.34,4.62,4.62,0,0,1,4.06,0,3,3,0,0,1,1.29,1.34,4.77,4.77,0,0,1,.44,2.12v1.51a4.8,4.8,0,0,1-.44,2.14,3.23,3.23,0,0,1-1.29,1.35,4.71,4.71,0,0,1-4.06,0Zm3.48-1.83a2.43,2.43,0,0,0,.52-1.66V13.38a2.36,2.36,0,0,0-.52-1.64,1.81,1.81,0,0,0-1.45-.58,1.85,1.85,0,0,0-1.46.58,2.4,2.4,0,0,0-.51,1.64v1.51a2.48,2.48,0,0,0,.51,1.66,1.85,1.85,0,0,0,1.46.59A1.82,1.82,0,0,0,114.26,16.55Z"/><path d="M119.12,5.93h1.79V18.71h-1.79Zm.77,9.32,4.7-5.66h2.1l-6.91,7.78ZM122,13.44l1.15-1.19,4,6.46h-2Z"/><path d="M130.43,15.13a2.07,2.07,0,0,0,.49,1.48,1.77,1.77,0,0,0,1.37.53,1.91,1.91,0,0,0,1.37-.47,1.76,1.76,0,0,0,.48-1.33l.12,1.91a2.62,2.62,0,0,1-.91,1.13,2.55,2.55,0,0,1-1.56.46,2.87,2.87,0,0,1-2.33-1,4.11,4.11,0,0,1-.82-2.74V9.59h1.79Zm3.71-5.54h1.78v9.12h-1.78Z"/><path d="M140.36,18.68a5.38,5.38,0,0,1-1.33-.47,5.47,5.47,0,0,1-1.13-.79L139,16.11a6.54,6.54,0,0,0,1.47.84,4,4,0,0,0,1.44.28,3.11,3.11,0,0,0,1.6-.33,1.1,1.1,0,0,0,.53-1,.76.76,0,0,0-.29-.65A1.57,1.57,0,0,0,143,15c-.29-.05-.69-.09-1.21-.14h-.44a7.83,7.83,0,0,1-1.51-.26,2,2,0,0,1-1-.71,2.35,2.35,0,0,1-.41-1.48,3,3,0,0,1,.4-1.61,2.32,2.32,0,0,1,1.18-1,5,5,0,0,1,2-.33,6.57,6.57,0,0,1,1.35.14,5.26,5.26,0,0,1,1.24.39,6.11,6.11,0,0,1,1.13.65l-1.08,1.31a6.45,6.45,0,0,0-1.35-.66,4.26,4.26,0,0,0-1.29-.22,2.56,2.56,0,0,0-1.38.31,1.07,1.07,0,0,0-.45.94.6.6,0,0,0,.26.55,1.41,1.41,0,0,0,.65.25c.26,0,.64.08,1.13.11h.33a7.62,7.62,0,0,1,1.63.26,2.18,2.18,0,0,1,1.13.76,2.61,2.61,0,0,1,.46,1.65,2.85,2.85,0,0,1-.43,1.63,2.52,2.52,0,0,1-1.26,1,6.23,6.23,0,0,1-2.14.32A6.6,6.6,0,0,1,140.36,18.68Z"/><path d="M148.38,18.14a2.59,2.59,0,0,1-.84-2.12,2.57,2.57,0,0,1,.77-2,3.41,3.41,0,0,1,2.31-.68h2.59l.12,1.44h-2.7a1.52,1.52,0,0,0-1,.32,1.2,1.2,0,0,0-.35.95,1.18,1.18,0,0,0,.46,1,2.43,2.43,0,0,0,1.4.33,4,4,0,0,0,1.54-.22.72.72,0,0,0,.5-.68l.19,1.28a2.15,2.15,0,0,1-.59.61,2.77,2.77,0,0,1-.8.35,4.1,4.1,0,0,1-1,.12A3.81,3.81,0,0,1,148.38,18.14Zm4.75-5.21a1.93,1.93,0,0,0-.48-1.4A1.79,1.79,0,0,0,151.3,11a3.51,3.51,0,0,0-1.07.16,3.13,3.13,0,0,0-.93.47l-1.31-.9a3.48,3.48,0,0,1,1.37-1,4.92,4.92,0,0,1,1.88-.35,4.46,4.46,0,0,1,1.95.4A2.93,2.93,0,0,1,154.42,11a3.76,3.76,0,0,1,.42,1.84v5.86h-1.71Z"/></svg>