<?xml version="1.0" encoding="UTF-8"?><svg id="a" xmlns="http://www.w3.org/2000/svg" viewBox="0 0 160.26 24.64"><defs><style>.b{fill:#0a66c2;}</style></defs><path class="b" d="M20.45,21.09h-3.55v-5.57c0-1.33-.03-3.04-1.85-3.04s-2.14,1.44-2.14,2.94v5.67h-3.55V9.64h3.41v1.56h.05c.48-.9,1.64-1.85,3.37-1.85,3.6,0,4.27,2.37,4.27,5.45v6.29h0ZM5.34,8.07c-1.14,0-2.06-.93-2.06-2.07s.92-2.06,2.06-2.06,2.06,.92,2.06,2.06-.93,2.07-2.06,2.07Zm1.78,13.02H3.56V9.64h3.56v11.45ZM22.23,.64H1.77C.79,.64,0,1.41,0,2.37V22.91c0,.96,.79,1.73,1.77,1.73H22.22c.98,0,1.78-.77,1.78-1.73V2.37c0-.95-.8-1.73-1.78-1.73h0Z"/><g><path d="M30.55,21.13h-1.71l5.93-16.72h1.71l-5.93,16.72Z"/><path d="M37.14,9.59h1.79v9.12h-1.79V9.59Zm5.45,3.59c0-.64-.16-1.14-.47-1.49s-.76-.53-1.34-.53-1.04,.16-1.36,.47-.48,.75-.48,1.31l-.18-1.76c.28-.55,.65-.98,1.1-1.27s.96-.45,1.51-.45c.64,0,1.18,.15,1.63,.44s.8,.71,1.03,1.27,.36,1.23,.36,2.01v5.54h-1.79v-5.53Zm5.45,0c0-.64-.17-1.14-.5-1.49s-.8-.53-1.41-.53c-.56,0-.99,.17-1.29,.51s-.46,.82-.46,1.44l-.36-1.76c.29-.6,.67-1.07,1.14-1.4s.99-.5,1.56-.5c.66,0,1.22,.15,1.68,.44s.82,.71,1.06,1.27,.36,1.23,.36,2.01v5.54h-1.79v-5.53Z"/><path d="M52.56,5.93h1.79v1.79h-1.79v-1.79Zm0,3.66h1.79v9.12h-1.79V9.59Z"/><path d="M58.63,18.38c-.59-.31-1.04-.76-1.35-1.35s-.47-1.31-.47-2.14v-1.5c0-.83,.16-1.53,.47-2.12s.76-1.03,1.35-1.34,1.3-.46,2.13-.46c.47,0,.92,.06,1.34,.17s.8,.28,1.13,.5,.61,.48,.83,.79l-1.29,1.16c-.26-.29-.56-.52-.91-.68s-.71-.24-1.08-.24c-.69,0-1.23,.19-1.61,.58s-.57,.93-.57,1.63v1.5c0,.72,.19,1.28,.57,1.67s.92,.59,1.61,.59c.38,0,.74-.08,1.09-.25s.64-.41,.9-.72l1.29,1.25c-.23,.3-.51,.56-.84,.78s-.71,.38-1.13,.49-.86,.17-1.33,.17c-.83,0-1.54-.16-2.13-.47Z"/><path d="M66.04,5.93h1.79v12.78h-1.79V5.93Zm5.54,7.25c0-.64-.17-1.14-.5-1.49s-.8-.53-1.41-.53-1.04,.15-1.36,.46-.48,.74-.48,1.29l-.18-1.76c.28-.54,.65-.96,1.1-1.25s.96-.44,1.51-.44c.99,0,1.76,.32,2.3,.97s.81,1.56,.81,2.75v5.54h-1.79v-5.53Z"/><path d="M76.49,18.14c-.56-.47-.83-1.17-.83-2.12s.25-1.58,.76-2.03,1.28-.68,2.31-.68h2.59l.12,1.44h-2.71c-.47,0-.82,.1-1.05,.31s-.35,.53-.35,.95c0,.46,.15,.81,.46,1.03s.77,.33,1.4,.33c.69,0,1.2-.07,1.53-.22s.51-.38,.51-.69l.18,1.28c-.16,.25-.35,.45-.58,.61s-.5,.28-.8,.36-.65,.12-1.03,.12c-1.12,0-1.97-.23-2.52-.7Zm4.75-5.22c0-.6-.16-1.06-.48-1.39s-.77-.5-1.36-.5c-.36,0-.72,.06-1.07,.17s-.66,.27-.93,.47l-1.31-.9c.35-.42,.8-.74,1.37-.97s1.19-.35,1.89-.35c.76,0,1.4,.13,1.94,.4s.95,.65,1.23,1.16,.42,1.12,.42,1.83v5.86h-1.71v-5.78Z"/><path d="M87.47,16.35c0,.22,.05,.39,.15,.51s.23,.18,.41,.18h.84v1.71h-1.05c-.68,0-1.21-.21-1.58-.63s-.56-1.02-.56-1.78V5.93h1.79v10.42Z"/><path d="M96.79,13.28v1.71h-5.91v-1.71h5.91Z"/><path d="M99.52,9.59h1.79v12.83h-1.79V9.59Zm2.6,8.85c-.42-.27-.73-.66-.93-1.16l.12-1.91c0,.39,.07,.73,.21,1s.34,.49,.61,.63,.59,.22,.97,.22c.59,0,1.05-.18,1.38-.54s.49-.87,.49-1.52v-1.98c0-.67-.16-1.19-.49-1.56s-.78-.55-1.38-.55c-.38,0-.7,.07-.97,.21s-.47,.35-.61,.62-.21,.6-.21,.98l-.18-1.76c.28-.53,.64-.94,1.08-1.23s.94-.44,1.49-.44c.64,0,1.2,.15,1.66,.44s.81,.71,1.05,1.27,.36,1.23,.36,2.01v1.99c0,.77-.12,1.44-.37,1.99s-.61,.97-1.08,1.26-1.04,.44-1.71,.44c-.57,0-1.06-.14-1.49-.41Z"/><path d="M110.78,18.38c-.56-.31-.99-.76-1.29-1.36s-.44-1.31-.44-2.15v-1.49c0-.83,.15-1.53,.44-2.12s.73-1.04,1.29-1.34,1.24-.46,2.03-.46,1.47,.15,2.03,.46,.99,.76,1.29,1.34c.29,.59,.44,1.3,.44,2.12v1.51c0,.83-.15,1.54-.44,2.13-.3,.59-.73,1.04-1.29,1.35s-1.24,.47-2.03,.47-1.47-.16-2.03-.47Zm3.48-1.83c.34-.39,.51-.94,.51-1.65v-1.51c0-.71-.17-1.26-.51-1.64-.34-.39-.83-.58-1.45-.58s-1.11,.19-1.45,.58-.51,.93-.51,1.64v1.51c0,.71,.17,1.26,.51,1.65s.83,.59,1.45,.59,1.11-.2,1.45-.59Z"/><path d="M119.12,5.93h1.79v12.78h-1.79V5.93Zm.77,9.32l4.69-5.66h2.11l-6.92,7.79,.11-2.13Zm2.12-1.8l1.15-1.2,3.98,6.46h-1.95l-3.18-5.26Z"/><path d="M130.43,15.13c0,.64,.16,1.13,.49,1.48,.32,.35,.78,.52,1.38,.52s1.04-.16,1.36-.47,.48-.75,.48-1.33l.12,1.91c-.19,.45-.49,.83-.91,1.13s-.94,.46-1.56,.46c-1.01,0-1.79-.32-2.33-.97-.55-.65-.82-1.56-.82-2.74v-5.55h1.79v5.55Zm3.71-5.55h1.78v9.12h-1.78V9.59Z"/><path d="M140.36,18.68c-.47-.11-.91-.26-1.32-.47s-.79-.47-1.13-.79l1.06-1.31c.49,.38,.98,.66,1.47,.84s.97,.28,1.44,.28c.71,0,1.24-.11,1.59-.33s.53-.55,.53-.99c0-.29-.1-.51-.29-.66s-.43-.24-.72-.29-.69-.1-1.21-.14c-.05,0-.1,0-.15,0s-.1,0-.15-.01c-.02,0-.05,0-.07,0s-.05,0-.07,0c-.59-.05-1.09-.13-1.5-.26s-.75-.36-1.02-.71c-.27-.35-.41-.84-.41-1.49s.13-1.18,.4-1.61,.66-.75,1.18-.96,1.17-.32,1.96-.32c.47,0,.93,.04,1.36,.13,.43,.09,.84,.22,1.24,.39s.77,.39,1.13,.65l-1.08,1.31c-.46-.29-.91-.51-1.35-.66-.44-.15-.88-.22-1.3-.22-.61,0-1.07,.1-1.37,.31s-.46,.52-.46,.94c0,.25,.09,.43,.26,.55,.17,.12,.39,.21,.65,.25s.64,.08,1.12,.11c.04,0,.07,0,.11,0s.08,0,.12,0h.05s.04,0,.05,0c.64,.04,1.18,.13,1.63,.25,.45,.13,.82,.38,1.13,.76s.46,.93,.46,1.65c0,.66-.14,1.2-.42,1.63s-.71,.75-1.27,.97c-.57,.22-1.28,.33-2.13,.33-.54,0-1.04-.05-1.52-.16Z"/><path d="M148.38,18.14c-.56-.47-.83-1.17-.83-2.12s.25-1.58,.76-2.03,1.28-.68,2.31-.68h2.59l.12,1.44h-2.71c-.47,0-.82,.1-1.05,.31-.23,.21-.35,.53-.35,.95,0,.46,.15,.81,.46,1.03,.31,.22,.78,.33,1.4,.33,.69,0,1.2-.07,1.53-.22s.51-.38,.51-.69l.18,1.28c-.16,.25-.35,.45-.58,.61s-.5,.28-.8,.36-.65,.12-1.03,.12c-1.12,0-1.97-.23-2.52-.7Zm4.75-5.22c0-.6-.16-1.06-.48-1.39-.32-.33-.77-.5-1.36-.5-.36,0-.72,.06-1.07,.17-.35,.11-.66,.27-.93,.47l-1.31-.9c.35-.42,.8-.74,1.37-.97s1.19-.35,1.89-.35c.76,0,1.4,.13,1.94,.4s.95,.65,1.23,1.16,.42,1.12,.42,1.83v5.86h-1.71v-5.78Z"/></g></svg>