<?xml version="1.0" encoding="UTF-8"?><svg id="a" xmlns="http://www.w3.org/2000/svg" viewBox="0 0 76.32 24.64"><defs><style>.b{fill:#e6e9ea;}.c{fill:#485b63;}.d{fill:#fdbf07;}.e{fill:#fbbf08;}.f{fill:#273338;}.g{fill:#262625;}.h{fill:#252525;}.i{fill:#6e5003;}.j{fill:#eaedef;}.k{fill:#e6e8ea;}</style></defs><g><path d="M30.51,5.93h1.79v12.78h-1.79V5.93Zm.9,11.07h7.31v1.71h-7.31v-1.71Z"/><path d="M40.65,5.93h1.79v1.79h-1.79v-1.79Zm0,3.66h1.79v9.12h-1.79V9.59Z"/><path d="M45.17,9.59h1.79v9.12h-1.79V9.59Zm5.54,3.59c0-.64-.17-1.14-.5-1.49s-.8-.53-1.41-.53-1.04,.16-1.36,.47-.48,.75-.48,1.31l-.18-1.76c.28-.55,.65-.98,1.1-1.27s.96-.45,1.51-.45c.99,0,1.76,.32,2.3,.97s.81,1.56,.81,2.75v5.54h-1.79v-5.53Z"/><path d="M57.02,15.13c0,.64,.16,1.13,.49,1.48s.78,.52,1.38,.52,1.04-.16,1.36-.47,.48-.75,.48-1.33l.12,1.91c-.19,.45-.49,.83-.91,1.13s-.94,.46-1.56,.46c-1.01,0-1.79-.32-2.33-.97s-.82-1.56-.82-2.74v-5.55h1.79v5.55Zm3.71-5.55h1.78v9.12h-1.78V9.59Z"/><path d="M67.8,13.67l.86,1.65-2.32,3.38h-1.99l3.45-5.04Zm.05,.89l-3.36-4.97h2l2.62,4.09,3.45,5.04h-1.99l-2.72-4.15Zm.58-1.74l2-3.23h2l-3.23,4.92-.76-1.69Z"/></g><g><path class="f" d="M4.92,15.84c.01,.3,.15,.55,.36,.76,.3,.3,.59,.61,.91,.88,.67,.57,1.36,1.11,2.03,1.68,.16,.13,.3,.31,.38,.49,.16,.36,0,.77-.39,.86-.12,.03-.23,.09-.36,.14,.03,.04,.06,.09,.09,.13,.09,.09,.18,.18,.28,.25,1.02,.73,2.15,.96,3.37,.69,.96-.22,1.81-.68,2.61-1.26-.03,.24-.06,.48-.09,.72-.1,.66-.25,1.31-.18,1.98-.9-.2-1.81-.13-2.72-.12-.93,0-1.86,.04-2.79,.06,0-.06-.01-.13,0-.19,.06-.59-.13-1.1-.48-1.57-.25-.34-.48-.69-.71-1.05-.5-.79-.97-1.59-1.49-2.36-.28-.42-.61-.82-.95-1.18-.39-.41-.64-.42-1.13-.16-.09-.9,.23-1.72,.55-2.52,.52-1.33,1.17-2.61,2.02-3.77,.32-.43,.67-.85,.98-1.29,.39-.57,.55-1.2,.41-1.9-.06-.3-.07-.61-.08-.91-.03-1.03-.08-2.05-.06-3.08,.02-.71,.22-1.4,.69-1.97,.31-.38,.73-.61,1.17-.8C10.87-.3,12.27,0,13.57,.93c.49,.35,.77,.89,.95,1.44,.2,.59,.32,1.2,.45,1.81,.03,.16-.03,.33-.05,.5-.08,1.06,.2,2.05,.6,3.02,.41,.98,1.04,1.82,1.65,2.66,.87,1.2,1.6,2.47,2,3.91,.26,.91,.29,1.81,0,2.72-.04,.12-.05,.25-.07,.37-.36-.06-.67,.12-1,.23-.08-.27-.29-.4-.54-.47-.27-.08-.54-.13-.81-.19,.35-.67,.54-1.37,.61-2.12,.1-1.07-.28-1.93-1.09-2.61-.07-.06-.17-.09-.26-.13,0,.08,.02,.11,.05,.14,1.39,1.51,.87,3.32-.19,4.49-.02,.02-.05,.02-.08,.04l-.02-.02c0-.41,.02-.82,.01-1.24-.04-1.27-.32-2.47-.87-3.64-.69-1.47-1.23-3.01-1.83-4.52,.02-.11,.03-.23,.05-.34,.05-.36-.01-.49-.34-.65-.06-.03-.13-.07-.19-.1,.05-.06,.09-.11,.14-.17,.47-.63,.46-1.65-.02-2.25-.45-.57-1.16-.57-1.58,.02-.15,.21-.27,.47-.31,.71-.05,.35,0,.7,0,1.06l-1.14-.07c.11-.54,.09-1.05-.23-1.52-.31-.44-.81-.46-1.14-.04-.49,.62-.4,1.83,.14,2.24-.15,.13-.3,.26-.44,.41-.28,.28-.31,.63-.08,.94,.11,.14,.25,.26,.38,.38-.02,.35-.02,.7-.08,1.04-.19,1.1-.68,2.07-1.33,2.96-.69,.95-1.1,1.99-1.31,3.13-.05,.24-.08,.48-.12,.72-.37-1.02,.06-1.96,.26-2.92l-.09-.03-.52,1.16"/><path class="d" d="M3.67,16.59c.5-.26,.74-.25,1.13,.16,.35,.37,.67,.76,.95,1.18,.52,.77,.99,1.58,1.49,2.36,.23,.36,.45,.71,.71,1.05,.35,.47,.54,.98,.48,1.57,0,.06,0,.13,0,.19-.04,.16-.07,.33-.12,.49-.19,.61-.62,.97-1.26,1.03-.47,.04-.92,0-1.37-.17-.77-.28-1.54-.57-2.33-.81-.59-.18-1.21-.28-1.82-.42-.19-.05-.39-.11-.57-.18-.78-.29-.75-.74-.57-1.34,0-.03,.02-.06,.04-.09,.45-.54,.36-1.14,.18-1.75-.05-.17-.1-.34-.15-.52-.12-.46,0-.67,.46-.81,.2-.06,.41-.12,.62-.14,.59-.08,1-.39,1.34-.86,.24-.33,.53-.63,.79-.94Z"/><path class="d" d="M18.11,17.59c.32-.11,.63-.29,1-.23,.23,.13,.32,.36,.38,.6,.06,.21,.11,.43,.12,.65,.03,.57,.36,.94,.78,1.24,.19,.13,.4,.23,.61,.33,.45,.22,.53,.69,.15,1.03-.18,.16-.39,.29-.59,.42-.8,.51-1.61,1.01-2.41,1.53-.31,.2-.6,.44-.87,.69-.71,.67-1.55,.77-2.45,.54-.51-.13-.74-.53-.85-1.01-.02-.07-.03-.15-.04-.22-.08-.67,.08-1.32,.18-1.98,.04-.24,.06-.48,.09-.72,.02-.17,.06-.33,.07-.5,.03-.66,.03-1.33,.07-1.99,.01-.22,.1-.44,.19-.65,.08-.19,.25-.26,.46-.28,.29-.03,.51,.11,.72,.27,.19,.23,.29,.48,.25,.79-.05,.34,.08,.51,.42,.59,.48,.12,1.05-.1,1.34-.52,.13-.19,.26-.38,.39-.58Z"/><path class="j" d="M15.72,17.31c-.21-.16-.43-.3-.72-.27-.21,.02-.38,.09-.46,.28-.09,.21-.18,.43-.19,.65-.04,.66-.04,1.33-.07,1.99,0,.17-.05,.33-.07,.5-.79,.58-1.64,1.04-2.61,1.26-1.22,.28-2.35,.04-3.37-.69-.1-.07-.19-.17-.28-.25-.04-.03-.06-.08-.09-.13,.13-.05,.24-.11,.36-.14,.38-.09,.54-.5,.39-.86-.08-.19-.22-.36-.38-.49-.67-.57-1.36-1.11-2.03-1.68-.32-.27-.61-.58-.91-.88-.21-.21-.34-.45-.36-.76-.11-.6-.02-1.21,.23-1.84l.52-1.16,.09,.03c-.2,.96-.63,1.91-.26,2.92,.04-.24,.08-.48,.12-.72,.22-1.14,.62-2.18,1.31-3.13,.65-.88,1.14-1.86,1.33-2.96,.06-.34,.06-.7,.08-1.04,.21,.18,.41,.36,.63,.53,.16,.13,.33,.31,.52,.35,.54,.11,1.09,.15,1.61-.14,.5-.28,1.01-.53,1.51-.8,.23-.12,.41-.29,.5-.55,.6,1.51,1.15,3.05,1.83,4.52,.54,1.17,.83,2.37,.87,3.64,.01,.41,0,.82-.01,1.24-.01,.01-.02,.02-.03,.04l.02,.02,.03-.04s.06-.01,.08-.04c1.06-1.17,1.58-2.98,.19-4.49-.03-.03-.05-.06-.05-.14,.09,.04,.18,.07,.26,.13,.81,.68,1.19,1.55,1.09,2.61-.07,.75-.27,1.45-.61,2.12-.12,.01-.25,.02-.37,.04-.26,.04-.51,.11-.67,.34Z"/><path class="e" d="M13.11,7.33c-.09,.25-.27,.42-.5,.55-.5,.27-1.01,.52-1.51,.8-.52,.29-1.06,.25-1.61,.14-.19-.04-.35-.22-.52-.35-.21-.17-.42-.35-.63-.53-.13-.13-.27-.24-.38-.38-.24-.32-.2-.66,.08-.94,.14-.14,.29-.27,.44-.41l.35-.27,.51-.29,.37-.13,1.14,.07h0l.06,.04,.39,.09h0l.07,.07,.68,.3,.58,.14c.06,.03,.13,.07,.19,.1,.32,.16,.39,.29,.34,.65-.02,.11-.03,.23-.05,.34Zm-5.02-.26c.47,.77,1.13,1.07,2.04,.92,.92-.15,1.67-.7,2.44-1.18,.04-.02,.05-.08,.12-.2-.17,.03-.27,.03-.35,.07-.21,.1-.41,.23-.61,.33-.4,.2-.78,.43-1.2,.58-.59,.21-1.21,.23-1.78-.09-.23-.13-.44-.29-.66-.43Z"/><path class="b" d="M11.3,5.73l-.39-.09-.06-.05h0c0-.35-.05-.71,0-1.05,.04-.25,.16-.51,.31-.71,.42-.59,1.13-.58,1.58-.02,.48,.6,.49,1.62,.02,2.25-.04,.06-.09,.11-.14,.17l-.58-.14c.5-.3,.67-.85,.41-1.36-.12-.23-.3-.4-.56-.4-.27,0-.45,.17-.56,.4-.06,.12-.1,.26-.1,.39,0,.2,.05,.39,.07,.59Z"/><path class="c" d="M15.72,17.31c.16-.24,.41-.31,.67-.34,.12-.02,.25-.03,.37-.04,.27,.06,.54,.12,.81,.19,.25,.07,.46,.2,.54,.47-.13,.19-.26,.38-.39,.58-.28,.42-.86,.64-1.34,.52-.34-.08-.46-.26-.42-.59,.04-.31-.06-.56-.25-.79Z"/><path class="k" d="M8.84,5.94l-.35,.27c-.54-.41-.63-1.62-.14-2.24,.33-.42,.83-.41,1.14,.04,.32,.46,.35,.98,.23,1.52l-.37,.13c.09-.37,.08-.74-.16-1.06-.08-.1-.24-.21-.36-.2-.11,0-.26,.14-.31,.26-.2,.41-.05,.98,.32,1.29Z"/><path class="f" d="M15.81,16.74l-.03,.04-.02-.02s.02-.03,.03-.04l.02,.02Z"/><path class="h" d="M11.3,5.73c-.03-.2-.07-.39-.07-.59,0-.13,.04-.27,.1-.39,.11-.23,.29-.4,.56-.4,.27,0,.45,.16,.56,.4,.26,.5,.09,1.06-.41,1.36l-.68-.3-.07-.07h0Z"/><path class="i" d="M8.09,7.07c.22,.14,.43,.3,.66,.43,.57,.32,1.19,.3,1.78,.09,.42-.15,.8-.38,1.2-.58,.21-.11,.4-.23,.61-.33,.08-.04,.18-.04,.35-.07-.07,.12-.08,.18-.12,.2-.77,.48-1.52,1.03-2.44,1.18-.91,.15-1.56-.15-2.04-.92Z"/><path class="g" d="M8.84,5.94c-.36-.3-.52-.88-.32-1.29,.06-.12,.2-.25,.31-.26,.11-.01,.28,.1,.36,.2,.24,.32,.25,.69,.16,1.06l-.51,.29Z"/><path class="f" d="M10.85,5.59l.06,.05-.06-.05Z"/><path class="b" d="M11.3,5.72l.07,.07-.07-.07Z"/></g></svg>