<svg id="Layer_1" data-name="Layer 1" xmlns="http://www.w3.org/2000/svg" viewBox="0 0 201.11 24.64"><defs><style>.cls-1{fill:#273338;}.cls-2{fill:#fdbf07;}.cls-3{fill:#eaedef;}.cls-4{fill:#fbbf08;}.cls-5{fill:#e6e9ea;}.cls-6{fill:#485b63;}.cls-7{fill:#e6e8ea;}.cls-8{fill:#252525;}.cls-9{fill:#6e5003;}.cls-10{fill:#262625;}</style></defs><path d="M30.51,5.93H32.3V18.71H30.51ZM31.4,17h7.32v1.71H31.4Z"/><path d="M40.65,5.93h1.79V7.72H40.65Zm0,3.66h1.79v9.12H40.65Z"/><path d="M45.17,9.59H47v9.12H45.17Zm5.53,3.59a2.05,2.05,0,0,0-.5-1.49,1.8,1.8,0,0,0-1.4-.53,1.87,1.87,0,0,0-1.36.46A1.76,1.76,0,0,0,47,12.93l-.18-1.75a3.22,3.22,0,0,1,1.1-1.28,2.68,2.68,0,0,1,1.51-.45,2.83,2.83,0,0,1,2.29,1,4.14,4.14,0,0,1,.82,2.75v5.54H50.7Z"/><path d="M57,15.13a2.11,2.11,0,0,0,.48,1.48,1.81,1.81,0,0,0,1.38.53,1.89,1.89,0,0,0,1.36-.47,1.76,1.76,0,0,0,.48-1.33l.13,1.91a2.64,2.64,0,0,1-.92,1.13,2.54,2.54,0,0,1-1.55.46,2.89,2.89,0,0,1-2.34-1,4.17,4.17,0,0,1-.82-2.74V9.59H57Zm3.7-5.54h1.79v9.12H60.72Z"/><path d="M67.8,13.67l.86,1.65-2.32,3.39h-2Zm0,.89-3.36-5h2l2.62,4.08,3.45,5h-2Zm.58-1.74,2-3.23h2l-3.23,4.92Z"/><path class="cls-1" d="M4.92,15.84a1.16,1.16,0,0,0,.36.75c.3.3.6.61.92.89.67.57,1.36,1.11,2,1.68a1.41,1.41,0,0,1,.38.49.6.6,0,0,1-.39.86,3.31,3.31,0,0,0-.36.14l.09.13a1.74,1.74,0,0,0,.29.25,4,4,0,0,0,3.37.69,7.06,7.06,0,0,0,2.6-1.26c0,.24-.05.48-.09.72a7.77,7.77,0,0,0-.18,2A11.79,11.79,0,0,0,11.22,23c-.93,0-1.86,0-2.79.06a1.2,1.2,0,0,1,0-.19A2.18,2.18,0,0,0,8,21.34a10.73,10.73,0,0,1-.71-1.05c-.5-.78-1-1.59-1.49-2.36a8.32,8.32,0,0,0-1-1.18.77.77,0,0,0-1.13-.16,5.45,5.45,0,0,1,.54-2.52,16.33,16.33,0,0,1,2-3.77c.32-.43.67-.85,1-1.29a2.38,2.38,0,0,0,.42-1.9,5.59,5.59,0,0,1-.08-.91c0-1-.08-2.06-.06-3.08a3.2,3.2,0,0,1,.69-2A2.83,2.83,0,0,1,9.35.35a4.07,4.07,0,0,1,4.22.58,2.88,2.88,0,0,1,.95,1.44A16,16,0,0,1,15,4.18a2.18,2.18,0,0,1-.05.5,6.56,6.56,0,0,0,.6,3,13,13,0,0,0,1.66,2.66,12.49,12.49,0,0,1,2,3.91,4.51,4.51,0,0,1,0,2.72c0,.12,0,.24-.06.37a2,2,0,0,0-1,.23.7.7,0,0,0-.54-.47l-.8-.19a5.81,5.81,0,0,0,.61-2.12,2.88,2.88,0,0,0-1.09-2.61,1.19,1.19,0,0,0-.25-.13.17.17,0,0,0,0,.14,3.18,3.18,0,0,1-.18,4.49.25.25,0,0,1-.09,0v0c0-.41,0-.82,0-1.24a9,9,0,0,0-.87-3.63c-.68-1.47-1.23-3-1.83-4.52,0-.12,0-.23.05-.34.05-.37,0-.49-.34-.65l-.2-.1.14-.18a2,2,0,0,0,0-2.25.93.93,0,0,0-1.57,0,1.61,1.61,0,0,0-.31.71,6.25,6.25,0,0,0,0,1.06L9.72,5.52A1.87,1.87,0,0,0,9.49,4,.67.67,0,0,0,8.34,4a1.81,1.81,0,0,0,.15,2.24c-.15.13-.3.26-.44.4A.68.68,0,0,0,8,7.56a4.54,4.54,0,0,0,.38.38c0,.35,0,.7-.08,1a7.11,7.11,0,0,1-1.33,3,7.53,7.53,0,0,0-1.31,3.13c0,.24-.09.48-.13.72-.37-1,.07-2,.26-2.92l-.09,0L5.15,14"/><path class="cls-2" d="M3.67,16.59a.77.77,0,0,1,1.13.16,8.32,8.32,0,0,1,1,1.18c.52.77,1,1.58,1.49,2.36A10.73,10.73,0,0,0,8,21.34a2.18,2.18,0,0,1,.48,1.57,1.2,1.2,0,0,0,0,.19c0,.16-.07.33-.11.49a1.39,1.39,0,0,1-1.27,1,2.92,2.92,0,0,1-1.37-.17c-.77-.28-1.54-.57-2.33-.81-.6-.18-1.21-.28-1.82-.42A4.75,4.75,0,0,1,1,23C.18,22.74.2,22.3.38,21.7a.41.41,0,0,1,0-.09,1.78,1.78,0,0,0,.18-1.74c0-.18-.11-.35-.15-.52-.11-.46,0-.67.46-.81a4.52,4.52,0,0,1,.61-.15,1.9,1.9,0,0,0,1.35-.86A11.56,11.56,0,0,1,3.67,16.59Z"/><path class="cls-2" d="M18.11,17.59a2,2,0,0,1,1-.23.87.87,0,0,1,.38.6,3.55,3.55,0,0,1,.12.65,1.6,1.6,0,0,0,.78,1.24,4.47,4.47,0,0,0,.61.33.59.59,0,0,1,.15,1,4.86,4.86,0,0,1-.59.42c-.8.51-1.62,1-2.41,1.53a6.43,6.43,0,0,0-.87.69,2.45,2.45,0,0,1-2.45.54,1.19,1.19,0,0,1-.85-1,1.7,1.7,0,0,0,0-.22,7.77,7.77,0,0,1,.18-2c0-.24.06-.48.09-.72a2.87,2.87,0,0,0,.07-.5c0-.66,0-1.33.07-2a2.54,2.54,0,0,1,.19-.65A.5.5,0,0,1,15,17a.91.91,0,0,1,1,1.06c-.05.34.08.51.42.59a1.29,1.29,0,0,0,1.33-.52Z"/><path class="cls-3" d="M15.72,17.31A1,1,0,0,0,15,17a.5.5,0,0,0-.46.28,2.54,2.54,0,0,0-.19.65c0,.66,0,1.33-.07,2a2.87,2.87,0,0,1-.07.5,7.06,7.06,0,0,1-2.6,1.26A4,4,0,0,1,8.24,21,1.74,1.74,0,0,1,8,20.78l-.09-.13a3.31,3.31,0,0,1,.36-.14.6.6,0,0,0,.39-.86,1.41,1.41,0,0,0-.38-.49c-.67-.57-1.36-1.11-2-1.68-.32-.28-.62-.59-.92-.89a1.16,1.16,0,0,1-.36-.75A3.4,3.4,0,0,1,5.15,14l.52-1.16.09,0c-.19,1-.63,1.9-.26,2.92,0-.24.08-.48.13-.72a7.53,7.53,0,0,1,1.31-3.13A7.11,7.11,0,0,0,8.27,9c.06-.34.05-.69.08-1L9,8.47c.17.13.33.31.52.34a2.25,2.25,0,0,0,1.61-.13c.49-.28,1-.54,1.51-.81a1,1,0,0,0,.5-.54c.6,1.51,1.15,3.05,1.83,4.52a9,9,0,0,1,.87,3.63c0,.42,0,.83,0,1.24l0,0,0,0,0,0a.25.25,0,0,0,.09,0,3.18,3.18,0,0,0,.18-4.49.17.17,0,0,1,0-.14,1.19,1.19,0,0,1,.25.13,2.88,2.88,0,0,1,1.09,2.61,5.81,5.81,0,0,1-.61,2.12l-.38,0A.92.92,0,0,0,15.72,17.31Z"/><path class="cls-4" d="M13.11,7.33a1,1,0,0,1-.5.54c-.51.27-1,.53-1.51.81a2.25,2.25,0,0,1-1.61.13c-.19,0-.35-.21-.52-.34l-.62-.53A4.54,4.54,0,0,1,8,7.56a.68.68,0,0,1,.08-.95c.14-.14.29-.27.44-.4l.35-.27.51-.29.37-.13,1.14.08h0l.06,0,.39.09h0l.06.07.68.3.58.15.2.1c.32.16.39.28.34.65C13.14,7.1,13.13,7.21,13.11,7.33Zm-5-.26a1.83,1.83,0,0,0,2,.92,6.82,6.82,0,0,0,2.44-1.18s0-.08.12-.2a1.5,1.5,0,0,0-.35.07c-.21.1-.41.23-.62.33a9.33,9.33,0,0,1-1.19.58A2.09,2.09,0,0,1,8.75,7.5C8.52,7.37,8.31,7.21,8.09,7.07Z"/><path class="cls-5" d="M11.3,5.73l-.39-.09-.06,0h0a6.25,6.25,0,0,1,0-1.06,1.61,1.61,0,0,1,.31-.71.93.93,0,0,1,1.57,0,2,2,0,0,1,0,2.25l-.14.18L12,6.09a1,1,0,0,0,.41-1.35.64.64,0,0,0-.56-.4.61.61,0,0,0-.56.4,1,1,0,0,0-.1.4A4.12,4.12,0,0,0,11.3,5.73Z"/><path class="cls-6" d="M15.72,17.31a.92.92,0,0,1,.67-.34l.38,0,.8.19a.7.7,0,0,1,.54.47l-.39.58a1.29,1.29,0,0,1-1.33.52c-.34-.08-.47-.25-.42-.59A1,1,0,0,0,15.72,17.31Z"/><path class="cls-7" d="M8.84,5.94l-.35.27A1.81,1.81,0,0,1,8.34,4,.67.67,0,0,1,9.49,4a1.87,1.87,0,0,1,.23,1.51l-.37.13a1.21,1.21,0,0,0-.16-1.06.49.49,0,0,0-.35-.2.51.51,0,0,0-.32.26A1.14,1.14,0,0,0,8.84,5.94Z"/><path class="cls-1" d="M15.81,16.74l0,0,0,0,0,0Z"/><path class="cls-8" d="M11.3,5.73a4.12,4.12,0,0,1-.07-.59,1,1,0,0,1,.1-.4.61.61,0,0,1,.56-.4.64.64,0,0,1,.56.4A1,1,0,0,1,12,6.09l-.68-.3-.06-.07Z"/><path class="cls-9" d="M8.09,7.07c.22.14.43.3.66.43a2.09,2.09,0,0,0,1.78.09A9.33,9.33,0,0,0,11.72,7c.21-.1.41-.23.62-.33a1.5,1.5,0,0,1,.35-.07c-.07.12-.09.18-.12.2A6.82,6.82,0,0,1,10.13,8,1.83,1.83,0,0,1,8.09,7.07Z"/><path class="cls-10" d="M8.84,5.94a1.14,1.14,0,0,1-.32-1.29.51.51,0,0,1,.32-.26.49.49,0,0,1,.35.2,1.21,1.21,0,0,1,.16,1.06Z"/><path class="cls-1" d="M10.85,5.59l.06,0Z"/><path class="cls-5" d="M11.3,5.72l.06.07Z"/></svg>