<svg id="Layer_1" data-name="Layer 1" xmlns="http://www.w3.org/2000/svg" xmlns:xlink="http://www.w3.org/1999/xlink" viewBox="0 0 167.11 24.64"><defs><style>.cls-1{fill:url(#linear-gradient);}.cls-2{fill:url(#linear-gradient-2);}.cls-3{isolation:isolate;opacity:0.44;fill:url(#radial-gradient);}</style><linearGradient id="linear-gradient" x1="-6.61" y1="-1102.77" x2="16.93" y2="-1082.51" gradientTransform="translate(3.12 627.07) scale(0.56 0.57)" gradientUnits="userSpaceOnUse"><stop offset="0" stop-color="#5a9fd4"/><stop offset="1" stop-color="#306998"/></linearGradient><linearGradient id="linear-gradient-2" x1="26.04" y1="-1070.26" x2="17.64" y2="-1082.16" gradientTransform="translate(3.12 627.07) scale(0.56 0.57)" gradientUnits="userSpaceOnUse"><stop offset="0" stop-color="#ffd43b"/><stop offset="1" stop-color="#ffe873"/></linearGradient><radialGradient id="radial-gradient" cx="3726.06" cy="197.61" r="5.07" gradientTransform="translate(-196.46 916.89) rotate(-90) scale(0.24 1.05)" gradientUnits="userSpaceOnUse"><stop offset="0" stop-color="#b8b8b8" stop-opacity="0.5"/><stop offset="1" stop-color="#7f7f7f" stop-opacity="0"/></radialGradient></defs><path d="M30.51,5.93H32.3V18.71H30.51Zm.92,6.12h4.09a1.86,1.86,0,0,0,1-.28,1.82,1.82,0,0,0,.68-.77,2.63,2.63,0,0,0,.24-1.15,2.64,2.64,0,0,0-.24-1.16,1.91,1.91,0,0,0-.68-.78,2,2,0,0,0-1-.28H31.43V5.93h4a4,4,0,0,1,2,.49,3.36,3.36,0,0,1,1.35,1.37,4.26,4.26,0,0,1,.48,2.06,4.22,4.22,0,0,1-.48,2.05,3.36,3.36,0,0,1-1.35,1.37,4.09,4.09,0,0,1-2,.48h-4Z"/><path d="M40.13,9.59H42l2.8,7.92-1,1.95Zm8.08,0L44.32,20.84a2.59,2.59,0,0,1-.55,1,2,2,0,0,1-.84.53,4.4,4.4,0,0,1-1.23.15h-.36V20.79h.36a1.42,1.42,0,0,0,.79-.2A1.69,1.69,0,0,0,43,19.9L46.38,9.59Z"/><path d="M49.26,9.59h4.12V11.2H49.26Zm1.46,8.55a2.76,2.76,0,0,1-.52-1.8V6.93H52v9.42a.85.85,0,0,0,.13.52.46.46,0,0,0,.39.18h.86v1.7h-1A2,2,0,0,1,50.72,18.14Z"/><path d="M55.84,5.93h1.79V18.71H55.84Zm5.53,7.25a2.05,2.05,0,0,0-.5-1.49,1.8,1.8,0,0,0-1.4-.53,1.87,1.87,0,0,0-1.36.46,1.68,1.68,0,0,0-.48,1.29l-.18-1.76a3.13,3.13,0,0,1,1.1-1.25,2.68,2.68,0,0,1,1.51-.45,2.81,2.81,0,0,1,2.29,1,4.09,4.09,0,0,1,.82,2.74v5.54h-1.8Z"/><path d="M67.36,18.37A3.12,3.12,0,0,1,66.07,17a4.88,4.88,0,0,1-.44-2.15V13.38a4.77,4.77,0,0,1,.44-2.12,3,3,0,0,1,1.29-1.34,4.62,4.62,0,0,1,4.06,0,3,3,0,0,1,1.29,1.34,4.77,4.77,0,0,1,.44,2.12v1.51A4.8,4.8,0,0,1,72.71,17a3.15,3.15,0,0,1-1.29,1.34,4.62,4.62,0,0,1-4.06,0Zm3.48-1.82a2.43,2.43,0,0,0,.52-1.66V13.38a2.36,2.36,0,0,0-.52-1.64,2.1,2.1,0,0,0-2.9,0,2.36,2.36,0,0,0-.52,1.64v1.51a2.43,2.43,0,0,0,.52,1.66,2.08,2.08,0,0,0,2.9,0Z"/><path d="M75.7,9.59h1.79v9.12H75.7Zm5.54,3.59a2.1,2.1,0,0,0-.5-1.49,1.84,1.84,0,0,0-1.41-.53,1.87,1.87,0,0,0-1.36.46,1.76,1.76,0,0,0-.48,1.31l-.18-1.75a3.3,3.3,0,0,1,1.1-1.28,2.7,2.7,0,0,1,1.51-.45,2.83,2.83,0,0,1,2.3,1A4.15,4.15,0,0,1,83,13.17v5.54H81.24Z"/><path class="cls-1" d="M11.84,0A16.79,16.79,0,0,0,9.08.24c-2.46.43-2.89,1.34-2.89,3V5.43H12v.75H4A3.62,3.62,0,0,0,.4,9.12,10.94,10.94,0,0,0,.4,15C.81,16.74,1.8,18,3.47,18h2V15.3a3.68,3.68,0,0,1,3.62-3.6h5.79a2.91,2.91,0,0,0,2.9-2.94V3.25a3.21,3.21,0,0,0-2.9-3A17.2,17.2,0,0,0,11.84,0ZM8.71,1.77a1.08,1.08,0,0,1,1.08,1.1A1.1,1.1,0,0,1,8.71,4,1.09,1.09,0,0,1,7.63,2.87,1.11,1.11,0,0,1,8.71,1.77Z"/><path class="cls-2" d="M18.48,6.18V8.76a3.73,3.73,0,0,1-3.63,3.68H9.1a3,3,0,0,0-2.89,2.94v5.51c0,1.58,1.36,2.48,2.89,2.93a9.59,9.59,0,0,0,5.79,0c1.46-.41,2.9-1.28,2.9-2.93V18.67H12v-.75h8.68c1.69,0,2.32-1.18,2.9-2.94a9.79,9.79,0,0,0,0-5.88c-.42-1.68-1.23-2.94-2.9-2.94H18.48Zm-3.23,14a1.08,1.08,0,0,1,1.08,1.1,1.09,1.09,0,1,1-2.17,0A1.08,1.08,0,0,1,15.25,20.14Z"/><path class="cls-3" d="M18.32,22.68c0,.67-2.82,1.22-6.28,1.22s-6.28-.55-6.28-1.22S8.57,21.46,12,21.46,18.32,22,18.32,22.68Z"/></svg>