<?xml version="1.0" encoding="UTF-8"?><svg id="a" xmlns="http://www.w3.org/2000/svg" xmlns:xlink="http://www.w3.org/1999/xlink" viewBox="0 0 88.33 24.64"><defs><style>.e{fill:url(#c);}.f{fill:url(#d);isolation:isolate;opacity:.44;}.g{fill:url(#b);}</style><linearGradient id="b" x1="-6.61" y1="-1102.77" x2="16.93" y2="-1082.51" gradientTransform="translate(3.12 627.07) scale(.56)" gradientUnits="userSpaceOnUse"><stop offset="0" stop-color="#5a9fd4"/><stop offset="1" stop-color="#306998"/></linearGradient><linearGradient id="c" x1="26.04" y1="-1070.26" x2="17.64" y2="-1082.16" gradientTransform="translate(3.12 627.07) scale(.56)" gradientUnits="userSpaceOnUse"><stop offset="0" stop-color="#ffd43b"/><stop offset="1" stop-color="#ffe873"/></linearGradient><radialGradient id="d" cx="3726.06" cy="197.61" fx="3726.06" fy="197.61" r="5.07" gradientTransform="translate(-196.46 916.89) rotate(-90) scale(.24 1.05)" gradientUnits="userSpaceOnUse"><stop offset="0" stop-color="#b8b8b8" stop-opacity=".5"/><stop offset="1" stop-color="#7f7f7f" stop-opacity="0"/></radialGradient></defs><g><path d="M30.51,5.93h1.79v12.78h-1.79V5.93Zm.92,6.12h4.09c.39,0,.73-.09,1.02-.27s.52-.44,.68-.77,.24-.72,.24-1.15-.08-.83-.24-1.16-.39-.59-.68-.78-.63-.28-1.02-.28h-4.09v-1.71h4.03c.76,0,1.43,.16,2.01,.49s1.03,.78,1.35,1.38,.48,1.28,.48,2.06-.16,1.46-.48,2.05-.77,1.04-1.35,1.37-1.25,.48-2.01,.48h-4.03v-1.71Z"/><path d="M40.13,9.59h1.83l2.8,7.93-.99,1.94-3.64-9.87Zm8.08,0l-3.88,11.26c-.14,.42-.33,.75-.55,.99s-.51,.42-.84,.52-.74,.16-1.23,.16h-.36v-1.72h.36c.33,0,.6-.07,.8-.2s.37-.37,.51-.69l3.38-10.31h1.83Z"/><path d="M49.26,9.59h4.11v1.62h-4.11v-1.62Zm1.45,8.56c-.34-.41-.51-1.01-.51-1.81V6.93h1.79v9.42c0,.22,.04,.39,.13,.51s.22,.18,.39,.18h.86v1.71h-1.04c-.74,0-1.28-.2-1.62-.61Z"/><path d="M55.84,5.93h1.79v12.78h-1.79V5.93Zm5.54,7.25c0-.64-.17-1.14-.5-1.49s-.8-.53-1.41-.53-1.04,.15-1.36,.46-.48,.74-.48,1.29l-.18-1.76c.28-.54,.65-.96,1.1-1.25s.96-.44,1.51-.44c.99,0,1.76,.32,2.3,.97s.81,1.56,.81,2.75v5.54h-1.79v-5.53Z"/><path d="M67.36,18.37c-.56-.31-.99-.76-1.29-1.36s-.44-1.31-.44-2.15v-1.49c0-.83,.15-1.53,.44-2.12s.73-1.04,1.29-1.34,1.24-.46,2.03-.46,1.47,.15,2.03,.46,.99,.76,1.29,1.34,.44,1.3,.44,2.12v1.51c0,.83-.15,1.54-.44,2.13s-.73,1.04-1.29,1.35-1.24,.47-2.03,.47-1.47-.16-2.03-.47Zm3.48-1.83c.34-.39,.51-.94,.51-1.65v-1.51c0-.71-.17-1.26-.51-1.64s-.83-.58-1.45-.58-1.11,.19-1.45,.58-.51,.93-.51,1.64v1.51c0,.71,.17,1.26,.51,1.65s.83,.59,1.45,.59,1.11-.2,1.45-.59Z"/><path d="M75.7,9.59h1.79v9.12h-1.79V9.59Zm5.54,3.59c0-.64-.17-1.14-.5-1.49s-.8-.53-1.41-.53-1.04,.16-1.36,.47-.48,.75-.48,1.31l-.18-1.76c.28-.55,.65-.98,1.1-1.27s.96-.45,1.51-.45c.99,0,1.76,.32,2.3,.97s.81,1.56,.81,2.75v5.54h-1.79v-5.53Z"/></g><g><path class="g" d="M11.84,0c-.98,0-1.93,.1-2.76,.24-2.46,.43-2.89,1.34-2.89,3.01v2.19h5.79v.75H4.02c-1.69,0-3.15,1-3.62,2.93C-.13,11.34-.15,12.7,.4,15.02c.41,1.71,1.4,2.93,3.07,2.93h1.99v-2.66c0-1.91,1.65-3.6,3.62-3.6h5.79c1.61,0,2.89-1.32,2.89-2.93V3.25c0-1.58-1.32-2.76-2.89-3.01-1-.18-2.03-.24-3.03-.24Zm-3.13,1.77c.61,0,1.08,.49,1.08,1.1s-.49,1.1-1.08,1.1-1.08-.49-1.08-1.1,.51-1.1,1.08-1.1Z"/><path class="e" d="M18.48,6.18v2.58c0,1.99-1.69,3.68-3.62,3.68h-5.75c-1.59,0-2.89,1.36-2.89,2.93v5.51c0,1.58,1.36,2.48,2.89,2.93,1.83,.53,3.58,.65,5.79,0,1.46-.41,2.89-1.28,2.89-2.93v-2.22h-5.81v-.75h8.68c1.69,0,2.32-1.18,2.89-2.93,.61-1.81,.59-3.56,0-5.89-.41-1.67-1.22-2.93-2.89-2.93h-2.19v.02Zm-3.23,13.96c.61,0,1.08,.49,1.08,1.1s-.49,1.1-1.08,1.1-1.08-.49-1.08-1.1c-.02-.61,.47-1.1,1.08-1.1Z"/><path class="f" d="M18.32,22.68c0,.67-2.82,1.22-6.28,1.22s-6.28-.55-6.28-1.22,2.82-1.22,6.28-1.22,6.28,.55,6.28,1.22Z"/></g></svg>