<?xml version="1.0" encoding="UTF-8"?><svg id="a" xmlns="http://www.w3.org/2000/svg" viewBox="0 0 84.29 24.64"><defs><style>.b{fill:#60d9fa;}</style></defs><g><path d="M33.51,5.92h1.79v12.79h-1.79V5.92Zm.78,5.68h4.36c.34,0,.64-.08,.91-.25s.47-.4,.61-.7,.22-.65,.22-1.04-.07-.74-.22-1.04-.35-.53-.61-.7-.56-.25-.91-.25h-4.36v-1.71h4.29c.74,0,1.39,.15,1.95,.46s.99,.74,1.3,1.3,.46,1.21,.46,1.94-.16,1.38-.47,1.94-.75,.99-1.31,1.3-1.21,.46-1.94,.46h-4.29v-1.71Zm3.48,1.31l1.78-.4,3.27,6.21h-2.13l-2.93-5.8Z"/><path d="M46.29,18.37c-.6-.32-1.05-.78-1.37-1.39s-.47-1.35-.47-2.22v-1.03c0-.9,.15-1.67,.45-2.31s.74-1.12,1.31-1.46,1.27-.5,2.07-.5c.76,0,1.41,.19,1.95,.57s.95,.93,1.23,1.65,.43,1.58,.43,2.59v.6h-6.15v-1.44h4.45c-.05-.74-.24-1.32-.58-1.74s-.77-.62-1.33-.62c-.68,0-1.21,.22-1.58,.67s-.56,1.08-.56,1.89v1.16c0,.76,.2,1.34,.6,1.74s.96,.61,1.7,.61c.36,0,.72-.07,1.08-.22s.68-.35,.96-.62l1.18,1.18c-.45,.43-.96,.77-1.52,1.01s-1.13,.36-1.7,.36c-.84,0-1.56-.16-2.16-.47Z"/><path d="M54.76,18.14c-.56-.47-.83-1.17-.83-2.12s.25-1.58,.76-2.03,1.28-.68,2.31-.68h2.59l.12,1.44h-2.71c-.47,0-.82,.1-1.05,.31s-.35,.53-.35,.95c0,.46,.15,.81,.46,1.03s.77,.33,1.4,.33c.69,0,1.2-.07,1.53-.22s.51-.38,.51-.69l.18,1.28c-.16,.25-.35,.45-.58,.61s-.5,.28-.8,.36-.65,.12-1.03,.12c-1.12,0-1.97-.23-2.52-.7Zm4.75-5.22c0-.6-.16-1.06-.48-1.39s-.77-.5-1.36-.5c-.36,0-.72,.06-1.07,.17s-.66,.27-.93,.47l-1.31-.9c.35-.42,.8-.74,1.37-.97s1.19-.35,1.89-.35c.76,0,1.4,.13,1.94,.4s.95,.65,1.23,1.16,.42,1.12,.42,1.83v5.86h-1.71v-5.78Z"/><path d="M65.5,18.37c-.59-.31-1.04-.76-1.35-1.35s-.47-1.31-.47-2.14v-1.5c0-.83,.16-1.53,.47-2.12s.76-1.03,1.35-1.34,1.3-.46,2.13-.46c.47,0,.92,.06,1.34,.17s.8,.28,1.13,.5,.61,.48,.83,.79l-1.29,1.16c-.26-.29-.56-.52-.91-.68s-.71-.24-1.08-.24c-.69,0-1.23,.19-1.61,.58s-.57,.93-.57,1.63v1.5c0,.72,.19,1.28,.57,1.67s.92,.59,1.61,.59c.38,0,.74-.08,1.09-.25s.64-.41,.9-.72l1.29,1.25c-.23,.3-.51,.56-.84,.78s-.71,.38-1.13,.49-.86,.17-1.33,.17c-.83,0-1.54-.16-2.13-.47Z"/><path d="M72.21,9.59h4.11v1.62h-4.11v-1.62Zm1.45,8.56c-.34-.41-.51-1.01-.51-1.81V6.93h1.79v9.42c0,.22,.04,.39,.13,.51s.22,.18,.39,.18h.86v1.71h-1.04c-.74,0-1.28-.2-1.62-.61Z"/></g><g><path class="b" d="M20.04,24.64h-1.4l.02-.02s-.05-.02-.08-.03c-.19-.05-.39-.1-.58-.16-.65-.22-1.26-.54-1.83-.92-.79-.52-1.51-1.12-2.19-1.77-.04-.04-.08-.08-.13-.12-.07,.07-.13,.13-.19,.18-.67,.63-1.37,1.22-2.14,1.72-.57,.37-1.17,.7-1.82,.91-.19,.06-.39,.11-.59,.16-.03,0-.03,0-.05,.05h-1.4l.02-.02s0-.02-.01-.02c-.02,0-.05-.01-.07-.02-.24-.06-.47-.16-.68-.28-.51-.3-.87-.74-1.12-1.28-.27-.57-.39-1.18-.45-1.81-.06-.75-.02-1.49,.08-2.24,.09-.66,.21-1.3,.38-1.94,0-.02,0-.05,0-.07l-.05-.02c-.63-.18-1.25-.39-1.86-.64-.76-.32-1.5-.69-2.17-1.18-.5-.37-.94-.79-1.27-1.31-.25-.4-.41-.82-.44-1.29-.04-.55,.09-1.06,.35-1.54,.23-.42,.55-.78,.9-1.1,.58-.51,1.24-.91,1.93-1.24,.8-.39,1.63-.68,2.49-.93,.04-.01,.08-.02,.11-.04,0-.03,0-.05-.01-.07-.19-.76-.33-1.52-.42-2.3-.08-.75-.1-1.49,0-2.24,.06-.45,.16-.9,.35-1.32,.38-.88,.99-1.49,1.95-1.71,.02,0,.03-.02,.05-.03L7.69,0c.44,0,.87,0,1.31,0l-.02,.02h0c.08,.03,.16,.05,.24,.07,.62,.15,1.19,.4,1.75,.72,.82,.46,1.56,1.03,2.26,1.66,.21,.19,.41,.38,.62,.57,.05-.05,.11-.1,.16-.15,.78-.74,1.61-1.42,2.54-1.98,.57-.34,1.17-.63,1.82-.79,.1-.03,.2-.04,.3-.07,.02,0,.06,0,.04-.04h1.28s0,.03,.01,.04c.06,.02,.13,.03,.19,.05,.75,.22,1.28,.7,1.64,1.37,.31,.58,.45,1.2,.52,1.85,.07,.68,.05,1.36-.03,2.04-.07,.65-.18,1.29-.33,1.93-.03,.13-.06,.26-.09,.4,.05,.01,.08,.03,.12,.04,.77,.23,1.53,.49,2.26,.83,.71,.33,1.38,.7,1.98,1.2,.43,.35,.8,.75,1.07,1.24,.23,.42,.36,.87,.36,1.35,0,.47-.13,.91-.36,1.32-.27,.48-.63,.88-1.05,1.23-.61,.51-1.29,.89-2.01,1.22-.72,.33-1.47,.6-2.24,.82-.05,.01-.09,.03-.14,.04,.01,.05,.02,.09,.03,.13,.19,.77,.34,1.55,.41,2.35,.07,.75,.08,1.49-.03,2.24-.08,.53-.22,1.03-.47,1.51-.34,.64-.84,1.1-1.53,1.33-.08,.03-.16,.04-.24,.07-.02,0-.06,0-.03,.04Zm-3.67-16.68c-1.69-.12-3.36-.12-5.03,0-.53,.65-2.33,3.77-2.52,4.38,.73,1.51,1.57,2.96,2.51,4.35,1.68,.13,3.36,.12,5.04,0,.95-1.4,1.79-2.85,2.52-4.36-.73-1.52-1.57-2.97-2.52-4.36Zm5.2,7.84s.05,0,.07-.01c.81-.23,1.6-.51,2.36-.88,.54-.26,1.06-.56,1.52-.95,.31-.26,.58-.54,.78-.9,.27-.5,.27-.99,0-1.49-.12-.22-.28-.42-.46-.6-.4-.4-.86-.72-1.36-.99-.89-.49-1.83-.84-2.81-1.12-.03,0-.06-.01-.1-.02-.37,1.2-.83,2.35-1.35,3.48,.52,1.13,.97,2.29,1.35,3.48ZM13.02,3.88s-.08-.04-.11-.07c-.16-.15-.32-.3-.48-.44-.64-.57-1.32-1.1-2.07-1.52-.47-.26-.95-.48-1.48-.6-.31-.07-.63-.09-.94-.03-.47,.1-.8,.39-1.02,.8-.14,.26-.23,.54-.3,.83-.15,.7-.15,1.41-.09,2.12,.05,.62,.15,1.23,.29,1.83,.04,.19,.09,.38,.14,.58,1.22-.27,2.45-.46,3.69-.57,.72-1.02,1.49-1.99,2.36-2.93Zm-.02,16.87c-.85-.92-1.62-1.9-2.34-2.91-1.24-.12-2.47-.3-3.69-.57,0,.03-.02,.05-.02,.07-.22,.9-.39,1.8-.43,2.73-.03,.58-.01,1.17,.11,1.74,.08,.37,.2,.73,.43,1.04,.23,.32,.53,.53,.93,.6,.28,.05,.56,.03,.84-.02,.43-.08,.83-.25,1.22-.44,.68-.34,1.29-.78,1.88-1.26,.37-.3,.72-.62,1.08-.97Zm7.71-13.37s.02-.05,.02-.07c.25-1.01,.43-2.02,.44-3.06,0-.49-.02-.98-.14-1.45-.08-.35-.2-.68-.41-.98-.29-.41-.69-.61-1.18-.63-.29-.01-.58,.04-.86,.12-.57,.16-1.08,.42-1.58,.73-.83,.52-1.58,1.15-2.28,1.83-.01,.01-.02,.03-.04,.05,.85,.92,1.62,1.89,2.34,2.9,1.24,.11,2.47,.3,3.69,.57Zm-6.03,13.37c.23,.21,.45,.42,.68,.62,.66,.58,1.35,1.11,2.13,1.52,.48,.26,.98,.47,1.53,.55,.26,.04,.52,.04,.78-.02,.44-.11,.74-.39,.96-.78,.2-.36,.3-.76,.36-1.17,.09-.63,.08-1.27,.02-1.9-.06-.6-.16-1.19-.29-1.78-.04-.17-.08-.34-.12-.52-1.22,.27-2.45,.46-3.69,.57-.72,1.01-1.49,1.99-2.35,2.91ZM6.13,8.85s-.03,0-.04,0c-.74,.21-1.47,.46-2.17,.79-.62,.29-1.22,.61-1.74,1.05-.3,.25-.56,.53-.76,.87-.28,.51-.29,1.01,0,1.52,.17,.3,.4,.55,.65,.78,.4,.36,.85,.64,1.32,.89,.85,.45,1.75,.77,2.67,1.04,.02,0,.05,0,.08,.01,.37-1.19,.83-2.34,1.35-3.47-.52-1.13-.98-2.29-1.35-3.47Zm6.12-2.15c1.07-.05,2.12-.04,3.2,0-.52-.68-1.04-1.32-1.6-1.93-.26,.23-1.46,1.68-1.6,1.93Zm-4.95,1.84c.25,.8,.54,1.58,.87,2.36,.49-.96,1.03-1.87,1.59-2.76h0v-.03c-.83,.1-1.64,.24-2.46,.42Zm13.09,7.56c-.25-.8-.54-1.58-.87-2.36-.5,.96-1.03,1.88-1.61,2.79,.84-.11,1.66-.24,2.48-.43Zm-10.64,.42s0-.03,0-.03c-.56-.89-1.09-1.8-1.59-2.75-.33,.78-.62,1.56-.87,2.36,.82,.18,1.64,.32,2.46,.42Zm9.77-5.63c.33-.78,.62-1.55,.86-2.35-.39-.13-2.27-.44-2.45-.41,.27,.45,.55,.9,.81,1.35,.26,.46,.51,.92,.78,1.41Zm-5.68,8.98c.28-.24,1.51-1.74,1.59-1.92-1.05,.05-2.1,.05-3.15,0,0,0-.01,0-.02,.01,.12,.22,1.26,1.6,1.58,1.91Z"/><path class="b" d="M13.85,14.79c-1.36,0-2.47-1.1-2.47-2.46,0-1.36,1.1-2.47,2.46-2.47,1.36,0,2.47,1.1,2.47,2.46,0,1.36-1.1,2.47-2.46,2.47Z"/></g></svg>