<?xml version="1.0" encoding="UTF-8"?><svg id="a" xmlns="http://www.w3.org/2000/svg" viewBox="0 0 84.29 24.64"><defs><style>.b{fill:#ca6699;}</style></defs><g><path d="M40.6,18.66c-.55-.12-1.06-.29-1.54-.53s-.92-.53-1.34-.88l1.12-1.37c.49,.42,1.02,.74,1.61,.95s1.22,.32,1.91,.32c.93,0,1.64-.17,2.15-.51s.76-.83,.76-1.45h0c0-.45-.12-.81-.35-1.07s-.53-.45-.9-.58-.84-.24-1.42-.35c-.02,0-.04,0-.06,0s-.04,0-.06,0l-.13-.03c-.86-.15-1.55-.31-2.09-.5s-.99-.52-1.38-1.01-.57-1.19-.57-2.09h0c0-.8,.18-1.48,.53-2.03s.87-.99,1.55-1.28,1.5-.44,2.45-.44c.46,0,.91,.05,1.35,.15s.88,.25,1.31,.44,.85,.44,1.27,.74l-1.02,1.42c-.49-.36-.97-.63-1.45-.8s-.97-.27-1.45-.27c-.87,0-1.55,.17-2.03,.52s-.73,.84-.73,1.48h0c0,.45,.12,.79,.37,1.05s.56,.44,.93,.56,.89,.24,1.55,.37c.02,0,.05,.01,.07,.01s.04,0,.07,.01c.03,0,.06,.01,.1,.02s.07,.01,.1,.02c.77,.16,1.42,.35,1.94,.56s.95,.57,1.3,1.05,.52,1.14,.52,1.98v.02c0,.78-.18,1.45-.55,2s-.9,.98-1.6,1.27-1.55,.44-2.54,.44c-.62,0-1.2-.06-1.75-.18Z"/><path d="M52.54,5.93h1.53l4.71,12.78h-1.93l-3.54-10.31-3.54,10.31h-1.93l4.71-12.78Zm-2.54,8.27h6.72v1.71h-6.72v-1.71Z"/><path d="M62.11,18.66c-.55-.12-1.06-.29-1.54-.53s-.92-.53-1.34-.88l1.12-1.37c.49,.42,1.02,.74,1.61,.95s1.22,.32,1.91,.32c.93,0,1.64-.17,2.15-.51s.76-.83,.76-1.45h0c0-.45-.12-.81-.35-1.07s-.53-.45-.9-.58-.84-.24-1.42-.35c-.02,0-.04,0-.06,0s-.04,0-.06,0l-.13-.03c-.86-.15-1.55-.31-2.09-.5s-.99-.52-1.38-1.01-.57-1.19-.57-2.09h0c0-.8,.18-1.48,.53-2.03s.87-.99,1.55-1.28,1.5-.44,2.45-.44c.46,0,.91,.05,1.35,.15s.88,.25,1.31,.44,.85,.44,1.27,.74l-1.02,1.42c-.49-.36-.97-.63-1.45-.8s-.97-.27-1.45-.27c-.87,0-1.55,.17-2.03,.52s-.73,.84-.73,1.48h0c0,.45,.12,.79,.37,1.05s.56,.44,.93,.56,.89,.24,1.55,.37c.02,0,.05,.01,.07,.01s.04,0,.07,.01c.03,0,.06,.01,.1,.02s.07,.01,.1,.02c.77,.16,1.42,.35,1.94,.56s.95,.57,1.3,1.05,.52,1.14,.52,1.98v.02c0,.78-.18,1.45-.55,2s-.9,.98-1.6,1.27-1.55,.44-2.54,.44c-.62,0-1.2-.06-1.75-.18Z"/><path d="M72.84,18.66c-.55-.12-1.06-.29-1.54-.53s-.92-.53-1.34-.88l1.12-1.37c.49,.42,1.02,.74,1.61,.95s1.22,.32,1.91,.32c.93,0,1.64-.17,2.15-.51s.76-.83,.76-1.45h0c0-.45-.12-.81-.35-1.07s-.53-.45-.9-.58-.84-.24-1.42-.35c-.02,0-.04,0-.06,0s-.04,0-.06,0l-.13-.03c-.86-.15-1.55-.31-2.09-.5s-.99-.52-1.38-1.01-.57-1.19-.57-2.09h0c0-.8,.18-1.48,.53-2.03s.87-.99,1.55-1.28,1.5-.44,2.45-.44c.46,0,.91,.05,1.35,.15s.88,.25,1.31,.44,.85,.44,1.27,.74l-1.02,1.42c-.49-.36-.97-.63-1.45-.8s-.97-.27-1.45-.27c-.87,0-1.55,.17-2.03,.52s-.73,.84-.73,1.48h0c0,.45,.12,.79,.37,1.05s.56,.44,.93,.56,.89,.24,1.55,.37c.02,0,.05,.01,.07,.01s.04,0,.07,.01c.03,0,.06,.01,.1,.02s.07,.01,.1,.02c.77,.16,1.42,.35,1.94,.56s.95,.57,1.3,1.05,.52,1.14,.52,1.98v.02c0,.78-.18,1.45-.55,2s-.9,.98-1.6,1.27-1.55,.44-2.54,.44c-.62,0-1.2-.06-1.75-.18Z"/></g><g><path class="b" d="M14.85,14.59c.06-.03,.1-.05,.14-.08,.24-.15,.59-.11,.8,.08,.15,.13,.19,.29,.14,.47-.13,.52-.28,1.03-.4,1.55-.15,.63-.29,1.26-.42,1.89-.04,.21-.02,.42-.02,.64,0,.03,.03,.07,.05,.14,.07-.11,.14-.19,.18-.28,.44-.93,.89-1.86,1.31-2.8,.48-1.07,.96-2.13,1.42-3.21,.17-.4,.28-.83,.41-1.25,.05-.17,.15-.26,.31-.31,.44-.14,.88-.17,1.34-.1,.08,.01,.15,.04,.22,.07,.19,.1,.23,.19,.16,.39-.1,.34-.21,.67-.3,1.01-.11,.4-.07,.82-.03,1.23,.05,.5,.25,.95,.5,1.41,.05-.08,.1-.14,.14-.21,.51-.93,1.02-1.85,1.53-2.78,.23-.43,.34-.9,.47-1.36,.04-.13,.07-.26,.11-.39,.05-.14,.16-.21,.3-.25,.44-.12,.88-.17,1.33-.1,.12,.02,.24,.08,.34,.15,.1,.06,.1,.17,.07,.28-.09,.32-.18,.63-.28,.95-.11,.36-.13,.73-.09,1.11,.06,.66,.35,1.47,.74,2.04,.14-.06,.29-.12,.44-.18,.9-.37,1.84-.54,2.81-.5,.99,.04,1.92,.27,2.75,.84,.69,.48,1.23,1.08,1.47,1.9,.19,.65,.21,1.29-.18,1.88-.3,.46-.71,.8-1.23,.99-.03,.01-.07,.02-.1,.02-.08-.01-.15-.03-.23-.05,.03-.08,.04-.17,.1-.22,.11-.1,.25-.17,.37-.27,.7-.57,.86-1.37,.44-2.18-.37-.71-.96-1.16-1.69-1.44-.7-.26-1.42-.39-2.16-.4-.81,0-1.6,.12-2.36,.4-.01,0-.02,.01-.04,.03,.06,.21,.13,.41,.18,.62,.21,.81,.01,1.51-.57,2.11-.55,.57-1.21,.94-1.96,1.15-.14,.04-.28,.09-.42,.1-.41,.04-.73-.24-.8-.65-.07-.44,.06-.84,.22-1.24,.18-.44,.44-.84,.77-1.19,.26-.28,.54-.55,.81-.82,.07-.07,.08-.12,.03-.21-.41-.72-.65-1.5-.81-2.31,0-.04-.02-.07-.03-.14-.05,.08-.09,.14-.12,.2-.52,1.02-1.09,2.01-1.74,2.94-.07,.11-.08,.21-.04,.33,.09,.31,.21,.61,.26,.92,.18,1-.14,1.8-.97,2.4-.47,.34-.99,.59-1.56,.71-.42,.09-.85,.14-1.28,.04-.29-.06-.44-.28-.39-.57,.06-.29,.24-.51,.42-.73,.59-.73,1.19-1.47,1.79-2.2,.15-.18,.16-.35,.07-.57-.22-.5-.44-1.01-.63-1.52-.1-.28-.15-.58-.22-.87,0-.03-.02-.06-.04-.11-.16,.38-.33,.74-.48,1.1-.7,1.7-1.53,3.33-2.43,4.93-.21,.37-.48,.68-.83,.92-.41,.28-.9,.15-1.12-.29-.23-.45-.25-.93-.22-1.42,.01-.22,.03-.43,.03-.65-.01,.03-.03,.05-.04,.08-.3,.65-.6,1.3-.91,1.94-.09,.18-.21,.35-.33,.51-.45,.59-1.4,.57-1.83-.04-.47-.67-.7-1.42-.78-2.23-.09-.93,.09-1.83,.34-2.72,0-.03,.02-.07,.03-.1,0-.01,0-.02,0-.05-.04,.01-.07,.02-.09,.04-.54,.31-1.08,.62-1.63,.93-.08,.04-.08,.08-.05,.15,.36,.82,.44,1.68,.34,2.56-.07,.68-.25,1.34-.56,1.95-.48,.96-1.21,1.69-2.12,2.23-.64,.38-1.33,.61-2.07,.67-.57,.05-1.13,0-1.67-.17-.38-.12-.63-.41-.81-.75-.48-.95-.43-1.89,.03-2.84,.34-.7,.86-1.24,1.46-1.72,1-.81,2.11-1.46,3.25-2.05,.1-.05,.19-.1,.31-.16-.16-.12-.29-.24-.44-.34-.89-.64-1.8-1.26-2.68-1.91-.87-.64-1.7-1.34-2.37-2.2-.32-.42-.59-.87-.79-1.35-.27-.64-.24-1.27-.04-1.94,.43-1.42,1.27-2.57,2.3-3.6,1.2-1.21,2.59-2.17,4.08-2.99,1.58-.87,3.23-1.59,4.96-2.13,.81-.25,1.63-.44,2.48-.46,.65-.01,1.31-.04,1.96,.01,1.3,.11,2.51,.51,3.54,1.36,.71,.58,1.12,1.35,1.19,2.28,.11,1.33-.29,2.52-1.01,3.61-1.03,1.56-2.43,2.66-4.17,3.32-.97,.37-1.98,.61-3.01,.72-.79,.09-1.58,.1-2.36-.04-.76-.14-1.42-.45-1.99-.99-.27-.26-.44-.57-.54-.92-.03-.1,.01-.18,.1-.23,.09-.06,.16,0,.22,.06,.32,.36,.7,.63,1.16,.79,.69,.25,1.41,.31,2.14,.25,.86-.07,1.7-.26,2.51-.54,1.12-.39,2.16-.94,3.07-1.72,.63-.54,1.19-1.14,1.6-1.87,.33-.59,.56-1.21,.54-1.89-.02-.7-.31-1.24-.94-1.58-.35-.19-.71-.34-1.1-.43-.72-.16-1.45-.2-2.19-.16-.91,.05-1.8,.22-2.67,.47-1.07,.3-2.09,.72-3.08,1.21-1.24,.62-2.44,1.3-3.54,2.15-.87,.67-1.67,1.41-2.26,2.35-.38,.61-.61,1.26-.65,1.98-.03,.76,.21,1.43,.65,2.04,.48,.66,1.09,1.18,1.72,1.68,.76,.61,1.52,1.22,2.28,1.84,.16,.13,.3,.28,.44,.42,.05,.05,.09,.06,.16,.02,1-.55,2.01-1.09,3-1.66,.2-.12,.35-.34,.52-.52,.51-.58,1.1-1.06,1.82-1.35,.28-.11,.56-.17,.86-.16,.45,.02,.79,.35,.89,.84,.07,.36,.06,.71,0,1.07,0,.04,0,.09-.01,.15Zm9.53,2.96l.03-.13c.06-.3,.04-.59-.07-.9-.35,.33-.66,.66-.87,1.08l-.06,.1-.07,.13-.12,.28-.08,.22-.04,.1c-.02,.09-.05,.18-.06,.28,0,.08,.04,.12,.13,.09,.45-.17,.83-.44,1.06-.88l.12-.31,.02-.05Zm-11.09-1.22l.39-1.23,.03-.1,.02-.11,.05-.21,.02-.05v-.05c.03-.13,.06-.25,.09-.38,.02-.11,.03-.21-.07-.28-.1-.07-.2-.05-.31,0l-.1,.03c-.29,.1-.52,.27-.71,.51l-.12,.14s-.01,0-.01,.02l-.11,.14-.19,.29-.21,.36-.1,.18-.15,.31-.35,.94-.03,.1-.17,.89v.1l-.02,.37v.15l.09,.68,.03,.13c.04,.12,.06,.24,.11,.36,.06,.15,.15,.16,.29,.08l.14-.14,.07-.14,.18-.27,.15-.29,.04-.1,.33-.76,.04-.1,.21-.54,.05-.11,.1-.24,.03-.1,.04-.11,.03-.1,.1-.27,.03-.1ZM3.37,22.89l.1,.05s.06,.03,.08,.03c.55,.09,1.05-.08,1.53-.33l.1-.06,.16-.1,.17-.13,.12-.08,.05-.04,.5-.48,.08-.09,.57-.81,.1-.21,.05-.1,.05-.13,.12-.36,.03-.1,.11-.65v-.1l-.02-.68v-.1l-.1-.47v-.06c-.03-.11-.08-.07-.13-.03l-.13,.08-.39,.23-.14,.1-.06,.03-.14,.11-.87,.58-.05,.04-.44,.34-.14,.12-.46,.4-.27,.27-.09,.09-.08,.09-.07,.08-.28,.41-.04,.08-.05,.1-.05,.1-.03,.07-.17,.5-.03,.21c0,.17-.02,.33,0,.5,.02,.22,.12,.4,.34,.49Zm15.05-3.01l.02,.05c.1-.02,.2-.02,.29-.07,.65-.36,1.06-.92,1.28-1.62,.02-.06,0-.12,.01-.18h-.03l-1.57,1.82Z"/><path class="b" d="M3.1,21.75h0Z"/></g></svg>